<?xml version="1.0" encoding="UTF-8" standalone="no"?>
<!DOCTYPE svg PUBLIC "-//W3C//DTD SVG 1.1//EN" "http://www.w3.org/Graphics/SVG/1.1/DTD/svg11.dtd">
<svg width="100%" height="100%" viewBox="0 0 168 168" version="1.1" xmlns="http://www.w3.org/2000/svg" xmlns:xlink="http://www.w3.org/1999/xlink" xml:space="preserve" xmlns:serif="http://www.serif.com/" style="fill-rule:evenodd;clip-rule:evenodd;stroke-linejoin:round;stroke-miterlimit:2;">
    <g id="POLSL-Logo" serif:id="POLSL Logo" transform="matrix(1.13975,0,0,1.13975,-51.6928,-52.3265)">
        <path d="M192.163,129.004L184.513,129.144C183.763,134.347 182.407,139.353 180.519,144.088L187.073,148.035C184.631,153.875 181.457,159.335 177.667,164.297L170.972,160.593C167.765,164.649 164.095,168.321 160.039,171.528L163.741,178.224C158.779,182.014 153.32,185.186 147.479,187.631L143.532,181.075C138.796,182.963 133.791,184.319 128.59,185.069L128.448,192.719C125.372,193.11 122.237,193.312 119.055,193.312C115.873,193.312 112.737,193.11 109.663,192.719L109.521,185.069C104.32,184.319 99.314,182.963 94.577,181.075L90.631,187.631C84.791,185.186 79.332,182.014 74.368,178.224L78.072,171.528C74.016,168.321 70.344,164.649 67.139,160.593L60.443,164.297C56.653,159.335 53.48,153.875 51.036,148.035L57.591,144.088C55.704,139.353 54.348,134.347 53.596,129.144L45.947,129.004C45.556,125.928 45.355,122.793 45.355,119.612C45.355,116.429 45.556,113.293 45.947,110.219L53.596,110.077C54.348,104.876 55.704,99.869 57.591,95.133L51.036,91.187C53.48,85.347 56.653,79.888 60.443,74.924L67.139,78.628C70.344,74.572 74.016,70.9 78.072,67.695L74.368,60.999C79.332,57.209 84.791,54.036 90.631,51.592L94.577,58.147C99.314,56.26 104.32,54.904 109.521,54.152L109.663,46.503C112.737,46.112 115.873,45.911 119.055,45.911C122.237,45.911 125.372,46.112 128.448,46.503L128.59,54.152C133.791,54.904 138.796,56.26 143.532,58.147L147.479,51.592C153.32,54.036 158.779,57.209 163.741,60.999L160.039,67.695C164.095,70.9 167.765,74.572 170.972,78.628L177.667,74.924C181.457,79.888 184.631,85.347 187.073,91.187L180.519,95.133C182.407,99.869 183.763,104.876 184.513,110.077L192.163,110.219C192.555,113.293 192.756,116.429 192.756,119.612C192.756,122.793 192.555,125.928 192.163,129.004ZM119.055,64.808C88.788,64.808 64.252,89.344 64.252,119.612C64.252,149.877 88.788,174.415 119.055,174.415C149.323,174.415 173.859,149.877 173.859,119.612C173.859,89.344 149.323,64.808 119.055,64.808ZM119.055,170.635C90.876,170.634 68.031,147.79 68.031,119.612C68.031,91.432 90.876,68.587 119.055,68.587C147.235,68.587 170.079,91.432 170.079,119.612C170.079,147.79 147.235,170.634 119.055,170.635ZM164.763,131.604C156.855,121.098 155.975,111.976 155.975,111.976C155.975,111.976 161.196,114.604 165.857,113.124C154.909,106.82 150.621,97.937 150.62,88.524C150.62,83.887 146.861,80.128 142.224,80.128C137.587,80.128 133.828,83.887 133.828,88.524C133.828,91.379 135.252,93.9 137.429,95.417C137.028,96.153 134.067,101.22 127.364,103.187C126.823,100.911 126.532,98.564 126.532,98.564L122.369,96.715C122.369,96.715 126.223,95.584 126.223,95.635C121.223,88.621 123.91,83.456 123.91,83.456C123.91,83.456 125.386,83.253 128.844,78.677C123.585,78.853 122.344,68.196 113.737,74.207C111.468,73.472 108.685,73.391 106.029,78.369C106.352,78.452 112.608,76.64 113.891,80.065C112.476,78.548 109.247,78.929 109.264,78.913C113.004,80.519 117.559,85.537 110.253,103.035C103.897,100.971 101.072,96.136 100.681,95.417C102.859,93.9 104.283,91.379 104.283,88.524C104.283,83.887 100.524,80.128 95.886,80.128C91.249,80.128 87.49,83.887 87.49,88.524C87.49,97.937 83.202,106.82 72.252,113.124C76.915,114.604 82.136,111.976 82.136,111.976C82.136,111.976 81.255,121.098 73.347,131.604C81.517,129.524 85.68,122.459 85.68,122.459C85.68,122.459 84.063,133.583 78.769,144.304C89.252,140.449 93.08,122.149 93.08,122.149C93.08,122.149 91.581,135.78 90.151,140.34C97.305,134.537 99.081,120.679 99.081,120.679C99.081,120.679 99.117,129.295 98.321,133.404C103.228,130.703 104.333,119.067 104.333,119.067C104.333,119.067 105.192,126.163 104.488,130.165C109.649,126.277 109.267,117.063 109.267,117.063C109.267,117.063 111.702,122.509 113.392,129.527C110.477,129.664 99.6,130.691 96.293,138.261C96.303,138.271 97.548,138.983 99.153,139.905C97.376,142.227 95.46,144.528 94.636,144.832C93.184,145.136 90.851,143.102 89.725,143.167C88.602,143.232 86.641,143.577 86.617,146.759C87.404,145.255 88.851,145.859 89.184,146.295C89.516,146.729 92.502,145.8 93.012,146.976C93.386,147.88 87.381,147.661 86.345,148.323C85.309,148.984 84.714,149.788 85.553,152.877C86.056,150.871 86.757,151.59 87.529,151.575C88.303,151.56 89.693,149.468 92.633,149.923C93.232,150.375 89.535,151.515 89.155,153.016C88.775,154.519 89.524,157.063 90.907,157.243C90.133,155.58 90.969,154.886 91.827,154.786C93.431,154.661 93.808,150.493 96.945,149.893C97.981,149.623 98.391,152.163 98.969,152.556C99.548,152.949 101.045,153.175 100.476,155.243C102.309,153.319 102.284,151.837 101.815,150.698C101.345,149.561 98.48,148.083 98.202,147.251C98.059,146.824 100.217,144.207 102.361,141.751C104.435,142.944 106.24,143.993 106.236,144.021C107.425,137.591 113.32,138.128 114.851,138.38C114.915,139.215 114.956,140.048 114.969,140.879C114.943,140.905 114.919,140.929 114.892,140.957C108.881,140.957 109.112,147.277 114.431,147.277C113.968,149.204 109.575,153.136 106.723,146.353C99.863,153.597 109.19,160.997 115.509,157.76C114.892,161.845 119.055,166.856 119.055,166.856C119.055,166.856 123.217,161.845 122.602,157.76C128.921,160.997 138.248,153.597 131.386,146.353C128.536,153.136 124.143,149.204 123.68,147.277C128.997,147.277 129.229,140.957 123.217,140.957C123.192,140.929 123.167,140.905 123.141,140.879C123.155,140.048 123.195,139.215 123.26,138.38C124.79,138.128 130.685,137.591 131.873,144.021C131.869,143.993 133.676,142.944 135.749,141.751C137.893,144.207 140.052,146.824 139.909,147.251C139.629,148.083 136.765,149.561 136.296,150.698C135.825,151.837 135.801,153.319 137.635,155.243C137.064,153.175 138.563,152.949 139.141,152.556C139.72,152.163 140.129,149.623 141.165,149.893C144.303,150.493 144.679,154.661 146.283,154.786C147.141,154.886 147.977,155.58 147.203,157.243C148.587,157.063 149.335,154.519 148.955,153.016C148.575,151.515 144.879,150.375 145.477,149.923C148.417,149.468 149.808,151.56 150.581,151.575C151.353,151.59 152.055,150.871 152.556,152.877C153.397,149.788 152.8,148.984 151.765,148.323C150.729,147.661 144.723,147.88 145.099,146.976C145.611,145.8 148.595,146.729 148.927,146.295C149.26,145.859 150.707,145.255 151.493,146.759C151.469,143.577 149.509,143.232 148.384,143.167C147.259,143.102 144.927,145.136 143.473,144.832C142.649,144.528 140.733,142.227 138.957,139.905C140.563,138.983 141.808,138.271 141.817,138.261C138.509,130.691 127.632,129.664 124.72,129.527C126.408,122.509 128.844,117.063 128.844,117.063C128.844,117.063 128.461,126.277 133.623,130.165C132.919,126.163 133.777,119.067 133.777,119.067C133.777,119.067 134.883,130.703 139.789,133.404C138.992,129.295 139.028,120.679 139.028,120.679C139.028,120.679 140.805,134.537 147.96,140.34C146.529,135.78 145.031,122.149 145.031,122.149C145.031,122.149 148.859,140.449 159.34,144.304C154.048,133.583 152.429,122.459 152.429,122.459C152.429,122.459 156.593,129.524 164.763,131.604ZM145.635,91.809C144.921,92 144.2,91.883 143.609,91.539C144.496,98.683 139.273,114.821 119.055,114.904C98.836,114.821 93.614,98.683 94.502,91.539C93.91,91.883 93.188,92 92.476,91.809C91.056,91.429 90.214,89.971 90.595,88.551C90.975,87.131 92.433,86.288 93.853,86.669C93.955,86.696 94.053,86.729 94.148,86.767C93.943,86.253 93.896,85.669 94.051,85.093C94.431,83.675 95.891,82.832 97.309,83.212C98.729,83.593 99.571,85.052 99.191,86.472C99.036,87.048 98.704,87.529 98.269,87.871C98.371,87.887 98.472,87.907 98.575,87.933C99.995,88.313 100.836,89.773 100.456,91.193C100.076,92.612 98.616,93.455 97.197,93.075C96.464,92.877 95.884,92.393 95.548,91.775C95.877,99.8 102.225,110.647 119.055,110.712C135.884,110.647 142.232,99.8 142.561,91.775C142.225,92.393 141.647,92.877 140.913,93.075C139.493,93.455 138.035,92.612 137.655,91.193C137.275,89.773 138.116,88.313 139.536,87.933C139.637,87.907 139.739,87.887 139.84,87.871C139.405,87.529 139.073,87.048 138.919,86.472C138.539,85.052 139.381,83.593 140.801,83.212C142.221,82.832 143.68,83.675 144.06,85.093C144.215,85.669 144.167,86.253 143.963,86.767C144.057,86.729 144.156,86.696 144.257,86.669C145.676,86.288 147.136,87.131 147.516,88.551C147.896,89.971 147.055,91.429 145.635,91.809ZM123.564,78.467C121.773,78.089 120.629,77.58 119.739,77.067C119.51,77.736 118.877,78.219 118.131,78.219C117.192,78.219 116.432,77.457 116.432,76.52C116.432,76.088 116.593,75.696 116.859,75.396C116.249,75.169 115.524,75.021 114.547,74.999C118.754,73.564 120.512,77.218 123.564,78.467Z" style="fill:rgb(25,24,24);fill-rule:nonzero;"/>
    </g>
</svg>
