<?xml version="1.0" standalone="no"?>
<!DOCTYPE svg PUBLIC "-//W3C//DTD SVG 20010904//EN"
 "http://www.w3.org/TR/2001/REC-SVG-20010904/DTD/svg10.dtd">
<svg version="1.0" xmlns="http://www.w3.org/2000/svg"
 width="980.000000pt" height="980.000000pt" viewBox="0 0 980.000000 980.000000"
 preserveAspectRatio="xMidYMid meet">
<metadata>
Created by potrace 1.14, written by Peter Selinger 2001-2017
</metadata>
<g transform="translate(0.000000,980.000000) scale(0.100000,-0.100000)"
fill="#000000" stroke="none">
<path d="M3089 9796 c-2 -2 -62 -6 -134 -10 -71 -4 -139 -9 -150 -11 -11 -3
-42 -7 -70 -10 -80 -9 -115 -14 -200 -30 -44 -8 -89 -17 -100 -19 -37 -6 -89
-17 -195 -43 -58 -14 -112 -26 -120 -28 -8 -2 -15 -4 -15 -5 0 -1 -8 -3 -17
-5 -40 -7 -158 -47 -189 -63 -43 -22 -164 -92 -193 -112 -13 -8 -36 -24 -52
-34 -53 -36 -209 -155 -238 -180 -15 -15 -29 -26 -31 -26 -5 0 -95 -83 -174
-160 -59 -57 -168 -174 -211 -226 -41 -49 -199 -255 -230 -300 -156 -224 -227
-339 -292 -474 -63 -129 -108 -230 -103 -230 2 0 -3 -17 -12 -37 -33 -79 -91
-257 -87 -265 3 -4 0 -8 -7 -8 -7 0 -10 -3 -7 -6 3 -3 2 -21 -4 -41 -14 -50
-18 -71 -24 -128 -3 -27 -7 -61 -10 -75 -3 -14 -7 -155 -9 -315 -3 -212 0
-321 10 -405 18 -148 30 -226 41 -285 2 -11 6 -31 9 -45 3 -14 12 -52 20 -85
9 -33 17 -71 19 -85 2 -14 13 -58 24 -98 11 -40 21 -75 21 -77 1 -3 1 -6 2 -7
0 -2 2 -10 4 -18 2 -8 9 -28 16 -45 7 -16 13 -32 14 -35 31 -92 121 -266 158
-306 7 -6 21 -25 32 -40 11 -16 36 -46 55 -68 19 -23 40 -46 45 -54 28 -36
177 -180 251 -241 44 -37 143 -105 194 -132 25 -13 48 -28 52 -34 4 -5 8 -7 8
-3 0 4 42 -13 94 -38 51 -24 100 -44 108 -44 8 0 18 -4 24 -9 14 -13 192 -77
243 -87 13 -3 31 -9 40 -13 9 -5 19 -9 24 -10 4 -1 8 -1 10 -2 7 -2 36 -9 61
-14 15 -3 50 -17 76 -30 51 -26 51 -24 34 -95 -3 -14 -8 -53 -11 -87 -6 -71
-11 -67 99 -77 121 -10 234 -88 259 -178 22 -82 10 -290 -20 -347 -5 -9 -9
-19 -10 -24 -3 -41 -251 -466 -285 -489 -7 -5 -7 -8 -1 -8 6 0 6 -3 0 -8 -25
-17 -164 -214 -199 -282 -22 -41 -42 -77 -45 -80 -3 -3 -7 -9 -8 -15 -1 -5
-20 -50 -41 -100 -35 -80 -50 -127 -68 -215 -10 -53 -3 -318 10 -338 4 -8 6
-16 3 -18 -3 -3 -1 -20 4 -37 5 -18 12 -45 15 -62 7 -42 43 -175 54 -205 6
-14 12 -41 14 -60 3 -19 5 -35 6 -35 2 0 10 -35 13 -60 2 -12 6 -25 9 -30 3
-6 4 -18 3 -27 -2 -10 0 -18 5 -18 5 0 7 -8 6 -17 -4 -23 25 -52 59 -62 26 -6
45 -41 24 -41 -6 0 -8 -4 -5 -9 11 -16 -102 -110 -194 -161 -51 -28 -109 -62
-129 -75 -38 -23 -100 -88 -102 -105 -1 -6 -2 -16 -3 -22 -4 -27 16 -66 40
-77 55 -25 154 1 217 56 28 26 20 4 -15 -40 -113 -142 -79 -258 74 -252 50 1
152 47 203 91 36 31 179 101 220 108 17 2 30 5 30 7 0 1 15 2 33 3 41 3 59
-17 64 -69 10 -95 78 -157 173 -156 43 0 54 4 79 32 26 29 28 37 23 83 -3 28
-21 98 -41 156 -46 134 -46 144 -3 135 25 -6 131 -84 157 -116 5 -6 50 -32 60
-35 3 0 12 -4 20 -8 16 -7 50 -10 87 -7 12 0 34 12 48 26 48 49 27 123 -63
225 l-31 35 77 6 c83 7 128 25 180 73 48 44 42 81 -23 150 -79 83 -108 94
-275 101 -52 2 -102 6 -110 7 -75 16 -117 64 -156 178 -30 89 -36 120 -36 190
0 117 41 180 247 385 83 83 179 186 214 230 35 44 69 80 75 80 6 0 25 -22 43
-50 101 -159 218 -294 338 -390 28 -22 52 -42 55 -45 3 -3 25 -18 50 -34 25
-16 58 -38 73 -49 55 -37 300 -153 343 -162 6 -2 27 -10 45 -18 33 -15 174
-67 194 -71 6 -1 47 -14 93 -29 87 -28 219 -65 262 -73 14 -2 31 -7 38 -9 8
-3 37 -8 65 -11 29 -4 55 -8 59 -11 4 -2 38 -6 75 -9 38 -3 79 -7 93 -10 58
-10 258 -18 440 -18 196 0 257 4 384 24 38 6 71 9 74 6 2 -3 12 -1 21 3 9 5
51 12 93 15 l77 7 11 -39 c5 -22 10 -50 9 -63 0 -13 0 -60 1 -104 1 -44 -2
-89 -6 -100 -9 -23 -64 -75 -79 -75 -6 0 -17 -6 -24 -13 -6 -6 -15 -12 -19
-12 -4 -1 -65 -30 -137 -65 -71 -35 -134 -64 -140 -64 -5 -1 -49 -20 -97 -44
-48 -23 -92 -42 -97 -42 -6 0 -11 -5 -11 -11 0 -5 -4 -8 -9 -4 -5 3 -12 1 -16
-5 -8 -12 -52 -13 -59 -1 -3 4 -21 11 -40 14 -19 3 -50 12 -68 20 -18 8 -42
17 -53 20 -11 3 -45 13 -75 22 -49 14 -138 28 -165 26 -86 -6 -122 -37 -131
-111 -6 -48 13 -87 58 -125 31 -26 102 -62 141 -71 9 -2 27 -6 40 -10 25 -6
56 -12 92 -18 106 -19 168 -61 141 -98 -28 -38 -156 -85 -276 -101 -67 -9
-134 -42 -157 -76 -20 -31 -34 -81 -22 -81 5 0 9 -9 9 -20 0 -11 5 -20 12 -20
6 0 9 -3 5 -6 -3 -3 8 -19 24 -35 28 -28 92 -49 130 -44 8 1 43 6 79 10 36 4
72 9 80 11 8 1 26 5 40 8 29 6 107 30 133 41 32 13 18 -15 -36 -69 -29 -29
-68 -73 -87 -96 -19 -24 -40 -48 -45 -54 -29 -32 -56 -103 -50 -136 16 -88 80
-150 157 -150 42 0 51 5 100 52 53 52 71 73 160 189 70 92 116 138 142 145 28
7 28 1 -1 -111 -19 -74 -24 -205 -10 -253 19 -64 55 -112 100 -133 58 -26 81
-24 120 11 29 25 94 133 90 150 -1 3 2 10 7 15 16 21 45 137 56 230 8 67 19
86 28 50 10 -40 68 -126 119 -177 48 -48 114 -84 164 -89 34 -4 93 31 93 55 0
7 6 19 13 25 33 27 52 166 24 183 -6 4 -9 8 -4 8 4 0 -9 31 -28 70 -19 38 -35
72 -35 75 -1 3 -10 26 -21 52 -12 27 -23 66 -26 88 -4 38 2 48 96 175 124 168
209 290 246 355 16 28 32 52 35 55 18 17 166 344 174 385 1 6 4 15 8 20 3 6
12 30 19 55 7 25 14 50 15 55 2 6 25 92 51 193 l48 182 139 45 c135 44 180 52
202 37 6 -4 23 -32 38 -62 75 -152 368 -372 561 -422 28 -7 52 -15 55 -18 3
-3 12 -6 20 -8 35 -6 96 -37 112 -56 40 -48 13 -64 -162 -96 -86 -16 -93 -17
-130 -23 -19 -4 -51 -9 -70 -13 -19 -4 -42 -7 -50 -8 -9 -1 -20 -5 -25 -8 -9
-5 -69 -21 -86 -22 -3 -1 -29 -15 -57 -33 -59 -37 -95 -94 -81 -131 6 -15 5
-21 -1 -17 -16 10 21 -78 43 -102 11 -13 26 -23 34 -23 7 0 13 -5 13 -11 0 -5
4 -8 9 -4 5 3 12 1 15 -4 7 -10 117 -5 125 6 3 4 15 10 26 11 11 2 39 12 62
23 62 28 70 22 30 -21 -72 -78 -83 -143 -37 -212 60 -91 148 -109 251 -51 40
23 50 25 63 14 9 -7 16 -19 16 -26 0 -23 52 -106 77 -122 38 -25 90 -24 166 3
38 13 74 24 82 24 8 0 37 -23 65 -51 27 -27 55 -47 60 -44 6 3 10 2 10 -3 0
-17 95 -1 142 25 88 48 113 138 88 313 -5 35 -8 66 -6 68 2 2 23 -15 47 -38
47 -44 115 -70 166 -63 17 3 50 20 72 39 55 47 67 101 45 207 -6 31 -9 57 -7
57 3 0 0 7 -7 15 -7 8 -10 15 -6 15 3 0 1 11 -4 26 -6 14 -12 38 -15 54 -6 36
-69 244 -86 285 -7 17 -13 33 -13 36 -1 3 -23 35 -49 70 -26 35 -89 119 -139
187 l-91 123 12 57 c7 31 15 66 19 77 8 28 7 272 -2 315 -4 19 -14 63 -23 98
-15 59 -14 65 2 102 10 22 22 40 27 40 4 0 8 6 8 13 0 6 16 30 36 52 44 50
166 211 185 245 8 14 20 29 27 33 6 4 12 12 12 17 0 5 16 34 35 64 19 30 35
60 35 66 0 5 5 10 11 10 5 0 8 4 5 9 -4 5 -3 11 1 13 10 4 52 76 60 101 3 9
10 17 15 17 5 0 7 4 3 9 -3 5 0 16 7 23 28 30 215 407 233 468 1 3 9 23 19 45
23 52 77 193 80 208 2 7 9 26 15 42 7 17 14 37 16 45 3 8 22 78 44 154 23 77
39 142 36 144 -3 3 0 11 6 19 6 7 9 13 6 13 -3 0 -2 14 3 32 5 17 12 50 15 72
3 23 10 68 16 101 23 148 34 612 17 730 -11 71 -52 203 -78 250 -51 91 -85
145 -92 145 -5 0 -8 7 -8 15 0 8 -4 15 -8 15 -4 0 -15 12 -25 28 -9 15 -29 41
-44 59 -15 17 -42 48 -60 70 -87 104 -327 356 -608 639 -148 149 -296 302
-328 340 -33 38 -67 78 -76 90 -10 11 -26 36 -37 55 -10 19 -21 36 -25 39 -11
10 -47 107 -59 159 -20 84 1 262 39 346 73 157 94 198 125 244 20 29 36 55 36
57 0 15 165 184 179 184 5 0 16 6 23 13 7 6 31 18 53 26 76 26 134 87 119 125
-12 31 -148 10 -259 -39 -16 -7 -41 -16 -55 -20 -14 -4 -51 -21 -82 -36 -32
-16 -58 -26 -58 -23 0 4 -9 -1 -20 -11 -11 -10 -20 -15 -20 -10 0 4 -7 2 -15
-5 -9 -7 -35 -23 -58 -35 -58 -30 -89 -48 -105 -62 -7 -7 -18 -13 -23 -13 -16
0 -133 -94 -184 -148 -124 -133 -222 -315 -231 -432 -11 -155 1 -240 69 -485
8 -28 39 -123 47 -140 4 -11 18 -42 30 -70 12 -27 23 -54 25 -60 3 -16 20 -55
68 -158 25 -53 43 -97 39 -97 -4 0 -2 -4 4 -8 9 -6 90 -186 109 -242 1 -3 4
-12 8 -20 27 -69 88 -275 85 -289 -1 -3 2 -17 5 -31 14 -55 29 -174 43 -345
10 -111 9 -358 0 -430 -5 -33 -10 -71 -11 -85 -2 -14 -4 -27 -6 -30 -1 -3 -3
-9 -4 -15 -1 -5 -10 -37 -19 -70 -69 -230 -258 -442 -516 -577 -73 -38 -270
-118 -292 -118 -8 0 -18 -4 -23 -9 -6 -6 -21 -12 -35 -15 -14 -3 -65 -17 -115
-31 -49 -14 -96 -23 -102 -20 -7 2 -13 1 -13 -3 0 -9 -54 -15 -167 -16 -46 -1
-83 -5 -83 -9 0 -5 -5 -5 -11 -1 -7 4 -129 8 -273 9 -277 3 -318 5 -596 31
-98 8 -315 39 -315 44 0 2 -18 6 -63 14 -58 11 -174 60 -162 68 27 19 90 47
90 41 0 -4 9 6 20 22 18 26 20 41 16 115 -3 47 -8 102 -10 123 -5 46 -6 45
139 142 50 33 97 65 105 72 125 100 170 141 256 227 86 86 146 154 238 266 38
47 164 237 192 290 16 30 35 60 42 68 7 7 10 18 7 23 -4 5 -2 9 3 9 5 0 19 24
32 53 13 28 31 60 39 70 8 9 11 17 6 17 -4 0 -3 6 3 13 26 31 124 285 137 354
2 15 7 39 10 53 11 47 17 84 19 119 0 20 4 41 6 46 5 9 4 400 0 400 -1 0 -4
34 -5 75 -5 96 -10 152 -30 280 -12 80 -47 208 -121 445 -33 105 -111 277
-161 358 -13 20 -20 37 -16 37 5 0 3 4 -2 8 -6 4 -44 68 -85 142 -40 74 -86
154 -102 177 -15 23 -28 44 -28 47 0 9 -102 151 -112 154 -4 2 -8 8 -8 13 0 9
-17 30 -87 107 -18 20 -33 40 -33 46 0 5 -3 7 -6 4 -3 -4 -22 12 -42 35 -76
85 -217 217 -231 217 -5 0 -11 3 -13 8 -5 13 -91 72 -104 72 -7 0 -14 4 -16 9
-1 5 -52 34 -113 64 -100 51 -151 74 -285 134 -207 93 -613 227 -747 248 -11
2 -30 6 -42 10 -11 3 -31 8 -43 10 -13 2 -41 7 -63 10 -22 4 -47 8 -55 10 -8
1 -49 6 -90 10 -41 4 -86 9 -100 12 -32 5 -845 14 -851 9z"/>
</g>
</svg>
