<svg xmlns="http://www.w3.org/2000/svg" viewBox="0 0 812 360" xmlns:v="https://vecta.io/nano"><style><![CDATA[.c{fill:#fff}.d{fill:#191818}.e{stroke:#fff}.f{stroke-linejoin:round}.g{stroke-width:3.438}.h{font-family:Conthrax}]]></style><defs><path id="A" d="M41.914 21.402c-8.617 0-12.216 21.436-15 35s0 45 0 45h30s2.784-31.436 0-45-6.383-35-15-35z"/><path id="B" d="M36.914 68.902c-3.152-2.759-3-11-2-15s4.643-7 7-7 6 3 7 7 1.152 12.241-2 15-6.848 2.759-10 0z"/><path id="C" d="M26.914 76.402l-15 15v15l15-5zm30 0l15 15v15l-15-5z"/></defs><path d="M0 0h812v360H0z" paint-order="stroke markers fill" class="d"/><g class="c"><path d="M220.7 239.596v21.277q0 2.197-1.575 3.772-1.538 1.538-3.735 1.538h-53.174q-2.197 0-3.735-1.575l-10.62-10.62q-1.575-1.538-1.575-3.735v-21.277q0-2.197 1.575-3.772l10.62-10.62q1.538-1.538 3.735-1.538h53.174q2.197 0 3.735 1.575 1.575 1.538 1.575 3.735 0 2.197-1.575 3.772-1.538 1.538-3.735 1.538h-50.94l-7.544 7.507v16.846l7.544 7.544h45.63v-10.657h-26.587q-2.197 0-3.772-1.538-1.538-1.575-1.538-3.772 0-2.197 1.538-3.735 1.575-1.575 3.772-1.575h31.897q2.197 0 3.735 1.575 1.575 1.538 1.575 3.735zm83.693 15.93q2.197 0 3.735 1.575 1.575 1.538 1.575 3.735 0 2.197-1.575 3.772-1.538 1.575-3.735 1.575h-63.794q-2.197 0-3.772-1.575-1.538-1.575-1.538-3.772v-42.517q0-2.197 1.538-3.735 1.575-1.575 3.772-1.575h63.794q2.197 0 3.735 1.575 1.575 1.538 1.575 3.735 0 2.197-1.575 3.772-1.538 1.538-3.735 1.538h-58.484v10.657h47.864q2.197 0 3.735 1.575 1.575 1.538 1.575 3.735 0 2.197-1.575 3.772-1.538 1.538-3.735 1.538h-47.864v10.62zm91.933.916q2.38 1.648 2.38 4.431 0 2.197-1.575 3.772-1.538 1.538-3.735 1.538-1.685 0-3.003-.916l-30.505-20.361-24.976-.037v16.003q0 2.197-1.575 3.772-1.538 1.538-3.735 1.538-2.197 0-3.772-1.538-1.538-1.575-1.538-3.772v-42.517q0-2.197 1.538-3.735 1.575-1.575 3.772-1.575 2.197 0 3.735 1.538 1.538 1.501 1.575 3.772v15.894l24.976.037 30.505-20.325q1.318-.916 3.003-.916 2.197 0 3.735 1.575 1.575 1.538 1.575 3.735 0 2.747-2.38 4.431l-25.232 16.809zm89.003 0q2.38 1.648 2.38 4.431 0 2.197-1.575 3.772-1.538 1.538-3.735 1.538-1.685 0-3.003-.916l-30.505-20.361-24.976-.037v16.003q0 2.197-1.575 3.772-1.538 1.538-3.735 1.538-2.197 0-3.772-1.538-1.538-1.575-1.538-3.772v-42.517q0-2.197 1.538-3.735 1.575-1.575 3.772-1.575 2.197 0 3.735 1.538 1.538 1.501 1.575 3.772v15.894l24.976.037 30.505-20.325q1.318-.916 3.003-.916 2.197 0 3.735 1.575 1.575 1.538 1.575 3.735 0 2.747-2.38 4.431l-25.232 16.809zm80.763-8.386v-24.39h-45.63l-7.544 7.507v24.39h45.63zm5.31-35.01q2.197 0 3.735 1.575 1.575 1.538 1.575 3.735v31.897q0 2.197-1.575 3.735l-10.62 10.657q-1.538 1.538-3.772 1.538h-53.137q-2.197 0-3.772-1.538-1.538-1.575-1.538-3.772v-31.897q0-2.197 1.575-3.735l10.62-10.657q1.538-1.538 3.735-1.538zm94.313 47.827q0 2.197-1.575 3.772-1.538 1.538-3.735 1.538h-10.62q-2.234 0-3.772-1.538l-40.979-40.979h-3.113v37.207q0 2.197-1.575 3.772-1.538 1.538-3.735 1.538-2.197 0-3.772-1.538-1.538-1.575-1.538-3.772v-42.517q0-2.197 1.538-3.735 1.575-1.575 3.772-1.575h10.62q2.234 0 3.772 1.538l40.979 40.979h3.113v-37.207q0-2.197 1.538-3.735 1.575-1.575 3.772-1.575 2.197 0 3.735 1.575 1.575 1.538 1.575 3.735z"/><path d="M137.557 300.357c-3.636 0-5.04 1.296-5.04 4.752v3.096c0 3.456 1.404 4.752 5.04 4.752h7.272c1.44 0 2.232-.738 2.232-2.754v-4.194c0-.36-.18-.54-.54-.54h-7.506c-.252 0-.396.144-.396.414v1.35c0 .27.144.414.396.414h5.274c.162 0 .216.072.216.234v1.458c0 .81-.27 1.098-.9 1.098h-5.94c-1.854 0-2.394-.558-2.394-2.466v-2.592c0-1.908.54-2.448 2.394-2.448h9.018c.27 0 .396-.144.396-.414v-1.764c0-.27-.126-.396-.396-.396zm15.84 2.718c-3.24 0-4.284 1.044-4.284 3.654v2.592c0 2.61 1.044 3.636 4.284 3.636h5.094c3.24 0 4.284-1.026 4.284-3.636v-2.592c0-2.61-1.044-3.654-4.284-3.654zm-1.71 4.086c0-1.512.414-1.962 1.962-1.962h4.59c1.566 0 1.98.45 1.98 1.962v1.71c0 1.512-.414 1.98-1.98 1.98h-4.59c-1.548 0-1.962-.468-1.962-1.98zm4.914-8.892c-.27 0-.432.144-.558.414l-1.638 3.33c-.126.252.018.414.288.414h1.368c.27 0 .396-.144.54-.414l1.854-3.33c.144-.27-.018-.414-.27-.414zm12.528 4.806c-3.24 0-4.284 1.044-4.284 3.654v5.832c0 .27.144.396.414.396h1.764c.27 0 .396-.126.396-.396v-5.346c0-1.512.414-1.98 1.962-1.98h4.788c.216 0 .324-.09.324-.324v-1.512c0-.216-.108-.324-.324-.324zm11.034 0c-3.24 0-4.284 1.044-4.284 3.654v5.832c0 .27.144.396.414.396h1.764c.27 0 .396-.126.396-.396v-5.22c0-1.512.414-1.98 1.962-1.98h4.788c1.548 0 1.854.468 1.854 1.98v5.22c0 .27.126.396.396.396h1.764c.27 0 .396-.126.396-.396v-5.832c0-2.61-1.044-3.654-4.284-3.654zm15.804 0c-3.24 0-4.284 1.044-4.284 3.654v2.592c0 2.61 1.044 3.636 4.284 3.636h5.094c3.24 0 4.284-1.026 4.284-3.636v-2.592c0-2.61-1.044-3.654-4.284-3.654zm-1.71 4.086c0-1.512.414-1.962 1.962-1.962h4.59c1.566 0 1.98.45 1.98 1.962v1.71c0 1.512-.414 1.98-1.98 1.98h-4.59c-1.548 0-1.962-.468-1.962-1.98zm15.822-4.086c-2.124 0-2.826.972-2.826 2.466v.792c0 1.584.792 2.43 2.808 2.43h6.048c.738 0 1.008.288 1.008.756v.486c0 .612-.27.864-1.008.864h-8.532c-.216 0-.324.108-.324.324v1.44c0 .216.108.324.324.324h9.216c2.124 0 2.826-.936 2.826-2.52v-1.008c0-1.548-.792-2.412-2.808-2.412h-6.066c-.738 0-.99-.288-.99-.774v-.27c0-.522.252-.81.99-.81h8.118c.216 0 .324-.108.324-.324v-1.44c0-.216-.108-.324-.324-.324zm3.996-4.806c-.27 0-.432.144-.558.414l-1.638 3.33c-.126.252.018.414.288.414h1.368c.27 0 .396-.144.54-.414l1.854-3.33c.144-.27-.018-.414-.27-.414zm7.902 1.188c-.27 0-.396.126-.396.396v12.708c0 .27.126.396.396.396h1.764c.27 0 .396-.126.396-.396v-12.708c0-.27-.126-.396-.396-.396zm12.06 14.076c-1.044.378-1.296.954-1.296 2.124 0 1.674.522 2.196 2.322 2.196h2.286c.234 0 .324-.108.324-.324v-1.278c0-.216-.09-.324-.324-.324h-1.512c-.756 0-.972-.18-.972-.828 0-.504.126-.702.9-1.08l2.394-1.188c.45-.216.54-.612.54-1.314v-4.788c0-2.61-1.044-3.654-4.284-3.654h-7.776c-.216 0-.324.108-.324.324v1.512c0 .234.108.324.324.324h7.524c1.566 0 1.962.45 1.962 1.602v.342h-7.326c-2.124 0-2.772.846-2.772 2.358v.864c0 1.782.648 2.556 2.772 2.556h6.732zm1.566-2.556h-6.066c-.738 0-1.008-.288-1.008-.936v-.378c0-.576.27-.882 1.008-.882h6.588v1.584c0 .45-.144.612-.522.612zm7.632-7.902c-2.124 0-2.826.972-2.826 2.466v.792c0 1.584.792 2.43 2.808 2.43h6.048c.738 0 1.008.288 1.008.756v.486c0 .612-.27.864-1.008.864h-8.532c-.216 0-.324.108-.324.324v1.44c0 .216.108.324.324.324h9.216c2.124 0 2.826-.936 2.826-2.52v-1.008c0-1.548-.792-2.412-2.808-2.412h-6.066c-.738 0-.99-.288-.99-.774v-.27c0-.522.252-.81.99-.81h8.118c.216 0 .324-.108.324-.324v-1.44c0-.216-.108-.324-.324-.324zm11.88-3.618c-.27 0-.414.126-.414.396v12.708c0 .27.144.396.414.396h1.764c.27 0 .396-.126.396-.396v-3.636h3.474c.99 0 1.368.18 1.8.756l2.196 3.024c.144.198.252.252.558.252h2.016c.27 0 .36-.252.216-.45l-2.556-3.456c-.36-.486-.774-.864-1.278-1.152.396-.288.756-.666 1.116-1.152l2.322-3.186c.162-.234.09-.486-.18-.486h-2.034c-.27 0-.396.09-.54.306l-2.016 2.844c-.468.666-.756.756-1.782.756h-3.312v-7.128c0-.27-.126-.396-.396-.396zm14.076 3.618c-.216 0-.324.108-.324.324v1.512c0 .234.108.324.324.324h7.524c1.566 0 1.962.45 1.962 1.602v.342h-7.326c-2.124 0-2.772.846-2.772 2.358v.864c0 1.782.648 2.556 2.772 2.556h8.568c1.044 0 1.332-.27 1.332-1.44v-4.788c0-2.61-1.044-3.654-4.284-3.654zm8.964 7.902h-6.066c-.738 0-1.008-.288-1.008-.936v-.378c0-.576.27-.882 1.008-.882h6.588v1.584c0 .45-.144.612-.522.612zm11.52-10.62c-.27 0-.414.126-.414.396v11.808c0 .27.144.396.414.396h1.944c.27 0 .396-.126.396-.396v-4.932h2.736c1.116 0 1.53.18 2.016.81l3.312 4.284c.126.162.198.234.504.234h2.304c.36 0 .324-.342.234-.468l-3.69-4.68c-.45-.576-.882-.99-1.368-1.296.342-.288.666-.666 1.08-1.206l3.492-4.518c.126-.162.072-.432-.234-.432h-2.232c-.324 0-.396.072-.522.234l-3.096 4.14c-.522.684-.864.81-1.998.81h-2.538v-4.788c0-.27-.126-.396-.396-.396zm18.306 2.718c-3.24 0-4.284 1.044-4.284 3.654v2.592c0 2.61 1.044 3.636 4.284 3.636h5.094c3.24 0 4.284-1.026 4.284-3.636v-2.592c0-2.61-1.044-3.654-4.284-3.654zm-1.71 4.086c0-1.512.414-1.962 1.962-1.962h4.59c1.566 0 1.98.45 1.98 1.962v1.71c0 1.512-.414 1.98-1.98 1.98h-4.59c-1.548 0-1.962-.468-1.962-1.98zm15.822-4.086c-2.124 0-2.826.972-2.826 2.466v.792c0 1.584.792 2.43 2.808 2.43h6.048c.738 0 1.008.288 1.008.756v.486c0 .612-.27.864-1.008.864h-8.532c-.216 0-.324.108-.324.324v1.44c0 .216.108.324.324.324h9.216c2.124 0 2.826-.936 2.826-2.52v-1.008c0-1.548-.792-2.412-2.808-2.412h-6.066c-.738 0-.99-.288-.99-.774v-.27c0-.522.252-.81.99-.81h8.118c.216 0 .324-.108.324-.324v-1.44c0-.216-.108-.324-.324-.324zm15.714 0c-3.24 0-4.284 1.044-4.284 3.654v5.832c0 .27.144.396.414.396h1.764c.27 0 .396-.126.396-.396v-5.22c0-1.512.414-1.98 1.962-1.98h3.06v7.2c0 .27.126.396.396.396h1.764c.27 0 .414-.126.414-.396v-7.2h3.168c1.566 0 1.854.468 1.854 1.98v5.22c0 .27.126.396.396.396h1.764c.27 0 .396-.126.396-.396v-5.832c0-2.61-1.026-3.654-4.266-3.654zm16.11 0c-.27 0-.396.144-.396.414v9.072c0 .27.126.396.396.396h1.764c.27 0 .396-.126.396-.396v-9.072c0-.27-.126-.414-.396-.414zm0-3.654c-.27 0-.414.126-.414.396v1.71c0 .27.144.414.414.414h1.764c.27 0 .396-.144.396-.414v-1.71c0-.27-.126-.396-.396-.396zm8.298 3.654c-3.24 0-4.284 1.044-4.284 3.654v2.592c0 2.61 1.044 3.636 4.284 3.636h7.236c.216 0 .324-.108.324-.324v-1.512c0-.216-.108-.324-.324-.324h-6.984c-1.566 0-1.962-.468-1.962-1.98v-1.602c0-1.512.396-1.98 1.962-1.98h6.984c.216 0 .324-.09.324-.324v-1.512c0-.216-.108-.324-.324-.324zm9.342 0c-.216 0-.324.108-.324.324v1.476c0 .216.108.324.324.324h8.37c.108 0 .162.054.162.144v.126c0 .126-.036.198-.144.234l-7.992 3.51c-.648.288-.81.54-.81 1.296v1.332c0 .756.378 1.116 1.242 1.116h9.954c.216 0 .324-.108.324-.324v-1.476c0-.216-.108-.324-.324-.324h-8.37c-.108 0-.162-.036-.162-.126v-.126c0-.126.018-.198.144-.252l7.992-3.51c.648-.288.81-.522.81-1.278v-1.332c0-.774-.378-1.134-1.242-1.134zm17.352 0c-3.24 0-4.284 1.044-4.284 3.654v5.832c0 .27.144.396.414.396h1.764c.27 0 .396-.126.396-.396v-5.22c0-1.512.414-1.98 1.962-1.98h4.788c1.548 0 1.854.468 1.854 1.98v5.22c0 .27.126.396.396.396h1.764c.27 0 .396-.126.396-.396v-5.832c0-2.61-1.044-3.654-4.284-3.654zm11.898 0c-.216 0-.324.108-.324.324v1.512c0 .234.108.324.324.324h7.524c1.566 0 1.962.45 1.962 1.602v.342h-7.326c-2.124 0-2.772.846-2.772 2.358v.864c0 1.782.648 2.556 2.772 2.556h8.568c1.044 0 1.332-.27 1.332-1.44v-4.788c0-2.61-1.044-3.654-4.284-3.654zm8.964 7.902h-6.066c-.738 0-1.008-.288-1.008-.936v-.378c0-.576.27-.882 1.008-.882h6.588v1.584c0 .45-.144.612-.522.612zm11.52-10.62c-.27 0-.414.126-.414.396v11.808c0 .27.144.396.414.396h1.944c.27 0 .396-.126.396-.396v-4.932h2.736c1.116 0 1.53.18 2.016.81l3.312 4.284c.126.162.198.234.504.234h2.304c.36 0 .324-.342.234-.468l-3.69-4.68c-.45-.576-.882-.99-1.368-1.296.342-.288.666-.666 1.08-1.206l3.492-4.518c.126-.162.072-.432-.234-.432h-2.232c-.324 0-.396.072-.522.234l-3.096 4.14c-.522.684-.864.81-1.998.81h-2.538v-4.788c0-.27-.126-.396-.396-.396zm18.306 2.718c-3.24 0-4.284 1.044-4.284 3.654v2.592c0 2.61 1.044 3.636 4.284 3.636h5.094c3.24 0 4.284-1.026 4.284-3.636v-2.592c0-2.61-1.044-3.654-4.284-3.654zm-1.71 4.086c0-1.512.414-1.962 1.962-1.962h4.59c1.566 0 1.98.45 1.98 1.962v1.71c0 1.512-.414 1.98-1.98 1.98h-4.59c-1.548 0-1.962-.468-1.962-1.98zm17.442-4.086c-3.24 0-4.284 1.044-4.284 3.654v5.832c0 .27.144.396.414.396h1.764c.27 0 .396-.126.396-.396v-5.22c0-1.512.414-1.98 1.962-1.98h4.788c1.548 0 1.854.468 1.854 1.98v5.22c0 .27.126.396.396.396h1.764c.27 0 .396-.126.396-.396v-5.832c0-2.61-1.044-3.654-4.284-3.654zm11.178 0c-.216 0-.324.108-.324.324v1.476c0 .216.108.324.324.324h1.728v7.362c0 .27.126.396.396.396h1.764c.27 0 .396-.126.396-.396v-7.362h3.15c.234 0 .324-.108.324-.324v-1.476c0-.216-.09-.324-.324-.324h-3.15v-.378c0-.99.342-1.458 1.512-1.458h1.746c.234 0 .324-.108.324-.324v-1.476c0-.216-.09-.324-.324-.324h-2.178c-2.88 0-3.636 1.044-3.636 3.582v.378zm13.212 0c-3.24 0-4.284 1.044-4.284 3.654v2.592c0 2.61 1.044 3.636 4.284 3.636h7.758c.216 0 .324-.108.324-.324v-1.512c0-.216-.108-.324-.324-.324h-7.506c-1.566 0-1.98-.468-1.98-1.602v-.432h9.09c.702 0 1.026-.252 1.026-1.026v-1.71c0-2.178-.648-2.952-3.114-2.952zm-1.728 3.6c0-1.152.414-1.602 1.98-1.602h4.518c.828 0 1.098.288 1.098 1.026v.756c0 .234-.09.306-.306.306h-7.29zm16.272-3.6c-3.24 0-4.284 1.044-4.284 3.654v5.832c0 .27.144.396.414.396h1.764c.27 0 .396-.126.396-.396v-5.346c0-1.512.414-1.98 1.962-1.98h4.788c.216 0 .324-.09.324-.324v-1.512c0-.216-.108-.324-.324-.324zm10.692 0c-3.24 0-4.284 1.044-4.284 3.654v2.592c0 2.61 1.044 3.636 4.284 3.636h7.758c.216 0 .324-.108.324-.324v-1.512c0-.216-.108-.324-.324-.324h-7.506c-1.566 0-1.98-.468-1.98-1.602v-.432h9.09c.702 0 1.026-.252 1.026-1.026v-1.71c0-2.178-.648-2.952-3.114-2.952zm-1.728 3.6c0-1.152.414-1.602 1.98-1.602h4.518c.828 0 1.098.288 1.098 1.026v.756c0 .234-.09.306-.306.306h-7.29zm16.272-3.6c-3.24 0-4.284 1.044-4.284 3.654v5.832c0 .27.144.396.414.396h1.764c.27 0 .396-.126.396-.396v-5.22c0-1.512.414-1.98 1.962-1.98h4.788c1.548 0 1.854.468 1.854 1.98v5.22c0 .27.126.396.396.396h1.764c.27 0 .396-.126.396-.396v-5.832c0-2.61-1.044-3.654-4.284-3.654zm15.534 0c-3.24 0-4.284 1.044-4.284 3.654v2.592c0 2.61 1.044 3.636 4.284 3.636h7.236c.216 0 .324-.108.324-.324v-1.512c0-.216-.108-.324-.324-.324h-6.984c-1.566 0-1.962-.468-1.962-1.98v-1.602c0-1.512.396-1.98 1.962-1.98h6.984c.216 0 .324-.09.324-.324v-1.512c0-.216-.108-.324-.324-.324zm9.936 0c-.27 0-.414.144-.414.414v9.324c0 1.494-.342 1.962-1.782 1.962h-1.17c-.234 0-.324.108-.324.324v1.512c0 .216.09.324.324.324h1.422c3.132 0 4.104-1.026 4.104-3.618v-9.828c0-.27-.126-.414-.396-.414zm0-3.654c-.27 0-.414.126-.414.396v1.71c0 .27.144.414.414.414h1.764c.27 0 .396-.144.396-.414v-1.71c0-.27-.126-.396-.396-.396zm4.626 3.654c-.216 0-.324.108-.324.324v1.512c0 .234.108.324.324.324h7.524c1.566 0 1.962.45 1.962 1.602v.342h-7.326c-2.124 0-2.772.846-2.772 2.358v.864c0 1.782.648 2.556 2.772 2.556h8.568c1.044 0 1.332-.27 1.332-1.44v-4.788c0-2.61-1.044-3.654-4.284-3.654zm8.964 7.902h-6.066c-.738 0-1.008-.288-1.008-.936v-.378c0-.576.27-.882 1.008-.882h6.588v1.584c0 .45-.144.612-.522.612zm12.726-10.62c-1.098 0-1.62.414-1.62 1.872v10.332c0 .27.144.396.414.396h1.89c.27 0 .396-.126.396-.396v-9.396c0-.126.036-.18.144-.18h.162c.108 0 .162.036.234.126l6.714 8.784c.72.954.99 1.062 2.088 1.062h1.548c1.098 0 1.62-.414 1.62-1.872v-10.332c0-.27-.126-.396-.396-.396h-1.89c-.27 0-.396.126-.396.396v9.396c0 .126-.054.18-.144.18h-.162c-.108 0-.18-.036-.234-.126l-6.696-8.784c-.684-.918-.936-1.062-2.088-1.062zm16.146 2.718c-.216 0-.324.108-.324.324v1.512c0 .234.108.324.324.324h7.524c1.566 0 1.962.45 1.962 1.602v.342h-7.326c-2.124 0-2.772.846-2.772 2.358v.864c0 1.782.648 2.556 2.772 2.556h8.568c1.044 0 1.332-.27 1.332-1.44v-4.788c0-2.61-1.044-3.654-4.284-3.654zm8.964 7.902h-6.066c-.738 0-1.008-.288-1.008-.936v-.378c0-.576.27-.882 1.008-.882h6.588v1.584c0 .45-.144.612-.522.612zm5.382-7.902c-.27 0-.414.144-.414.414v5.832c0 2.61 1.044 3.636 4.284 3.636h5.022c3.24 0 4.284-1.026 4.284-3.636v-5.832c0-.27-.126-.414-.396-.414h-1.764c-.27 0-.396.144-.396.414v5.202c0 1.512-.414 1.98-1.98 1.98h-4.626c-1.566 0-1.854-.468-1.854-1.98v-5.202c0-.27-.126-.414-.396-.414zm15.804-3.618c-.27 0-.414.126-.414.396v12.708c0 .27.144.396.414.396h1.764c.27 0 .396-.126.396-.396v-3.636h3.474c.99 0 1.368.18 1.8.756l2.196 3.024c.144.198.252.252.558.252h2.016c.27 0 .36-.252.216-.45l-2.556-3.456c-.36-.486-.774-.864-1.278-1.152.396-.288.756-.666 1.116-1.152l2.322-3.186c.162-.234.09-.486-.18-.486h-2.034c-.27 0-.396.09-.54.306l-2.016 2.844c-.468.666-.756.756-1.782.756h-3.312v-7.128c0-.27-.126-.396-.396-.396zm17.658 3.618c-3.24 0-4.284 1.044-4.284 3.654v2.592c0 2.61 1.044 3.636 4.284 3.636h5.094c3.24 0 4.284-1.026 4.284-3.636v-2.592c0-2.61-1.044-3.654-4.284-3.654zm-1.71 4.086c0-1.512.414-1.962 1.962-1.962h4.59c1.566 0 1.98.45 1.98 1.962v1.71c0 1.512-.414 1.98-1.98 1.98h-4.59c-1.548 0-1.962-.468-1.962-1.98zm12.384-4.086c-.324 0-.378.18-.306.432l2.7 8.334c.288.9.63 1.116 1.386 1.116h2.268c.63 0 .9-.27 1.206-1.116l2.358-6.57c.018-.072.072-.108.162-.108h.108c.09 0 .144.036.162.108l2.376 6.57c.306.846.576 1.116 1.206 1.116h2.268c.756 0 1.098-.216 1.386-1.116l2.736-8.334c.072-.252 0-.432-.306-.432h-2.034c-.252 0-.378.108-.414.288l-2.34 7.398c-.036.09-.09.126-.18.126h-.072c-.108 0-.162-.036-.18-.126l-2.412-6.822c-.234-.648-.504-.864-1.152-.864h-2.142c-.648 0-.918.216-1.152.864l-2.43 6.822c-.018.09-.072.126-.18.126h-.072c-.09 0-.144-.036-.18-.126l-2.322-7.398c-.054-.18-.18-.288-.414-.288zm21.51 0c-.216 0-.324.108-.324.324v1.512c0 .234.108.324.324.324h7.524c1.566 0 1.962.45 1.962 1.602v.342h-7.326c-2.124 0-2.772.846-2.772 2.358v.864c0 1.782.648 2.556 2.772 2.556h8.568c1.044 0 1.332-.27 1.332-1.44v-4.788c0-2.61-1.044-3.654-4.284-3.654zm8.964 7.902h-6.066c-.738 0-1.008-.288-1.008-.936v-.378c0-.576.27-.882 1.008-.882h6.588v1.584c0 .45-.144.612-.522.612z"/></g><path d="M125.394 282.69h561.212" fill="none" stroke-width="2.5" class="e"/><g transform="translate(336.487 87.449)"><circle id="D" cx="-160.568" cy="97.813" r=".478" fill-opacity="1" stroke="none" paint-order="stroke markers fill" class="c"/><use href="#D" transform="matrix(.568864 0 0 .568864 -20.057653 -69.337567)"/><use href="#D" transform="matrix(1.046135 0 0 1.046135 37.75276 -132.42131)"/><use href="#D" transform="matrix(1.306992 0 0 1.306992 26.488248 -123.05054)"/><use href="#D" transform="matrix(.846606 0 0 .846606 3.003161 20.633637)"/><use href="#D" transform="matrix(1.194641 0 0 1.194641 135.23902 -166.86901)"/><use href="#D" transform="matrix(.947703 0 0 .947703 32.571464 -71.228953)"/><use href="#D" transform="matrix(1.466023 0 0 1.466023 232.04627 -129.71859)"/><use href="#D" transform="matrix(1.304057 0 0 1.304057 232.88761 -45.950463)"/><use href="#D" transform="matrix(.574562 0 0 .574562 -71.057629 -132.10418)"/><use href="#D" transform="matrix(.768727 0 0 .768727 114.47147 -45.381865)"/><use href="#D" transform="matrix(1.284839 0 0 1.284839 286.64067 -144.19966)"/><use href="#D" transform="matrix(.688051 0 0 .688051 233.62753 -149.21689)"/><use href="#D" transform="matrix(.879376 0 0 .879376 125.95245 -87.215837)"/><use href="#D" transform="matrix(.874837 0 0 .874837 187.43603 -40.33759)"/><use href="#D" transform="matrix(1.009085 0 0 1.009085 208.83183 -144.31706)"/><use href="#D" transform="matrix(.832628 0 0 .832628 275.0953 -57.035432)"/><use href="#D" transform="matrix(.917677 0 0 .917677 335.87419 -118.84836)"/><use href="#D" transform="matrix(1.128144 0 0 1.128144 211.72351 -109.84412)"/><use href="#D" transform="matrix(1.464262 0 0 1.464262 457.9501 -203.06689)"/><use href="#D" transform="matrix(1.349208 0 0 1.349208 546.61355 -72.996821)"/><use href="#D" transform="matrix(.55426 0 0 .55426 299.59291 35.399353)"/><use href="#D" transform="matrix(.573205 0 0 .573205 294.62361 -19.395006)"/><use href="#D" transform="matrix(1.252488 0 0 1.252488 466.81837 -179.10601)"/><use href="#D" transform="matrix(.886988 0 0 .886988 452.87143 -108.89049)"/><use href="#D" transform="matrix(.724625 0 0 .724625 314.27279 -58.479467)"/><use href="#D" transform="matrix(.577547 0 0 .577547 345.87494 -114.01799)"/><use href="#D" transform="matrix(.930589 0 0 .930589 422.13619 -114.29277)"/><use href="#D" transform="matrix(1.196736 0 0 1.196736 596.71363 -93.491408)"/><use href="#D" transform="matrix(.974653 0 0 .974653 537.18838 -34.448914)"/><use href="#D" transform="matrix(.874846 0 0 .874846 508.11567 -81.496462)"/><use href="#D" transform="matrix(.506977 0 0 .506977 471.44702 -92.946895)"/><use href="#D" transform="matrix(1.154287 0 0 1.154287 603.80748 -154.52929)"/><use href="#D" transform="matrix(.801286 0 0 .801286 339.79572 -138.7833)"/><use href="#D" transform="matrix(1.275744 0 0 1.275744 440.51168 -130.42742)"/><use href="#D" transform="matrix(.610927 0 0 .610927 314.48276 -76.973101)"/><use href="#D" transform="matrix(1.048158 0 0 1.048158 380.69334 -160.54338)"/><use href="#D" transform="matrix(.885799 0 0 .885799 218.99186 -83.080398)"/><use href="#D" transform="matrix(1.118998 0 0 1.118998 392.41814 -52.619018)"/><use href="#D" transform="matrix(1.429555 0 0 1.429555 332.15254 -189.45649)"/><use href="#D" transform="matrix(.764325 0 0 .764325 132.9396 2.064263)"/><use href="#D" transform="matrix(1.345499 0 0 1.345499 295.83459 -118.52908)"/><use href="#D" transform="matrix(.867022 0 0 .867022 126.68758 11.033157)"/><use href="#D" transform="matrix(.6628 0 0 .6628 30.428704 -99.808743)"/><use href="#D" transform="matrix(.824248 0 0 .824248 11.527908 -48.864373)"/><use href="#D" transform="matrix(1.23236 0 0 1.23236 106.60889 -17.883656)"/><use href="#D" transform="matrix(1.346427 0 0 1.346427 147.86804 -134.82988)"/><use href="#D" transform="matrix(.981417 0 0 .981417 32.279646 -35.595855)"/><use href="#D" transform="matrix(1.079511 0 0 1.079511 104.81271 -188.77178)"/><use href="#D" transform="matrix(.870072 0 0 .870072 -52.689286 -161.65473)"/><use href="#D" transform="matrix(.620071 0 0 .620071 -31.949542 .596036)"/><use href="#D" transform="matrix(.615629 0 0 .615629 -140.79308 -1.046041)"/><use href="#D" transform="matrix(1.089179 0 0 1.089179 -42.834871 -123.0311)"/><use href="#D" transform="matrix(.861552 0 0 .861552 -177.48984 -131.34043)"/><use href="#D" transform="matrix(.688537 0 0 .688537 -156.81442 -10.862872)"/><use href="#D" transform="matrix(1.473063 0 0 1.473063 28.394813 -154.18556)"/><use href="#D" transform="matrix(.547039 0 0 .547039 -239.91025 -65.123838)"/><use href="#D" transform="matrix(.5873 0 0 .5873 -226.36048 -53.904159)"/><use href="#D" transform="matrix(1.077003 0 0 1.077003 -57.995701 -186.64211)"/><use href="#D" transform="matrix(.872016 0 0 .872016 -171.398 -74.493962)"/><use href="#D" transform="matrix(1.331359 0 0 1.331359 -112.1213 -45.643876)"/><use href="#D" transform="matrix(.822633 0 0 .822633 -172.50627 29.621125)"/><use href="#D" transform="matrix(1.003514 0 0 1.003514 -114.69281 -106.51691)"/><use href="#D" transform="matrix(.646055 0 0 .646055 -225.09259 -66.477841)"/><use href="#D" transform="matrix(.837645 0 0 .837645 -89.356865 36.425501)"/><use href="#D" transform="matrix(.86233 0 0 .86233 -88.8195 97.03945)"/><use href="#D" transform="matrix(.534867 0 0 .534867 -161.43283 162.71949)"/><use href="#D" transform="matrix(1.210895 0 0 1.210895 -137.98422 148.58532)"/><use href="#D" transform="matrix(.783754 0 0 .783754 -38.940183 61.369804)"/><use href="#D" transform="matrix(.768048 0 0 .768048 -75.705646 169.73505)"/><use href="#D" transform="matrix(1.091596 0 0 1.091596 80.005716 28.157907)"/><use href="#D" transform="matrix(.665467 0 0 .665467 -21.64911 176.19343)"/><use href="#D" transform="matrix(.86507 0 0 .86507 113.52313 90.428277)"/><use href="#D" transform="matrix(1.216179 0 0 1.216179 191.38712 103.90055)"/><use href="#D" transform="matrix(1.226513 0 0 1.226513 57.474155 124.61062)"/><use href="#D" transform="matrix(.582256 0 0 .582256 -16.462138 209.44069)"/><use href="#D" transform="matrix(1.186209 0 0 1.186209 182.83031 -31.022916)"/><use href="#D" transform="matrix(1.162402 0 0 1.162402 250.7929 32.634195)"/><use href="#D" transform="matrix(1.250033 0 0 1.250033 212.40147 -77.136811)"/><use href="#D" transform="matrix(.53228 0 0 .53228 63.51558 98.140603)"/><use href="#D" transform="matrix(1.342772 0 0 1.342772 238.16637 -40.157847)"/><use href="#D" transform="matrix(.588652 0 0 .588652 71.734878 -8.005411)"/><use href="#D" transform="matrix(1.153562 0 0 1.153562 43.379959 149.80752)"/><use href="#D" transform="matrix(1.441803 0 0 1.441803 98.618004 82.295592)"/><use href="#D" transform="matrix(1.495882 0 0 1.495882 95.941263 96.709102)"/><use href="#D" transform="matrix(.615059 0 0 .615059 -87.613152 17.818631)"/><use href="#D" transform="matrix(1.179655 0 0 1.179655 -12.555071 55.885116)"/><use href="#D" transform="matrix(1.140728 0 0 1.140728 -53.567818 146.90838)"/><use href="#D" transform="matrix(1.007549 0 0 1.007549 -55.64749 91.527469)"/><use href="#D" transform="matrix(.984781 0 0 .984781 -149.59914 -8.953138)"/><use href="#D" transform="matrix(1.460453 0 0 1.460453 -72.802617 95.034967)"/><use href="#D" transform="matrix(1.348741 0 0 1.348741 -49.415953 15.422037)"/><use href="#D" transform="matrix(.712632 0 0 .712632 -122.89596 81.832614)"/><use href="#D" transform="matrix(.718233 0 0 .718233 -122.64328 93.404436)"/><use href="#D" transform="matrix(.928687 0 0 .928687 -110.46306 -30.292241)"/><use href="#D" transform="matrix(1.495941 0 0 1.495941 24.657755 85.395406)"/><use href="#D" transform="matrix(1.254884 0 0 1.254884 -5.544665 147.50016)"/><use href="#D" transform="matrix(.95379 0 0 .95379 26.154581 20.800802)"/><use href="#D" transform="matrix(.706177 0 0 .706177 12.895695 166.16099)"/><use href="#D" transform="matrix(.941374 0 0 .941374 176.07797 20.875253)"/><use href="#D" transform="matrix(.916511 0 0 .916511 53.189034 -4.608388)"/><use href="#D" transform="matrix(1.029416 0 0 1.029416 138.32801 109.32659)"/><use href="#D" transform="matrix(.750769 0 0 .750769 246.95337 39.935193)"/><use href="#D" transform="matrix(.900598 0 0 .900598 146.57075 170.69958)"/><use href="#D" transform="matrix(.894567 0 0 .894567 117.38997 68.511892)"/><use href="#D" transform="matrix(.81766 0 0 .81766 91.529088 96.574165)"/><use href="#D" transform="matrix(.858899 0 0 .858899 347.92755 87.015634)"/><use href="#D" transform="matrix(.852581 0 0 .852581 215.90801 114.10494)"/><use href="#D" transform="matrix(.672449 0 0 .672449 229.62514 183.4909)"/><use href="#D" transform="matrix(1.281027 0 0 1.281027 277.74355 40.18534)"/><use href="#D" transform="matrix(.509161 0 0 .509161 154.13139 49.846031)"/><use href="#D" transform="matrix(1.240226 0 0 1.240226 267.28125 113.81324)"/><use href="#D" transform="matrix(.835195 0 0 .835195 253.7105 150.56135)"/><use href="#D" transform="matrix(1.445146 0 0 1.445146 426.99826 -90.421862)"/><use href="#D" transform="matrix(1.412645 0 0 1.412645 441.66084 29.745076)"/><use href="#D" transform="matrix(1.439653 0 0 1.439653 430.92278 9.358374)"/><use href="#D" transform="matrix(.831486 0 0 .831486 339.38458 92.474623)"/><use href="#D" transform="matrix(1.378657 0 0 1.378657 491.86706 36.7099)"/><use href="#D" transform="matrix(1.008498 0 0 1.008498 558.96372 -4.70069)"/><use href="#D" transform="matrix(.593784 0 0 .593784 399.09277 78.350023)"/><use href="#D" transform="matrix(.653109 0 0 .653109 565.85845 137.79978)"/><use href="#D" transform="matrix(1.483868 0 0 1.483868 641.31091 29.053369)"/><use href="#D" transform="matrix(1.47927 0 0 1.47927 636.92365 15.968594)"/><use href="#D" transform="matrix(.951824 0 0 .951824 595.52977 46.271412)"/><use href="#D" transform="matrix(1.147077 0 0 1.147077 634.99418 -122.1716)"/><use href="#D" transform="matrix(.796592 0 0 .796592 542.99485 125.30228)"/><use href="#D" transform="matrix(.808958 0 0 .808958 479.48368 42.526834)"/><use href="#D" transform="matrix(1.123163 0 0 1.123163 648.28264 74.920416)"/><use href="#D" transform="matrix(1.446495 0 0 1.446495 563.22117 32.59957)"/><use href="#D" transform="matrix(.533498 0 0 .533498 400.13925 179.41162)"/><use href="#D" transform="matrix(1.424583 0 0 1.424583 552.8745 50.957605)"/><use href="#D" transform="matrix(1.047554 0 0 1.047554 559.3454 63.837337)"/><use href="#D" transform="matrix(1.222942 0 0 1.222942 638.04227 64.80183)"/><use href="#D" transform="matrix(.784751 0 0 .784751 516.92893 52.142594)"/><use href="#D" transform="matrix(.632262 0 0 .632262 477.75534 123.89035)"/><use href="#D" transform="matrix(1.09267 0 0 1.09267 587.38894 61.69266)"/><use href="#D" transform="matrix(1.090737 0 0 1.090737 556.96582 -84.041858)"/><use href="#D" transform="matrix(.960513 0 0 .960513 604.72563 -48.619081)"/><use href="#D" transform="matrix(1.226016 0 0 1.226016 542.3937 -132.03327)"/><use href="#D" transform="matrix(.718346 0 0 .718346 446.62796 -81.427491)"/><use href="#D" transform="matrix(.690829 0 0 .690829 325.03658 -97.625296)"/><use href="#D" transform="matrix(1.281024 0 0 1.281024 514.02601 -168.32368)"/><use href="#D" transform="matrix(1.233817 0 0 1.233817 408.44562 -167.23159)"/><use href="#D" transform="matrix(.965536 0 0 .965536 346.27494 -40.120949)"/><use href="#D" transform="matrix(.967946 0 0 .967946 253.15143 -138.21825)"/><use href="#D" transform="matrix(.979978 0 0 .979978 217.391 -86.274174)"/><use href="#D" transform="matrix(1.344142 0 0 1.344142 310.27273 -99.296632)"/><use href="#D" transform="matrix(.590799 0 0 .590799 -24.21116 -43.296802)"/><use href="#D" transform="matrix(1.269994 0 0 1.269994 142.71452 -120.23884)"/><use href="#D" transform="matrix(.597594 0 0 .597594 -121.55169 -78.067611)"/><use href="#D" transform="matrix(.804725 0 0 .804725 -58.412884 -117.49171)"/><use href="#D" transform="matrix(1.189561 0 0 1.189561 -122.94379 -118.97713)"/><use href="#D" transform="matrix(.912995 0 0 .912995 -96.27097 -105.68307)"/><use href="#D" transform="matrix(1.156327 0 0 1.156327 -88.158937 -68.558768)"/><use href="#D" transform="matrix(1.392775 0 0 1.392775 -9.517011 111.59359)"/><use href="#D" transform="matrix(1.277974 0 0 1.277974 -58.320164 -.974222)"/><use href="#D" transform="matrix(.954717 0 0 .954717 -133.52819 57.417361)"/><use href="#D" transform="matrix(.559583 0 0 .559583 -217.59878 123.155)"/><use href="#D" transform="matrix(.969854 0 0 .969854 -.577175 -8.512936)"/><use href="#D" transform="matrix(1.011839 0 0 1.011839 -11.888287 134.86082)"/><use href="#D" transform="matrix(.947853 0 0 .947853 224.82195 102.58019)"/><use href="#D" transform="matrix(.755102 0 0 .755102 50.411089 80.063364)"/><use href="#D" transform="matrix(.657921 0 0 .657921 177.23235 31.433483)"/><use href="#D" transform="matrix(.796166 0 0 .796166 64.551233 59.3525)"/><use href="#D" transform="matrix(.874934 0 0 .874934 287.75232 54.269194)"/><use href="#D" transform="matrix(1.10996 0 0 1.10996 381.35093 -46.078447)"/><use href="#D" transform="matrix(.734489 0 0 .734489 357.69599 133.9301)"/><use href="#D" transform="matrix(1.393216 0 0 1.393216 365.42237 -28.910463)"/><use href="#D" transform="matrix(1.10397 0 0 1.10397 456.89787 86.139726)"/><use href="#D" transform="matrix(.527342 0 0 .527342 286.11061 61.99351)"/><use href="#D" transform="matrix(.612396 0 0 .612396 422.4134 117.70038)"/><use href="#D" transform="matrix(1.1731 0 0 1.1731 489.21219 -59.207945)"/><use href="#D" transform="matrix(.881408 0 0 .881408 479.04737 76.350565)"/><use href="#D" transform="matrix(1.355877 0 0 1.355877 499.57215 131.13979)"/><use href="#D" transform="matrix(1.382837 0 0 1.382837 472.14386 19.508018)"/><use href="#D" transform="matrix(1.434526 0 0 1.434526 519.49293 16.849825)"/><use href="#D" transform="matrix(.614769 0 0 .614769 348.64787 138.00572)"/><use href="#D" transform="matrix(.895487 0 0 .895487 470.01826 133.71248)"/><use href="#D" transform="matrix(1.385572 0 0 1.385572 542.52136 -89.978752)"/><use href="#D" transform="matrix(1.169178 0 0 1.169178 129.28325 103.91271)"/><use href="#D" transform="matrix(.955917 0 0 .955917 112.70935 -48.721848)"/><use href="#D" transform="matrix(.860375 0 0 .860375 32.800521 36.065744)"/><use href="#D" transform="matrix(1.391 0 0 1.391 149.24075 25.243706)"/><use href="#D" transform="matrix(.656897 0 0 .656897 87.158951 1.437538)"/><use href="#D" transform="matrix(.868797 0 0 .868797 129.91705 132.7547)"/><use href="#D" transform="matrix(1.122873 0 0 1.122873 275.41813 -86.38581)"/><use href="#D" transform="matrix(.928055 0 0 .928055 182.99932 -69.879495)"/><use href="#D" transform="matrix(1.006472 0 0 1.006472 329.38886 -35.373838)"/><use href="#D" transform="matrix(1.047545 0 0 1.047545 253.86076 -81.298003)"/><use href="#D" transform="matrix(.915607 0 0 .915607 450.87395 -25.532137)"/><use href="#D" transform="matrix(1.327636 0 0 1.327636 428.84663 60.00899)"/><use href="#D" transform="matrix(.969589 0 0 .969589 414.09919 -24.465286)"/><use href="#D" transform="matrix(.840756 0 0 .840756 579.56096 156.69205)"/><use href="#D" transform="matrix(1.138241 0 0 1.138241 503.29096 -.785118)"/><use href="#D" transform="matrix(.921965 0 0 .921965 574.35315 137.08526)"/><use href="#D" transform="matrix(1.324636 0 0 1.324636 550.20838 26.266904)"/><use href="#D" transform="matrix(.89579 0 0 .89579 560.93291 72.737095)"/><use href="#D" transform="matrix(.534648 0 0 .534648 503.57596 7.700383)"/><use href="#D" transform="matrix(1.213749 0 0 1.213749 611.65296 108.62871)"/><use href="#D" transform="matrix(1.46162 0 0 1.46162 649.96573 17.388928)"/><use href="#D" transform="matrix(.688597 0 0 .688597 533.84905 53.6595)"/><use href="#D" transform="matrix(.508351 0 0 .508351 532.35565 74.248474)"/><use href="#D" transform="matrix(1.329738 0 0 1.329738 660.00268 -168.07431)"/><use href="#D" transform="matrix(1.033053 0 0 1.033053 563.27762 -95.81463)"/><use href="#D" transform="matrix(1.126659 0 0 1.126659 604.13215 -178.5031)"/><use href="#D" transform="matrix(.68883 0 0 .68883 376.03194 -93.123159)"/><use href="#D" transform="matrix(1.238155 0 0 1.238155 290.31729 -188.78266)"/><use href="#D" transform="matrix(.723776 0 0 .723776 246.07226 2.23993)"/><use href="#D" transform="matrix(1.197239 0 0 1.197239 130.62983 -177.69978)"/><use href="#D" transform="matrix(1.32462 0 0 1.32462 -12.983742 -144.21686)"/><use href="#D" transform="matrix(.960317 0 0 .960317 -25.158626 -141.67071)"/><use href="#D" transform="matrix(.870971 0 0 .870971 -180.98524 -27.514926)"/><use href="#D" transform="matrix(1.041166 0 0 1.041166 -84.953661 -32.96499)"/><use href="#D" transform="matrix(1.085191 0 0 1.085191 -32.916589 -104.85033)"/><use href="#D" transform="matrix(1.361819 0 0 1.361819 -30.997754 -158.19715)"/><use href="#D" transform="matrix(1.17424 0 0 1.17424 -69.323795 -159.90332)"/><use href="#D" transform="matrix(.950716 0 0 .950716 -127.87046 -34.055746)"/><use href="#D" transform="matrix(1.143834 0 0 1.143834 -137.22461 67.903915)"/><use href="#D" transform="matrix(.691381 0 0 .691381 -119.56695 -116.14996)"/><use href="#D" transform="matrix(.859406 0 0 .859406 24.246981 -21.453961)"/><use href="#D" transform="matrix(.987383 0 0 .987383 120.74798 16.83169)"/><use href="#D" transform="matrix(1.25568 0 0 1.25568 247.3105 -44.635233)"/><use href="#D" transform="matrix(1.301071 0 0 1.301071 184.3307 -93.856647)"/><use href="#D" transform="matrix(1.085732 0 0 1.085732 326.83938 -59.934356)"/><use href="#D" transform="matrix(1.305444 0 0 1.305444 410.38733 -89.796345)"/><use href="#D" transform="matrix(1.261969 0 0 1.261969 394.28734 -90.114733)"/><use href="#D" transform="matrix(1.480703 0 0 1.480703 454.87122 -48.877082)"/><use href="#D" transform="matrix(.803717 0 0 .803717 323.10912 58.030141)"/><use href="#D" transform="matrix(.697086 0 0 .697086 368.25313 13.342287)"/><use href="#D" transform="matrix(.693472 0 0 .693472 431.32981 27.157357)"/><use href="#D" transform="matrix(.840286 0 0 .840286 315.42991 -61.391708)"/><use href="#D" transform="matrix(.829374 0 0 .829374 506.86428 -9.550826)"/><use href="#D" transform="matrix(.585729 0 0 .585729 -162.7688 129.749)"/><use href="#D" transform="matrix(1.078467 0 0 1.078467 -92.018985 141.13733)"/><use href="#D" transform="matrix(1.498322 0 0 1.498322 14.15748 84.336374)"/><use href="#D" transform="matrix(.686623 0 0 .686623 -98.061199 176.80941)"/><use href="#D" transform="matrix(1.286612 0 0 1.286612 -34.516009 20.733327)"/><use href="#D" transform="matrix(.928106 0 0 .928106 -44.118501 49.447743)"/><use href="#D" transform="matrix(1.390019 0 0 1.390019 -36.61206 86.068355)"/><use href="#D" transform="matrix(1.096404 0 0 1.096404 -94.96724 66.566573)"/><use href="#D" transform="matrix(1.094511 0 0 1.094511 -3.518624 14.585849)"/><use href="#D" transform="matrix(.607954 0 0 .607954 -125.88893 70.206108)"/><use href="#D" transform="matrix(1.088195 0 0 1.088195 -54.526706 -71.447088)"/><use href="#D" transform="matrix(.626957 0 0 .626957 -129.18817 -42.127035)"/><use href="#D" transform="matrix(.545637 0 0 .545637 -113.68001 -48.074741)"/><use href="#D" transform="matrix(1.080932 0 0 1.080932 80.180782 -148.95099)"/><use href="#D" transform="matrix(.727901 0 0 .727901 -25.97981 -135.00719)"/><use href="#D" transform="matrix(1.063865 0 0 1.063865 119.95134 -175.43094)"/><use href="#D" transform="matrix(1.194476 0 0 1.194476 -85.185268 -164.7567)"/><use href="#D" transform="matrix(.882602 0 0 .882602 -158.89371 -135.24519)"/><use href="#D" transform="matrix(1.141463 0 0 1.141463 346.02887 -116.73572)"/><use href="#D" transform="matrix(.57836 0 0 .57836 217.7666 -49.887036)"/><use href="#D" transform="matrix(1.021204 0 0 1.021204 362.8201 -134.93323)"/><use href="#D" transform="matrix(1.073532 0 0 1.073532 360.10319 -135.9222)"/><use href="#D" transform="matrix(1.287207 0 0 1.287207 400.68872 -116.38106)"/><use href="#D" transform="matrix(.536295 0 0 .536295 258.90983 -92.25222)"/><use href="#D" transform="matrix(1.130548 0 0 1.130548 410.08072 -85.843043)"/><use href="#D" transform="matrix(1.289731 0 0 1.289731 398.96704 -207.84169)"/><use href="#D" transform="matrix(.731957 0 0 .731957 304.82447 -62.952403)"/><use href="#D" transform="matrix(1.004211 0 0 1.004211 358.4574 -113.06841)"/><use href="#D" transform="matrix(1.407656 0 0 1.407656 445.54283 -213.66004)"/><use href="#D" transform="matrix(.985829 0 0 .985829 395.83646 -155.53226)"/><use href="#D" transform="matrix(.776858 0 0 .776858 366.31328 -98.858241)"/><use href="#D" transform="matrix(.726788 0 0 .726788 515.06945 138.18109)"/><use href="#D" transform="matrix(.904177 0 0 .904177 472.80013 180.08343)"/><use href="#D" transform="matrix(1.098559 0 0 1.098559 588.89456 153.77231)"/><use href="#D" transform="matrix(1.123423 0 0 1.123423 537.25822 117.45801)"/><use href="#D" transform="matrix(.765742 0 0 .765742 518.10583 141.72947)"/><use href="#D" transform="matrix(1.458207 0 0 1.458207 664.92066 73.585616)"/><use href="#D" transform="matrix(1.496101 0 0 1.496101 633.49473 88.164831)"/><use href="#D" transform="matrix(1.381415 0 0 1.381415 599.97764 98.107833)"/><use href="#D" transform="matrix(1.050453 0 0 1.050453 573.89691 100.39217)"/><use href="#D" transform="matrix(1.41552 0 0 1.41552 666.79726 132.87129)"/><use href="#D" transform="matrix(.973082 0 0 .973082 535.88361 164.81526)"/><use href="#D" transform="matrix(1.04482 0 0 1.04482 610.80023 166.75268)"/><use href="#D" transform="matrix(1.426881 0 0 1.426881 671.90808 89.483651)"/><use href="#D" transform="matrix(.994912 0 0 .994912 542.17115 161.89412)"/><use href="#D" transform="matrix(.907249 0 0 .907249 288.08347 -28.406976)"/><use href="#D" transform="matrix(1.329938 0 0 1.329938 376.72802 -16.513694)"/><use href="#D" transform="matrix(.658557 0 0 .658557 199.53365 58.810792)"/><use href="#D" transform="matrix(1.448291 0 0 1.448291 317.25147 -6.543067)"/><use href="#D" transform="matrix(1.194302 0 0 1.194302 273.87232 -18.71004)"/><use href="#D" transform="matrix(1.445043 0 0 1.445043 359.60934 -25.549421)"/><use href="#D" transform="matrix(1.035089 0 0 1.035089 283.46434 -10.106936)"/><use href="#D" transform="matrix(.512073 0 0 .512073 213.8603 34.575648)"/><use href="#D" transform="matrix(1.185262 0 0 1.185262 331.93628 -49.056477)"/><use href="#D" transform="matrix(1.400748 0 0 1.400748 361.043 9.08116)"/><use href="#D" transform="matrix(1.164721 0 0 1.164721 242.81495 27.722268)"/><use href="#D" transform="matrix(.826908 0 0 .826908 262.48897 44.518667)"/><use href="#D" transform="matrix(1.339801 0 0 1.339801 362.50784 104.9124)"/><use href="#D" transform="matrix(.925496 0 0 .925496 378.62995 156.43487)"/><use href="#D" transform="matrix(1.295059 0 0 1.295059 290.83908 119.19437)"/><use href="#D" transform="matrix(.58662 0 0 .58662 257.04154 183.2185)"/><use href="#D" transform="matrix(.800018 0 0 .800018 299.6976 155.07302)"/><use href="#D" transform="matrix(.673361 0 0 .673361 188.17132 188.67375)"/><use href="#D" transform="matrix(.918218 0 0 .918218 161.69973 164.79757)"/><use href="#D" transform="matrix(.650262 0 0 .650262 77.530128 164.55266)"/><use href="#D" transform="matrix(1.149265 0 0 1.149265 242.535 150.50955)"/><use href="#D" transform="matrix(.55308 0 0 .55308 139.19415 163.04432)"/><use href="#D" transform="matrix(1.394307 0 0 1.394307 477.50789 -197.33482)"/><use href="#D" transform="matrix(.550715 0 0 .550715 439.02801 -106.83793)"/><use href="#D" transform="matrix(.624921 0 0 .624921 438.16754 -106.54481)"/><use href="#D" transform="matrix(.775697 0 0 .775697 445.6111 -98.002058)"/><use href="#D" transform="matrix(.739433 0 0 .739433 443.23899 -39.381326)"/><use href="#D" transform="matrix(.973896 0 0 .973896 399.48615 -98.879853)"/><use href="#D" transform="matrix(.904255 0 0 .904255 469.21523 -128.76373)"/><use href="#D" transform="matrix(.712602 0 0 .712602 456.40179 -41.388286)"/><use href="#D" transform="matrix(.680826 0 0 .680826 421.29856 -119.33005)"/><use href="#D" transform="matrix(1.090364 0 0 1.090364 478.52918 -131.4467)"/><use href="#D" transform="matrix(.524445 0 0 .524445 457.43482 -100.67262)"/><use href="#D" transform="matrix(.903377 0 0 .903377 470.897 -133.79245)"/><use href="#D" transform="matrix(.794594 0 0 .794594 453.01636 -159.67565)"/><use href="#D" transform="matrix(1.315607 0 0 1.315607 619.3157 -208.79716)"/><use href="#D" transform="matrix(1.07117 0 0 1.07117 512.34389 -116.5395)"/><use href="#D" transform="matrix(.822754 0 0 .822754 576.07656 -103.25599)"/><use href="#D" transform="matrix(.820213 0 0 .820213 560.85964 -134.92867)"/><use href="#D" transform="matrix(1.404549 0 0 1.404549 641.69822 -123.53768)"/><use href="#D" transform="matrix(1.409851 0 0 1.409851 623.53814 -205.36346)"/><use href="#D" transform="matrix(.884822 0 0 .884822 559.025 -103.34454)"/><use href="#D" transform="matrix(1.199744 0 0 1.199744 588.19078 -154.46978)"/><use href="#D" transform="matrix(.659089 0 0 .659089 574.25878 -69.103075)"/><use href="#D" transform="matrix(.67938 0 0 .67938 477.78307 -110.79239)"/><use href="#D" transform="matrix(.577412 0 0 .577412 525.93269 -63.66207)"/><use href="#D" transform="matrix(1.12925 0 0 1.12925 567.91436 -129.61594)"/><use href="#D" transform="matrix(1.470372 0 0 1.470372 557.93863 -158.71507)"/><use href="#D" transform="matrix(1.070795 0 0 1.070795 538.2311 -180.13838)"/><use href="#D" transform="matrix(.774754 0 0 .774754 205.47896 -138.42794)"/><use href="#D" transform="matrix(.935617 0 0 .935617 304.61915 -173.83797)"/><use href="#D" transform="matrix(.763385 0 0 .763385 256.13004 -122.78479)"/><use href="#D" transform="matrix(.952434 0 0 .952434 286.28603 -122.78616)"/><use href="#D" transform="matrix(1.48809 0 0 1.48809 291.29666 -201.16879)"/><use href="#D" transform="matrix(1.239279 0 0 1.239279 269.70386 -157.11945)"/><use href="#D" transform="matrix(1.488122 0 0 1.488122 307.42422 -212.506)"/><use href="#D" transform="matrix(.740305 0 0 .740305 133.6281 -119.3478)"/><use href="#D" transform="matrix(.526137 0 0 .526137 86.978077 -132.10446)"/><use href="#D" transform="matrix(.569077 0 0 .569077 167.8822 -97.56857)"/><use href="#D" transform="matrix(.73719 0 0 .73719 127.58971 -99.062728)"/><use href="#D" transform="matrix(.659944 0 0 .659944 127.15549 -112.2749)"/><use href="#D" transform="matrix(.550405 0 0 .550405 73.646862 -86.318323)"/><use href="#D" transform="matrix(1.413802 0 0 1.413802 182.7391 -215.14599)"/><use href="#D" transform="matrix(.967466 0 0 .967466 146.01275 -116.94452)"/><use href="#D" transform="matrix(1.013316 0 0 1.013316 117.36341 -138.15007)"/><use href="#D" transform="matrix(1.006222 0 0 1.006222 197.63396 -115.83669)"/><use href="#D" transform="matrix(.55604 0 0 .55604 517.35974 -8.087879)"/><use href="#D" transform="matrix(.745175 0 0 .745175 585.51604 7.164096)"/><use href="#D" transform="matrix(1.05321 0 0 1.05321 577.19759 -19.058956)"/><use href="#D" transform="matrix(.972662 0 0 .972662 590.51683 -33.856813)"/><use href="#D" transform="matrix(.577404 0 0 .577404 537.62946 -2.045973)"/><use href="#D" transform="matrix(.672376 0 0 .672376 543.90396 -22.211514)"/><use href="#D" transform="matrix(.643942 0 0 .643942 555.36686 -17.460503)"/><use href="#D" transform="matrix(.654863 0 0 .654863 183.34735 126.34585)"/><use href="#D" transform="matrix(.70898 0 0 .70898 194.62822 121.42087)"/><use href="#D" transform="matrix(.795777 0 0 .795777 106.53597 90.253854)"/><use href="#D" transform="matrix(1.247572 0 0 1.247572 210.63106 35.505981)"/><use href="#D" transform="matrix(.664923 0 0 .664923 120.25746 58.843444)"/><use href="#D" transform="matrix(.504907 0 0 .504907 85.316121 78.880635)"/><use href="#D" transform="matrix(.609736 0 0 .609736 86.063161 146.01797)"/><use href="#D" transform="matrix(.662328 0 0 .662328 149.29313 114.71483)"/><use href="#D" transform="matrix(.621381 0 0 .621381 58.576915 55.853199)"/><use href="#D" transform="matrix(.527534 0 0 .527534 118.15829 68.717262)"/><use href="#D" transform="matrix(1.33497 0 0 1.33497 226.2666 -56.189928)"/><use href="#D" transform="matrix(.634971 0 0 .634971 121.89279 106.84509)"/><use href="#D" transform="matrix(.876534 0 0 .876534 151.85791 89.026671)"/><use href="#D" transform="matrix(1.337345 0 0 1.337345 224.12022 15.761216)"/><use href="#D" transform="matrix(1.37099 0 0 1.37099 176.29401 -40.946208)"/><use href="#D" transform="matrix(1.166295 0 0 1.166295 194.17253 -25.862157)"/><use href="#D" transform="matrix(1.49768 0 0 1.49768 43.536445 22.647374)"/><use href="#D" transform="matrix(.78504 0 0 .78504 -54.374017 81.227143)"/><use href="#D" transform="matrix(1.318822 0 0 1.318822 69.5457 110.65981)"/><use href="#D" transform="matrix(1.265352 0 0 1.265352 15.104658 87.772907)"/><use href="#D" transform="matrix(1.223145 0 0 1.223145 96.198106 22.181192)"/><use href="#D" transform="matrix(1.116206 0 0 1.116206 -14.00087 14.801295)"/><use href="#D" transform="matrix(1.280263 0 0 1.280263 94.248497 -6.125523)"/><use href="#D" transform="matrix(1.418096 0 0 1.418096 52.197387 75.305248)"/><use href="#D" transform="matrix(1.436026 0 0 1.436026 47.44994 4.117423)"/><use href="#D" transform="matrix(1.013809 0 0 1.013809 16.435885 52.95263)"/><use href="#D" transform="matrix(1.397862 0 0 1.397862 24.71393 42.869924)"/><use href="#D" transform="matrix(1.007228 0 0 1.007228 26.862403 116.19381)"/><use href="#D" transform="matrix(1.044934 0 0 1.044934 5.454921 82.240046)"/><use href="#D" transform="matrix(1.080584 0 0 1.080584 -61.438835 -93.588879)"/><use href="#D" transform="matrix(1.263014 0 0 1.263014 -29.524478 -106.33871)"/><use href="#D" transform="matrix(.827667 0 0 .827667 -111.78202 10.845405)"/><use href="#D" transform="matrix(.514162 0 0 .514162 -111.92205 -17.931046)"/><use href="#D" transform="matrix(1.341253 0 0 1.341253 37.412181 -44.206165)"/><use href="#D" transform="matrix(1.047817 0 0 1.047817 -72.973 -38.430051)"/><use href="#D" transform="matrix(1.498455 0 0 1.498455 11.98045 -142.52413)"/><use href="#D" transform="matrix(.747513 0 0 .747513 -96.510019 -84.042033)"/><use href="#D" transform="matrix(1.153993 0 0 1.153993 14.513449 -77.280202)"/><use href="#D" transform="matrix(1.043905 0 0 1.043905 -39.545094 -35.732733)"/><use href="#D" transform="matrix(1.416179 0 0 1.416179 -19.688357 -108.45941)"/><use href="#D" transform="matrix(.748682 0 0 .748682 -26.244772 -58.975203)"/><use href="#D" transform="matrix(.515657 0 0 .515657 -50.61157 -26.052706)"/><use href="#D" transform="matrix(.742767 0 0 .742767 -25.688258 -89.78677)"/><use href="#D" transform="matrix(.647877 0 0 .647877 -21.469563 -42.140917)"/><use href="#D" transform="matrix(1.397376 0 0 1.397376 79.522615 -97.40775)"/><use href="#D" transform="matrix(1.085769 0 0 1.085769 69.896725 -50.238134)"/><use href="#D" transform="matrix(.739162 0 0 .739162 -29.741385 -118.68909)"/><use href="#D" transform="matrix(.61045 0 0 .61045 -204.1461 -113.90342)"/><use href="#D" transform="matrix(.967854 0 0 .967854 -157.40363 -50.427592)"/><use href="#D" transform="matrix(1.258635 0 0 1.258635 -92.498258 -127.94802)"/><use href="#D" transform="matrix(.852836 0 0 .852836 -139.52462 -111.39435)"/><use href="#D" transform="matrix(.993437 0 0 .993437 -154.37315 -167.04196)"/></g><g transform="matrix(.877838 0 0 .87791 280.831906 97.935249)"><path d="M323.43-30.973c-4.913.442-14.739 2.603-16.95 3.733-6.289 3.193-13.315 9.186-18.228 15.621-6.24 8.154-8.647 12.477-11.202 20.14-1.277 3.782-1.523 5.403-1.72 11.052-.295 7.565.442 12.968 2.899 22.105 2.307 6.246 3.764 7.18 6.485 10.561 4.225 4.126 5.65 5.256 9.384 7.024 2.457 1.179 6.289 2.653 8.598 3.242 2.997.786 4.127 1.277 4.029 1.817-.098.393-.295 1.425-.442 2.26-.246 1.523-.197 1.621 1.277 1.621 1.965 0 4.274 1.179 5.011 2.554.933 1.719.688 5.845-.442 8.252-1.769 3.684-4.422 8.007-6.878 11.003-1.376 1.719-3.243 5.305-4.274 8.252s-.933 7.417.295 11.74c.54 2.014 1.13 4.175 1.228 4.863l.491 2.309c.098.639.54 1.13.933 1.13 2.014 0-.197 2.653-3.488 4.224-3.144 1.474-4.569 3.242-3.636 4.372.786.982 2.211.933 3.832-.147l1.327-.835-1.13 1.425c-1.474 1.916-1.425 3.635.147 4.224 1.425.54 3.046.049 5.306-1.67 1.818-1.326 5.011-2.456 5.748-2.014.246.147.491.688.491 1.13 0 1.572 1.425 3.046 2.948 3.046 2.113 0 2.653-1.375 1.67-4.028-1.376-3.782-1.376-3.782-.295-3.488.54.098 1.621.884 2.358 1.67 1.474 1.523 3.636 1.916 4.569.737.688-.786.295-2.112-1.081-3.635l-.983-1.081h1.67c1.72 0 3.881-1.425 3.881-2.505 0-.295-.639-1.179-1.425-1.965-1.277-1.228-1.818-1.425-4.324-1.425-3.488 0-4.324-.54-5.306-3.389-1.474-4.323-.786-6.435 3.341-10.168 1.425-1.326 3.39-3.34 4.274-4.519l1.621-2.063 1.818 2.8c1.965 3.046 5.257 6.091 9.188 8.4 3.194 1.916 11.055 4.814 16.312 6.042 5.503 1.277 15.329 1.768 20.733.982 2.26-.344 4.52-.639 5.061-.688.786-.098.884.295.983 3.095.049 3.586.786 2.947-7.321 6.73l-4.913 2.26-3.046-1.032c-3.881-1.375-6.338-1.425-7.026-.098-1.277 2.407.983 4.47 5.601 5.109 1.081.147 2.26.589 2.653.982.59.589.54.786-.59 1.523-.688.491-2.358.982-3.636 1.13-3.734.393-5.159 2.407-3.046 4.519.786.786 1.376.884 3.537.639 1.425-.147 3.341-.589 4.274-.933 1.67-.688 1.67-.688-.835 1.965-1.572 1.67-2.555 3.144-2.555 3.831 0 1.719 1.327 3.34 2.751 3.34 1.327 0 2.113-.737 5.159-4.814 2.064-2.702 3.243-3.34 2.702-1.474-1.228 4.372-.688 7.368 1.425 8.351 1.032.442 1.376.393 2.211-.344 1.081-.982 2.309-4.077 2.653-6.631.098-.933.246-1.817.246-1.965.049-.147.491.688 1.032 1.768 1.081 2.161 3.587 3.881 5.159 3.586.54-.147 1.228-.982 1.621-2.063.688-1.719.639-1.965-.835-5.01-.884-1.768-1.425-3.488-1.228-3.782.197-.344 1.867-2.702 3.783-5.207 3.783-5.109 6.289-10.414 7.91-16.898.518-2.056.836-3.721 1.011-4.422.518-.283.927-.283 2.772-.932 3.537-1.179 3.636-1.179 4.373.589.983 2.358 6.387 6.533 9.728 7.516 3.292.982 4.176 1.425 4.373 2.112.246.737-.737 1.032-5.896 1.867-5.208.835-6.878 1.965-6.633 4.421.197 1.916 2.407 3.095 4.274 2.358 3.488-1.425 3.341-1.425 2.162-.049-1.376 1.474-1.425 2.849-.147 4.224 1.179 1.277 2.8 1.375 4.274.344.933-.688 1.081-.639 1.621.786.884 2.112 2.064 2.603 4.274 1.67 1.621-.688 1.867-.688 2.211 0 .786 1.326 2.309 1.867 3.832 1.228 1.916-.786 2.653-2.456 2.26-5.207l-.295-2.358 1.13 1.081c2.211 2.063 5.257.835 5.257-2.063 0-1.523-2.358-10.021-2.997-10.807-.246-.295-1.474-1.916-2.702-3.635l-2.26-3.046.59-2.407c.54-2.26.197-6.042-.688-8.4-.197-.442.491-1.719 1.72-3.193 3.144-3.782 4.471-5.895 8.254-12.919 4.864-9.137 7.812-18.47 8.254-26.231.737-12.575.049-14.442-8.696-23.971-2.309-2.505-6.682-7.024-9.777-10.021-6.682-6.533-8.401-9.186-8.401-13.115 0-5.06 5.011-13.165 8.745-14.147 1.376-.393 2.506-1.768 1.916-2.358-1.13-1.081-10.76 2.996-14.739 6.288-2.653 2.21-5.208 6.288-5.552 8.94-.54 3.979.933 9.628 4.373 17.045 3.783 8.056 4.766 11.298 5.355 18.077.884 9.923-.393 14.933-4.913 19.452-2.751 2.8-6.387 4.716-12.234 6.533-4.029 1.228-4.864 1.326-12.676 1.228-8.942-.049-17.589-.982-20.39-2.161l-1.72-.737 1.425-.688c1.327-.639 1.376-.786 1.13-3.193l-.246-2.554 3.341-2.26c5.601-3.831 11.104-10.021 14.592-16.505 4.422-8.203 5.257-11.691 4.913-20.386-.246-5.649-.54-7.81-1.818-12.182-1.822-7.415-8.629-19.4-14.002-24.708-4.029-4.077-4.962-4.716-10.072-7.221-7.271-3.537-15.182-6.091-21.372-6.975-5.257-.786-16.312-.835-23.73-.196z" stroke-width="2.848" class="c e"/><g transform="matrix(.491313 0 0 .491217 275.26957 -31.413283)"><path d="M98.025.896c-10 .9-30 5.3-34.5 7.6-12.8 6.5-27.1 18.7-37.1 31.8-12.7 16.6-17.6 25.4-22.8 41-2.6 7.7-3.1 11-3.5 22.5-.6 15.4.9 26.4 5.9 45 3.148 7.987 8.219 14.616 13.2 21.5 8.6 8.4 11.5 10.7 19.1 14.3 5 2.4 12.8 5.4 17.5 6.6 6.1 1.6 8.4 2.6 8.2 3.7-.2.8-.6 2.9-.9 4.6-.5 3.1-.4 3.3 2.6 3.3 4 0 8.7 2.4 10.2 5.2 1.9 3.5 1.4 11.9-.9 16.8-3.6 7.5-9 16.3-14 22.4-2.8 3.5-6.6 10.8-8.7 16.8s-1.9 15.1.6 23.9c1.1 4.1 2.3 8.5 2.5 9.9l1 4.7c.2 1.3 1.1 2.3 1.9 2.3 4.1 0-.4 5.4-7.1 8.6-6.4 3-9.3 6.6-7.4 8.9 1.6 2 4.5 1.9 7.8-.3l2.7-1.7-2.3 2.9c-3 3.9-2.9 7.4.3 8.6 2.9 1.1 6.2.1 10.8-3.4 3.7-2.7 10.2-5 11.7-4.1.5.3 1 1.4 1 2.3 0 3.2 2.9 6.2 6 6.2 4.3 0 5.4-2.8 3.4-8.2-2.8-7.7-2.8-7.7-.6-7.1 1.1.2 3.3 1.8 4.8 3.4 3 3.1 7.4 3.9 9.3 1.5 1.4-1.6.6-4.3-2.2-7.4l-2-2.2h3.4c3.5 0 7.9-2.9 7.9-5.1 0-.6-1.3-2.4-2.9-4-2.6-2.5-3.7-2.9-8.8-2.9-7.1 0-8.8-1.1-10.8-6.9-3-8.8-1.6-13.1 6.8-20.7 2.9-2.7 6.9-6.8 8.7-9.2l3.3-4.2 3.7 5.7c4 6.2 10.7 12.4 18.7 17.1 6.5 3.9 22.5 9.8 33.2 12.3 11.2 2.6 31.2 3.6 42.2 2 4.6-.7 9.2-1.3 10.3-1.4 1.6-.2 1.8.6 2 6.3.1 7.3 1.6 6-14.9 13.7l-10 4.6-6.2-2.1c-7.9-2.8-12.9-2.9-14.3-.2-2.6 4.9 2 9.1 11.4 10.4 2.2.3 4.6 1.2 5.4 2 1.2 1.2 1.1 1.6-1.2 3.1-1.4 1-4.8 2-7.4 2.3-7.6.8-10.5 4.9-6.2 9.2 1.6 1.6 2.8 1.8 7.2 1.3 2.9-.3 6.8-1.2 8.7-1.9 3.4-1.4 3.4-1.4-1.7 4-3.2 3.4-5.2 6.4-5.2 7.8 0 3.5 2.7 6.8 5.6 6.8 2.7 0 4.3-1.5 10.5-9.8 4.2-5.5 6.6-6.8 5.5-3-2.5 8.9-1.4 15 2.9 17 2.1.9 2.8.8 4.5-.7 2.2-2 4.7-8.3 5.4-13.5.2-1.9.5-3.7.5-4 .1-.3 1 1.4 2.1 3.6 2.2 4.4 7.3 7.9 10.5 7.3 1.1-.3 2.5-2 3.3-4.2 1.4-3.5 1.3-4-1.7-10.2-1.8-3.6-2.9-7.1-2.5-7.7.4-.7 3.8-5.5 7.7-10.6 7.7-10.4 12.8-21.2 16.1-34.4 1.055-4.186 1.701-7.574 2.058-9.002 1.054-.575 1.887-.577 5.642-1.898 7.2-2.4 7.4-2.4 8.9 1.2 2 4.8 13 13.3 19.8 15.3 6.7 2 8.5 2.9 8.9 4.3.5 1.5-1.5 2.1-12 3.8-10.6 1.7-14 4-13.5 9 .4 3.9 4.9 6.3 8.7 4.8 7.1-2.9 6.8-2.9 4.4-.1-2.8 3-2.9 5.8-.3 8.6 2.4 2.6 5.7 2.8 8.7.7 1.9-1.4 2.2-1.3 3.3 1.6 1.8 4.3 4.2 5.3 8.7 3.4 3.3-1.4 3.8-1.4 4.5 0 1.6 2.7 4.7 3.8 7.8 2.5 3.9-1.6 5.4-5 4.6-10.6l-.6-4.8 2.3 2.2c4.5 4.2 10.7 1.7 10.7-4.2 0-3.1-4.8-20.4-6.1-22-.5-.6-3-3.9-5.5-7.4l-4.6-6.2 1.2-4.9c1.1-4.6.4-12.3-1.4-17.1-.4-.9 1-3.5 3.5-6.5 6.4-7.7 9.1-12 16.8-26.3 9.9-18.6 15.9-37.6 16.8-53.4 1.5-25.6.1-29.4-17.7-48.8-4.7-5.1-13.6-14.3-19.9-20.4-13.6-13.3-17.1-18.7-17.1-26.7 0-10.3 10.2-26.8 17.8-28.8 2.8-.8 5.1-3.6 3.9-4.8-2.3-2.2-21.9 6.1-30 12.8-5.4 4.5-10.6 12.8-11.3 18.2-1.1 8.1 1.9 19.6 8.9 34.7 7.7 16.4 9.7 23 10.9 36.8 1.8 20.2-.8 30.4-10 39.6-5.6 5.7-13 9.6-24.9 13.3-8.2 2.5-9.9 2.7-25.8 2.5-18.2-.1-35.8-2-41.5-4.4l-3.5-1.5 2.9-1.4c2.7-1.3 2.8-1.6 2.3-6.5l-.5-5.2 6.8-4.6c11.4-7.8 22.6-20.4 29.7-33.6 9-16.7 10.7-23.8 10-41.5-.5-11.5-1.1-15.9-3.7-24.8-10.759-21.296-14.403-33.05-28.5-50.3-8.2-8.3-10.1-9.6-20.5-14.7-14.8-7.2-30.9-12.4-43.5-14.2-10.7-1.6-33.2-1.7-48.3-.4z" class="c"/><g class="d"><path d="M98.025.896c-10 .9-30 5.3-34.5 7.6-12.8 6.5-27.1 18.7-37.1 31.8-12.7 16.6-17.6 25.4-22.8 41-2.6 7.7-3.1 11-3.5 22.5-.6 15.4.9 26.4 5.9 45 0 0 2.663 7.337 4.66 10.689 2.362 3.966 8.54 10.811 8.54 10.811 8.6 8.4 11.5 10.7 19.1 14.3 5 2.4 12.8 5.4 17.5 6.6 6.1 1.6 8.4 2.6 8.2 3.7-.2.8-.6 2.9-.9 4.6-.5 3.1-.4 3.3 2.6 3.3 4 0 8.7 2.4 10.2 5.2 1.9 3.5 1.4 11.9-.9 16.8-3.6 7.5-9 16.3-14 22.4-2.8 3.5-6.6 10.8-8.7 16.8s-1.9 15.1.6 23.9c1.1 4.1 2.3 8.5 2.5 9.9l1 4.7c.2 1.3 1.1 2.3 1.9 2.3 4.1 0-.4 5.4-7.1 8.6-6.4 3-9.3 6.6-7.4 8.9 1.6 2 4.5 1.9 7.8-.3l2.7-1.7-2.3 2.9c-3 3.9-2.9 7.4.3 8.6 2.9 1.1 6.2.1 10.8-3.4 3.7-2.7 10.2-5 11.7-4.1.5.3 1 1.4 1 2.3 0 3.2 2.9 6.2 6 6.2 4.3 0 5.4-2.8 3.4-8.2-2.8-7.7-2.8-7.7-.6-7.1 1.1.2 3.3 1.8 4.8 3.4 3 3.1 7.4 3.9 9.3 1.5 1.4-1.6.6-4.3-2.2-7.4l-2-2.2h3.4c3.5 0 7.9-2.9 7.9-5.1 0-.6-1.3-2.4-2.9-4-2.6-2.5-3.7-2.9-8.8-2.9-7.1 0-8.8-1.1-10.8-6.9-3-8.8-1.6-13.1 6.8-20.7 2.9-2.7 6.9-6.8 8.7-9.2l3.3-4.2 3.7 5.7c4 6.2 10.7 12.4 18.7 17.1 6.5 3.9 22.5 9.8 33.2 12.3 11.2 2.6 31.2 3.6 42.2 2 4.6-.7 9.2-1.3 10.3-1.4 1.6-.2 1.8.6 2 6.3.1 7.3 1.6 6-14.9 13.7l-10 4.6-6.2-2.1c-7.9-2.8-12.9-2.9-14.3-.2-2.6 4.9 2 9.1 11.4 10.4 2.2.3 4.6 1.2 5.4 2 1.2 1.2 1.1 1.6-1.2 3.1-1.4 1-4.8 2-7.4 2.3-7.6.8-10.5 4.9-6.2 9.2 1.6 1.6 2.8 1.8 7.2 1.3 2.9-.3 6.8-1.2 8.7-1.9 3.4-1.4 3.4-1.4-1.7 4-3.2 3.4-5.2 6.4-5.2 7.8 0 3.5 2.7 6.8 5.6 6.8 2.7 0 4.3-1.5 10.5-9.8 4.2-5.5 6.6-6.8 5.5-3-2.5 8.9-1.4 15 2.9 17 2.1.9 2.8.8 4.5-.7 2.2-2 4.7-8.3 5.4-13.5.2-1.9.5-3.7.5-4 .1-.3 1 1.4 2.1 3.6 2.2 4.4 7.3 7.9 10.5 7.3 1.1-.3 2.5-2 3.3-4.2 1.4-3.5 1.3-4-1.7-10.2-1.8-3.6-2.9-7.1-2.5-7.7.4-.7 3.8-5.5 7.7-10.6 7.7-10.4 12.8-21.2 16.1-34.4l2.3-9 5.4-1.9c7.2-2.4 7.4-2.4 8.9 1.2 2 4.8 13 13.3 19.8 15.3 6.7 2 8.5 2.9 8.9 4.3.5 1.5-1.5 2.1-12 3.8-10.6 1.7-14 4-13.5 9 .4 3.9 4.9 6.3 8.7 4.8 7.1-2.9 6.8-2.9 4.4-.1-2.8 3-2.9 5.8-.3 8.6 2.4 2.6 5.7 2.8 8.7.7 1.9-1.4 2.2-1.3 3.3 1.6 1.8 4.3 4.2 5.3 8.7 3.4 3.3-1.4 3.8-1.4 4.5 0 1.6 2.7 4.7 3.8 7.8 2.5 3.9-1.6 5.4-5 4.6-10.6l-.6-4.8 2.3 2.2c4.5 4.2 10.7 1.7 10.7-4.2 0-3.1-4.8-20.4-6.1-22-.5-.6-3-3.9-5.5-7.4l-4.6-6.2 1.2-4.9c1.1-4.6.4-12.3-1.4-17.1-.4-.9 1-3.5 3.5-6.5 6.4-7.7 9.1-12 16.8-26.3 9.9-18.6 15.9-37.6 16.8-53.4 1.5-25.6.1-29.4-17.7-48.8-4.7-5.1-13.6-14.3-19.9-20.4-13.6-13.3-17.1-18.7-17.1-26.7 0-10.3 10.2-26.8 17.8-28.8 2.8-.8 5.1-3.6 3.9-4.8-2.3-2.2-21.9 6.1-30 12.8-5.4 4.5-10.6 12.8-11.3 18.2-1.1 8.1 1.9 19.6 8.9 34.7 7.7 16.4 9.7 23 10.9 36.8 1.8 20.2-.8 30.4-10 39.6-5.6 5.7-13 9.6-24.9 13.3-8.2 2.5-9.9 2.7-25.8 2.5-18.2-.1-35.8-2-41.5-4.4l-3.5-1.5 2.9-1.4c2.7-1.3 2.8-1.6 2.3-6.5l-.5-5.2 6.8-4.6c11.4-7.8 22.6-20.4 29.7-33.6 9-16.7 10.7-23.8 10-41.5-.5-11.5-1.1-15.9-3.7-24.8-3.4-12.1-3.5-12.3-12.9-29.2-5.4-9.7-8.3-13.7-15.6-21.1-8.2-8.3-10.1-9.6-20.5-14.7-14.8-7.2-30.9-12.4-43.5-14.2-10.7-1.6-33.2-1.7-48.3-.4zm46.8 5c17.2 2.1 41.9 12.3 54.5 22.5 10.7 8.6 13.2 11.2 18.9 19.9 12.8 19.3 18.2 34.7 20.1 57.5 1 11.6-1.2 20-9.4 36.6-6.7 13.6-7.3 14.4-16.9 23.5-10.4 9.9-16.2 14.1-16.2 11.7 0-.8 2.7-4.5 6.1-8.2 7.5-8.5 20.5-28 23.5-35.5 3-7.1 3-9.8-.1-19.5-1.4-4.3-2.5-8.3-2.5-8.8 0-2-5.5-14.9-12.7-29.5-6.6-13.5-8-15.7-13.1-20.1-8.1-7.1-15.5-9.5-26.5-8.6-7.2.6-18.7 3.9-22.2 6.4-.5.4-5.1 2-10.2 3.4-12 3.5-24.4 3.3-41.3-.8-16.5-4-23.2-4.3-33.5-1.1-9.6 2.9-19.8 9.8-21.9 14.9-.7 1.7-2.2 5.1-3.4 7.6-2.6 5.8-5.9 16-7.3 23-.6 3-2.2 8.5-3.5 12.3-4 11.3-6.4 22.2-6.4 28.9 0 6 .3 6.8 4.3 12.4 6.6 9 8.4 10.6 34.3 31.2l2.9 2.3-3.3-.5c-9.3-1.5-26.6-10.9-35-18.9-6.4-6.2-11.7-17.5-16.7-35.7-2.1-7.7-3-28.7-1.7-38.7 2.1-15.3 10.6-32.6 24.6-50.3 8.4-10.5 21.2-22.9 28-26.9 6.7-4 21.5-8.7 33.6-10.6 10.4-1.6 41.5-1.9 53-.4zm37.6 47.4c8.2 2.4 15.2 8.4 19.6 16.8 3.7 7 14.8 31.2 14.8 32.4 0 .3-.7.3-1.5 0-1.7-.7-6.5 4.7-6.5 7.4 0 1.1 1.3 2.5 3.1 3.4 3.7 2 6.3 1.3 5.4-1.4-.3-1.1-.2-2.2.4-2.5 2.1-1.4 5.7 14.9 4.3 19.9l-.8 3-.7-3.1c-.9-4.6-6.7-5.2-6.7-.8 0 .7-1.2 2.1-2.7 3.2l-2.7 2 4.2 2.8c2.3 1.6 4.1 3.4 4.2 3.9 0 .6-1.1 2.7-2.5 4.8-2.2 3.2-2.9 3.6-4.6 2.6-1.1-.5-3.3-.7-5-.4-2.7.6-2.9 1-2.9 5.1 0 2.5.5 5.4 1 6.4.9 1.7 0 3.1-6 9.4-3.9 4.1-7.1 7.8-7 8.1.1 1.2-24.5 12.6-31.4 14.5-10.1 2.7-22.4 4.2-35 4.2-16.1-.1-23.2-1.2-43.6-7.3l-13-3.7c-1.4-.3-5.4-2.8-9-5.5-11.2-8.6-11.2-8.7-10.7-13.4.3-3.2 0-4.7-1.5-6.2-2.2-2.5-3.4-2.6-7.2-.6-1.5.8-2.9 1.5-3 1.5-.4 0-7.6-9.8-7.6-10.4 0-.3.9-.6 2-.6 3.2 0 2.5-3.8-1.1-5.8-3-1.7-3.1-1.8-2.5-7.9.3-3.5 1.7-9.5 3.2-13.5 1.4-4 3.6-11.4 4.8-16.3 6-23.6 10.6-34 17.2-38.6 2.4-1.7 6.5-3.9 8.9-5 4.2-1.9 4.6-1.9 7-.3 2.4 1.5 5.7 1.4 5.4-.3-.6-3.3.1-3.6 7.9-2.9 13.5 1.2 14.6 1.6 14.6 5.6.1 2.5.7 3.7 2.2 4.5a27.53 27.53 0 0 1 3.8 2.4c1.9 1.6 2.8 1 4.9-3.2l1.5-2.8 14.5-.3c10.7-.2 14.4 0 14.1.9-.8 1.9 3.5 6.5 6.1 6.5 2.9 0 4.5-1.9 4.4-5.6-.2-6 .5-6.8 8.4-10.2 7.2-3.1 7.8-3.2 9.9-1.8 3 2.2 5.5 2 6.8-.4s3.9-2.5 10.6-.5zm114.7 9.8c-2.4 4.7-3.2 5.6-5.5 5.6-1.9.1-2.8.6-2.8 1.8 0 .9-.7 2.5-1.6 3.4-1.5 1.7-1.5 2 .1 4.5 1.1 1.8 1.4 2.9.7 3.6-1.5 1.5-.3 3.8 1.9 3.8 1.3 0 2.7 1.8 4.5 5.7 1.6 3.4 5.7 8.8 10.2 13.5l7.5 7.8-3 .6c-1.8.4-3.6 1.7-4.6 3.4-2.2 3.6-2.1 4.7.2 5.3 1.4.3 2.1 1.5 2.3 3.8.2 2.5 1 3.7 3 4.7 5 2.3 8.5-1.6 5.9-6.6-.4-.9-1.1-3.2-1.4-5-.9-4.7 1-4.1 7.1 2.1 5.6 5.7 6.5 8.6 4.9 15.3-.7 2.9-.5 3.4 2 4.6 1.5.8 3.8 2 4.9 2.8 2.9 1.8 5.8.6 5.1-2.1-.5-2-.5-2 1.5-.2 3.6 3.1 6.9 12.1 7.1 18.8.5 24-4.5 43.9-17 67.3-5.3 10.1-13.1 22-17.3 26.5-.4.4-3.4-2-6.6-5.3-6.8-7.2-9-8.5-16.3-9.8-6.7-1.2-14.9.8-18.7 4.7-5.3 5.2-10.4 18.2-10.4 26.2v5.7l-4 1.6c-5.7 2.3-6 2.1-6-2.8 0-4-.6-5.1-9.7-15.7-5.4-6.3-16-17.7-23.7-25.3l-14-14 4.9-1.6c2.7-.9 5.2-2.3 5.6-3.1s1.3-2.7 2-4.3l1.4-2.8 12 .7c9.5.6 12.4 1.1 14.4 2.6 1.3 1 3.4 1.9 4.6 1.9s3 .9 3.9 1.9c1 1.1 2.4 1.7 3.1 1.5 1.2-.5 2.8-4.3 3-7.2 0-.7 3.7-2.6 8.2-4.2 11.6-4 18-7.7 23.9-13.7 7.2-7.4 10.3-13.6 11.2-22.5l.7-7.3 6.5-.5c6-.5 6.5-.7 6.8-3 .2-1.4.8-3.5 1.4-4.8.9-1.8.9-2.8 0-4.2-.9-1.6-.9-2.1.5-2.8 3.4-1.9-.8-4.5-10.6-6.6l-5.5-1.1-1.7-5.5c-.9-3-3-8.5-4.7-12.1-2.5-5.6-2.7-6.7-1.5-7.5 1.3-.8 1.3-1.5 0-6-.8-2.8-2-6-2.5-7-.6-1.1-1.3-3-1.6-4.4s-1.9-3.3-3.6-4.3c0 0-2.333-.962-3.1-1.9-2.097-2.565-3.212-6.432-3.135-9.57.081-3.322 1.868-6.296 3.735-9.13 1.064-1.614 4-4.2 4-4.2 4.2-4.4 11.6-10.2 12.2-9.6.2.2-.9 2.9-2.4 6zm-96.1 144c1.9 2.4 2.1 4.1.9 7.2-.7 1.7-1 1.5-3.3-2-1.4-2.2-3.1-5.1-3.8-6.4-1.2-2.3-1.1-2.3 1.6-1.7 1.6.4 3.7 1.7 4.6 2.9zm87.074 117.078c-.772.575-2.141 1.278-3.374.622-.53-.282-.795-1.839-.516-2.351.321-.589 1.096-1.491 2.251-4.862 1.285-3.748-4.334-5.182-8.336-3.787-2.877 1.002-4.481 1.489-4.9.8-.981-1.612 1.1-2.4 8.9-3.7 14.6-2.4 17.6-4.2 16.3-9.6-.9-3.7-3.2-5.3-10.4-7.5-4.5-1.3-8.6-3.5-12.5-6.6-3.2-2.6-5.6-4.9-5.3-5.1.2-.3 2.1 0 4.1.7 4.2 1.4 6.7.7 5.9-1.5-.4-.8.1-1.7 1-2.1 3.8-1.5.2-8-3.8-6.8-3.1 1-6.5 3.6-7.1 5.6-1 2.8-2.2 2.1-4-2.4-1.7-4.3-1.5-8.4.7-14.3a30.44 30.44 0 0 1 1.4-3.3c.1-.2 1.6.4 3.3 1.2 4.5 2.4 6.8 2.1 7.4-1.1.3-1.5.1-3.8-.4-5.1-.8-2-1.4-2.3-3.9-1.7-5.2 1.2-2.6-4.1 3.1-6.1 5.4-2 6.7-1.8 6.2 1-.4 1.7.1 2.7 1.6 3.5 1.2.7 2.1 1.8 2.1 2.6 0 1.7 2.6 2 3.5.4.4-.5 1.8-1.5 3.2-2 1.9-.7 2.4-1.5 2-2.9-.8-3.3.8-2.3 6.4 3.8 7.4 7.9 9.4 14.2 8.4 26.4-.7 8.5-.6 9 1.9 12.2 3.1 4.2 3.1 4.2.6 4.9-1.5.4-2 1.4-2 3.6 0 3.8 2.7 5.5 6.5 4.1l2.9-1c.9 0 4.7 16.2 4.2 17.7-.6 1.5-.9 1.3-2.6-1.2-3.4-5.2-7.348-5.587-8.6-.8-.448 1.714-.617 3.15-.713 5.61-.18 4.598 1.048 4.809.568 6.854-.386 1.644-1.955 1.837-2.855 1.837-1.3 0-1.47-.592-.9-2.7.43-1.592 1.07-4.738.663-8.633-.5-4.779-4.663-2.967-5.863-1.467-.6.7-1.6 3-2.3 5.1-1.1 3.7-2.922 5.451-4.777 4.995-1.499-.369-2.9-1.781-1.782-4.186 1.478-3.179 4.439-6.495 2.351-7.259-5.629-2.058-8.946 5.358-10.517 6.527zm-97.065 25.086c-1.425 1.578-2.988 4.477-3.963 6.191-1.925 3.386-4.246 3.345-4.246 1.045 0-1.3 9.166-11.065 9.842-13.705.939-3.664-2.044-5.699-7.542-3.595-2.602.996-6.399 2.01-8.3 2.2-3.099.31-3.202.295-1-.5 1.398-.505 3.706-1.171 5.2-1.5 4.407-.971 7.9-4.7 8.1-8.5.2-2.9-1.79-3.767-3.281-5.086-1.206-1.066-2.925-1.599-4.388-2.018-1.445-.413-6.202-1.195-8.632-2.497-2.2-1.3-2.3-1.4-.5-1.4 3.36.268 6.64 1.648 9.402 2.391 1.585.427 2.463.787 4.798 1.109 2.9.4 4.9.2 7-1 1.5-.8 7.2-3.6 12.5-6.1 8.7-4 13.1-7.6 11.4-9.2-.3-.3.9-1.5 2.7-2.7s3.2-2.8 3.2-3.6.4-2.1.8-2.8c.9-1.3 0-5.2-1.2-5.2-.4 0-1.5-.6-2.5-1.3-1.7-1.3-1.7-1.6 1-5.4 2.6-3.6 6.3-7 10.3-9.3 1.9-1.1.6-4-1.7-4-1 0-3.7 1.6-5.9 3.5-3.4 2.9-4.9 3.5-8.8 3.5-6.8 0-11-2.4-19.6-11.2-8.2-8.5-11.5-15.4-10.3-21.7.5-2.4.3-3.1-.9-3.1-1.8 0-3.2 1.8-4 5.1-.9 3.7 4.9 15.2 11.2 22.1 6.1 6.7 13.9 11.9 19 12.7 3.6.6 4.8 2.4 3.3 4.9-2.4 3.7-35.4 5.5-50 2.7-11.3-2.2-30.6-8.8-36.8-12.7-10-6.3-23.1-20.9-21.7-24.4.3-.8.2-2.1-.1-2.9-.4-1.3-1-1.4-2.6-.5-1.1.6-2 1.7-2 2.5s-4.3 5.8-9.6 11.1c-8.5 8.5-9.9 9.5-12.3 8.9-3.4-.7-5.6 1.5-6.5 6.8-.6 3.4-.4 3.9 2.3 5.5 2.4 1.3 3.1 2.4 3.1 4.7.1 4.3 3.4 11.1 6.5 13.1 1.5.9 4.1 1.7 5.8 1.6 5-.2 9.7.8 9.7 2 0 .7-2 .9-6.4.4-6.7-.7-9.5.6-8.2 3.9.4 1.1-.1 1.5-1.8 1.5-4.1 0-5.6 1.1-5.6 4 0 2.7-.2 2.8-6.3 3.2-5 .3-7.2 1-11 3.6-5.2 3.5-5.7 3.7-5.7 2.3 0-.5.9-1.2 1.9-1.6 3-.9 8.3-6.3 7.6-7.5-.4-.6-1.8-1.5-3.1-2.1l-2.5-.9 2.3-3c1.5-2.1 3-3 5-3 3.2 0 6.8-3.1 6.8-6 0-2.7-4.5-5.4-9.1-5.5h-3.8l-1.6-6.5-2-8c-.3-1 .5-2 2.4-2.7s3.5-2.3 4.4-4.4c.8-1.9 2.1-4 3-4.8 1.9-1.5 2.3-5.6.7-6.6-.6-.4-.8-1.5-.5-2.5.4-1.2-.3-2.5-1.9-3.7l-2.5-2 2.5-4.1c1.4-2.3 2.6-4.2 2.7-4.2.6 0 0 5-.6 5.6-1.2 1.2.4 2.4 3.2 2.4 3.4 0 5.1-1.7 5.1-4.9 0-3.9-1.4-5.4-4.3-4.9-2.4.5-2.4.4 1.1-4.6l5.2-7.1c1.8-2.2 5-11.6 5-14.7 0-1.2.5-1.8 1.3-1.5.6.2 1.1 1 .9 1.7-.1.7 0 2.1.4 3.2.8 2.7 6.7 2.2 7.2-.7.2-1.1 1.1-2.8 1.9-3.7 1.4-1.6 1.4-1.9-.8-3.7-2.9-2.5-3.9-2.5-7.5-.6-2.9 1.5-2.9 1.5-3.4-1.8-.3-1.7-.1-3.4.3-3.6.5-.2 3.9.6 7.5 1.7 3.7 1.2 11.4 3.1 17.2 4.3 14.9 3 33 2.3 48-2 9.8-2.8 25.7-8.6 29.7-11 1-.6 1.9-1.1 1.9-1.1.1 0 1.4 2.5 2.9 5.5 4.3 9 13.9 21 26.9 33.9 6.7 6.7 13.8 14.1 15.8 16.6 3.3 4.1 3.6 4.9 2.9 8.2-1 4.3-.5 5.3 3.2 6.7 3.9 1.5 4.7 1.4 4.7-.7.1-1.4.4-1.3 2 .7 2 2.4 2.5 7.2 1.1 12.1-.7 2.4-.7 2.4-1.3.3-.5-1.8-1.3-2.1-5.2-2.1-3.8 0-4.6.3-4.6 1.8 0 1-.4 2.2-1 2.5-1.9 1.2-1 4.5 1.4 5.5 1.3.5 2.7 1.4 3.1 1.9.3.6 1.5 1.1 2.6 1.1 2.3 0 2.3-.6.3 6.1-2.6 8.8-6 14.9-14.8 26.5-3.5 4.7-4.3 5.2-8.7 5.8-5.7.8-8.1 2.8-7.7 6.5.2 1.9 1 2.7 2.7 2.9 1.3.2 2.7-.2 3.1-.9 1.4-2.1 3.6-.3 6.6 5.5 2.2 4.3 2.6 5.8 1.7 6.7-1.6 1.6-3.8-.2-6.3-5.2-2.2-4.3-4-5.2-7.5-3.9-1.9.7-2.5 1.7-2.5 4 0 4.5-2 11.8-3.6 13.1-1.1.9-1.4.7-1.4-1.2 0-1.3.5-4.3 1-6.7 1.7-7.4-2.047-13.287-7.184-8.641-.562.508-4.231 3.382-5.607 4.905zM172.225 58.196c-5.7 2.6-12.4 8.1-12.4 10.1 0 2.9 2.2 2.5 6.2-1 5.1-4.7 11.7-7.6 16.2-7.3 4.2.2 5.3-.6 3.6-2.7-1.8-2.2-7.7-1.8-13.6.9zm-90.4 8.6c0 3.3 1.6 3.8 5.1 1.9 2-1 2-1.1.3-3-2.7-3-5.4-2.5-5.4 1.1z"/><path d="M171.325 67.396c-5.2 3.5-7 5.9-9.6 12.7-3.6 9.5-2.3 21.1 2.8 25.9 3.9 3.6 6.6 4.8 12.6 5.8 7.9 1.2 13.9-.7 19.8-6.6 8.4-8.3 9.8-17.6 4.2-29.2-3.5-7.4-10-11.2-19.4-11.2-5.5 0-7.3.4-10.4 2.6zm21.3 4c3.2 2.1 7.2 11 7.1 15.9l-.1 4-1.6-5.5c-1.2-4.3-2.9-6.8-7.4-11.4-5.2-5.2-5.6-5.8-3.1-5.2 1.5.4 3.8 1.4 5.1 2.2zm-15.8 11.8c0 1.8-2.7 3.9-4 3.1-.5-.3-1-1.5-1-2.6 0-1.4.7-1.9 2.5-1.9 1.5 0 2.5.6 2.5 1.4zm-120.3-14c-4.7 1.3-8.7 4-8.7 5.9 0 .6.7 1.8 1.5 2.7 1.4 1.6 1.2 2-2.1 4.5-2.2 1.7-4.7 5-6.1 8.2-2.2 4.9-2.5 6.5-2.1 14.2.6 13.8 4.6 18.5 16.6 19.7 8.2.9 14-1.3 18.6-6.9 5-6.3 6.8-10.5 7.3-17.2.4-5.1.1-6.8-2.4-11.5-1.7-3.4-4.5-6.8-7.2-8.8-4.2-3.2-4.8-3.3-11.7-3-6.8.3-7.2.2-5.7-1.4 3.3-3.7 16.1-3.1 19.4.9 1.8 2.1 4.1 1.6 3.7-1-.2-1.5-1.7-2.9-4.8-4.4-6.1-2.9-10.6-3.5-16.3-1.9zm-4.9 16.3c-3.3 4-6.3 10.1-7.4 15.3l-1.2 5.5-.1-5.1c-.1-6.1 1.7-10.9 5.5-14.7 2.9-3 5.6-3.8 3.2-1zm18.3 7.6c-.9 2.5-4.6 3.5-5.4 1.4-.7-1.9.4-3.4 2.8-3.9 2.9-.6 3.5 0 2.6 2.5zm52.7-22.6c-2.2.3-2.9 1.1-3.4 3.9-.3 1.9-.1 4.7.6 6.3 1.7 4.2 8 5.4 8 1.5 0-.8.5-1.4 1-1.4.6 0 1-.6 1-1.4s.7-1.6 1.5-2c.8-.3 1.5-1 1.5-1.6 0-1.6-4.7-6-6.2-5.9l-4 .6zm-26.6 12.9c-2.8 2-2.8 3.3.4 6.7 2.7 2.9 4.4 2.8 4.4-.4 0-1 .7-1.9 1.5-1.9 1.8 0 1.9-1.4.5-4.1-1.3-2.3-3.8-2.4-6.8-.3zm24.8 12.5c-15.7 1.7-32 7.6-32 11.5 0 2 1 1.8 10.4-2.1 9.5-3.9 18.2-5.5 30.6-5.4 7.7 0 10.3.3 19.3 2.5 2.2.5 2.7.3 2.7-1.3 0-1.1-1.1-2.5-2.5-3.1-4.9-2.2-18.3-3.2-28.5-2.1zm18.2 15.5c-2.6 1.8-2.8 3.7-.6 5.8 3.1 3.2 9.4 1.5 9.4-2.5 0-1.8-3.5-4.9-5.5-4.9-.6 0-2.1.7-3.3 1.6zm-41.4 2.5c-3.7 2.1-.8 6.9 4.2 6.9 3.8 0 5.5-2.9 3.4-5.8-1.6-2.3-4.8-2.8-7.6-1.1zm97.7 11.7c-2.8 1-8.1 4.3-12 7.5-8.8 7.3-12 8.2-25.5 7.1-5.8-.5-15.7-.8-22-.8-10.5.1-12.5.5-22.5 3.9-13.6 4.6-21.3 4.8-39 1.1-13.5-2.9-19.7-3.2-27-1.2-6.6 1.7-9.5 3.3-9.5 5.1 0 1.9 2.3 1.9 6 0 1.6-.8 5.6-1.8 8.9-2.1 5.8-.6 6.1-.5 12.3 3.6 8.5 5.7 27.2 14.5 35 16.6 7.5 1.9 30.8 2.1 36.6.3 13.1-4.2 25.6-11.2 36.8-20.7 9.5-8 21.6-16.2 25.4-17.2 2.3-.6 5.4-.8 7-.5 3.2.7 4.8-.9 3-3-1.6-2-7.3-1.8-13.5.3zm-50.9 29.8c1.9.9 3.6 2 3.9 2.4.2.4-3.9 2-9.2 3.5-8.1 2.3-11.6 2.7-21.8 2.7-6.7.1-12.9-.3-13.9-.9-1.5-.8-1.4-1.1.8-3.2 1.6-1.5 4.4-2.5 8.7-3.2l12.4-1.8c9.6-1.4 15.5-1.2 19.1.5zm-113.5-27.7c-3.9 5.4-2.2 9.1 4.1 9.1 2.8 0 3.8-.4 3.8-1.6 0-2.2-3.9-10.4-5-10.4-.5 0-1.8 1.3-2.9 2.9zm296.9 33.7c-1.6 4.1-1.2 5.7 2.3 8.6 4 3.5 7.2 3.8 6.4.6-.4-1.2-.2-2.7.4-3.4.7-.8.5-2.4-.5-4.8-1.3-3-2-3.6-4.6-3.6-2.4 0-3.3.6-4 2.6zm-19.3 13.1c-1.7 1.6-.4 3.2 3.4 3.8 5 .9 6.1-.1 3-2.6-2.3-1.9-5.2-2.5-6.4-1.2zm17.3 5.8c-1 1.2-1 2.5-.1 5.8.6 2.3 1.2 5.5 1.3 7.2.3 2.7.7 3 4.2 3.3 2.1.2 4.3-.1 4.7-.5.9-.9-.9-7.8-3.7-14.1-1.6-3.5-4.3-4.2-6.4-1.7zm-23.6.6c-3.8 1.1-5.2 2.6-6 6.6-.5 2.8-.3 3.1 4 4.7 6.6 2.5 7.9 2 8.2-3.3.2-4.6-1-9.2-2.3-9-.5 0-2.2.5-3.9 1zm-7.5 21c-1.7 3.3-2.2 6.1-2.2 12.1 0 4.4.5 8.4 1.1 9s2.5.8 4.6.4c2.7-.5 3.7-1.3 4.1-3.1l1-5c.4-1.8 1.2-2.5 2.8-2.5 3.2-.1 5.7-2.3 5.7-5.1 0-3.9-3.6-8.9-6.4-8.9-1.3 0-3.7-.3-5.4-.6-2.8-.6-3.2-.3-5.3 3.7zm-19.1 8.6c-1.2.3-1.6 1.5-1.5 4.6.2 4 .4 4.2 3.2 4.2 2.7 0 3-.4 3.6-4 .4-2.2.5-4.3.2-4.8-.4-.7-2.7-.8-5.5 0zm-53.8 5.2c-1.5 3-1.2 6.6.8 8.3 3.3 2.9 8 5.1 9.5 4.5 1.4-.5 1.3-1.2-.8-5.5-1.3-2.7-2.3-5.7-2.2-6.7.3-2.8-5.8-3.2-7.3-.6zm30.2 3.2c-4.2 1.2-5.1 3.6-2.3 5.5 1.2.9 2.1 2.6 2.1 4 0 3.6 1.4 5.7 5.8 8.8 4.1 2.8 6.7 2.7 7.7-.4.6-1.9-2-7-3.6-7-.5 0-.9-.8-.9-1.8 0-3.1-2.8-9.7-4.2-9.9-.7-.1-2.8.3-4.6.8zm-69.6 5.6c-1.4 2.1-2.6 4.3-2.6 4.9 0 1.6 4.4 5.4 6.3 5.4 2.6 0 5.8-5.9 5.5-10-.3-3.1-.6-3.5-3.5-3.8-2.7-.3-3.5.2-5.7 3.5zm-104 9.9c-1.6 4.3.8 13.4 3.6 13.4 1.1 0 1.8-.7 1.8-2s.7-2 1.8-2c4.6 0 5.8-6.7 1.7-9.4-3.1-2.1-8.1-2.1-8.9 0zm131 7.6c-1.6 2.3-2.1 8.3-1 11.2.4.9 1.8 1.6 3.4 1.6 1.9 0 2.9.6 3.3 2 .9 3.3 4.1 2.4 6.5-1.9 1.2-2.1 2.2-4.4 2.2-5.1 0-1.8-9.1-10-11.1-10-1 0-2.5 1-3.3 2.2zm-14.6 7.2c0 4 1.1 5 4.6 4.2 2.9-.8 3.2-3.6.6-5.9-3.1-2.9-5.2-2.2-5.2 1.7zm-113 8.6c-.9 1.8-.8 2.5.6 4.1.9 1 2.6 1.9 3.6 1.9 1.6 0 1.9-.6 1.6-3.8-.2-2.9-.8-3.8-2.5-4-1.4-.2-2.6.4-3.3 1.8zm126 5.9c-1.4.4-2.5 1.2-2.4 1.9s.2 2.5.3 4.2l.1 2.9 6.3-.3c7.3-.3 8.7-.9 8.7-3.7 0-4.7-5.9-7-13-5zm18 46c-2.1 4.1-.6 8.1 3.2 8.1 2.6 0 4.5-4.4 2.8-6.5-2.6-3.1-4.8-3.7-6-1.6zm-18.9 11.5c-2.2 2.3-2.2 2.5-.6 5.6 1.1 2.1 2.1 3 3.1 2.6.9-.3 2-.6 2.5-.6 1.2 0 4.1-7.1 3.5-8.7-.9-2.2-6.1-1.5-8.5 1.1zm-13.4 2.2c-2.6 2.6 2.4 10.3 5.8 9 1.2-.4 1.5-1.7 1.3-4.8-.3-4-.5-4.3-3.3-4.6-1.7-.2-3.4 0-3.8.4zm102.3-62.7c-.5 1.1-1 3.3-1 5 0 2.3.5 3.1 1.8 3.1 2.2 0 5.8-3.9 5.6-6l-.3-2.8c-.2-1.9-4.9-1.4-6.1.7zm-3.4 15.6c-2.9 4.5.3 5.9 6.3 2.9 3.1-1.5 3.1-1.7 1.5-3.5-2.4-2.7-5.9-2.4-7.8.6zm10.8 7c-.8 2.1.3 4.8 1.9 4.3 1.9-.7 2.2-5.8.2-5.8-.8 0-1.8.7-2.1 1.5zm-16.9 1.8c-1.7 1.3-1.7 1.5.5 4.5 1.3 1.8 2.9 3.2 3.6 3.2 1.5 0 2.5-2.5 1.8-4.4-.3-.8 0-1.7.5-2.1.6-.3.9-1.1.6-1.6-.9-1.3-4.8-1.1-7 .4z"/></g></g></g><path d="M-245.322 59.88l235-235h-15.319l-219.681 220z" fill="#1468c5"/><path d="M-245.322-.12l174.681-175H-85.96l-159.362 160z" fill="#c51c13"/><path d="M-245.322 14.88l189.681-190H-70.96l-174.362 175z" fill="#a0c514"/><path d="M-245.322 29.88l205-205h-15.319l-189.681 190z" fill="#931991"/><path d="M-245.322 44.88l220-220h-15.319l-204.681 205z" fill="#fbba00"/><g transform="matrix(1.839197 0 0 1.839197 54.06628 104.8182)"><path d="M223.767-18.957l-32.624 33.556C177.564 28.566 160.88 9.901 175.152.043l34.3-23.693-7.463 10.245 27.915-18.537-19.065 19.606z" class="c"/><ellipse cx="180.338" cy="9.716" rx="7.345" ry="7.343" paint-order="stroke markers fill" class="d"/><path d="M175.239 10.221a5.123 5.122 0 0 1 4.442-5.585" fill="none" stroke-width="2" paint-order="stroke markers fill" stroke-linecap="round" class="e f"/></g><path d="M154.99 128.814c10.285.043 19.891 10.259 12.736 24.298-7.014 13.762-18.248 13.123-31.023 28.386-11.69 13.966-17.349 42.409-17.349 42.409s-2.709-42.749 7.774-67.351c6.79-15.934 15.975-27.792 27.862-27.742z" class="c"/><g transform="matrix(.842112 .80291 -.805116 .839587 218.578168 7.983151)"><g class="c e f g"><use href="#A"/><use href="#C"/></g><use href="#B" class="d"/></g><g transform="matrix(.720926 .693012 -.693012 .720926 210.261728 319.765955)"><g transform="matrix(.943184 -.849205 .848771 .942814 -480.35573 119.0222)"><g transform="matrix(.683858 .610909 -.6124 .682194 67.617805 -75.960472)"><g class="c e f g"><use href="#A"/><use href="#C"/></g><use href="#B" class="d"/></g><g transform="matrix(1.498179 -.081179 .081179 1.498179 814.60991 -9.622784)"><path d="M-521.515-1.317c-6.887 12.206-33.291 26.878-37.314 37.924-.871 2.478-.975 4.222-1.011 6.116 11.895-17.495 42.341-28.843 38.325-44.041z" fill="#1468c5"/><path d="M-523.923-4.531l-34.349 34.839c-1.336 3.179-1.263 7.797-1.411 9.838 6.205-15.274 29.576-24.347 38.168-41.462-.613-1.226-1.412-2.272-2.408-3.215z" fill="#fbba00"/><path d="M-526.066-6.515c-4.58 3.134-29.124 26.573-32.307 33.516-.446 2.216-.575 3.645-1.036 8.502 4.339-10.945 31.342-27.488 35.538-39.988-.999-.956-1.192-1.24-2.195-2.03z" fill="#931991"/><path d="M-556.97 21.166c-.857 2.462-1.203 4.487-1.79 8.111 2.758-7.486 27.728-32.079 32.694-35.792-.786-.5-1.706-1.421-5.084-.78-9.79 5.753-21.751 17.212-25.819 28.461z" fill="#a0c514"/><path d="M-556.558 20.093c8.129-13.49 27.329-27.616 27.329-27.616-11.337.564-23.586 15.475-27.329 27.616z" fill="#c51c13"/></g></g><text xml:space="preserve" x="-446.196" y="81.461" font-size="16" font-family="Montserrat" letter-spacing="0" word-spacing="0"><tspan x="-446.196" y="81.461" dy="6" font-weight="normal" class="d h">20</tspan><tspan x="-446.196" y="102.371" font-weight="normal" class="d h">24</tspan></text></g></svg>