<svg xmlns="http://www.w3.org/2000/svg" viewBox="0 0 351.974 367.571" preserveAspectRatio="xMidYMid meet" xmlns:v="https://vecta.io/nano"><path d="M98.025.896c-10 .9-30 5.3-34.5 7.6-12.8 6.5-27.1 18.7-37.1 31.8-12.7 16.6-17.6 25.4-22.8 41-2.6 7.7-3.1 11-3.5 22.5-.6 15.4.9 26.4 5.9 45 0 0 2.663 7.337 4.66 10.689 2.362 3.966 8.54 10.811 8.54 10.811 8.6 8.4 11.5 10.7 19.1 14.3 5 2.4 12.8 5.4 17.5 6.6 6.1 1.6 8.4 2.6 8.2 3.7-.2.8-.6 2.9-.9 4.6-.5 3.1-.4 3.3 2.6 3.3 4 0 8.7 2.4 10.2 5.2 1.9 3.5 1.4 11.9-.9 16.8-3.6 7.5-9 16.3-14 22.4-2.8 3.5-6.6 10.8-8.7 16.8s-1.9 15.1.6 23.9c1.1 4.1 2.3 8.5 2.5 9.9l1 4.7c.2 1.3 1.1 2.3 1.9 2.3 4.1 0-.4 5.4-7.1 8.6-6.4 3-9.3 6.6-7.4 8.9 1.6 2 4.5 1.9 7.8-.3l2.7-1.7-2.3 2.9c-3 3.9-2.9 7.4.3 8.6 2.9 1.1 6.2.1 10.8-3.4 3.7-2.7 10.2-5 11.7-4.1.5.3 1 1.4 1 2.3 0 3.2 2.9 6.2 6 6.2 4.3 0 5.4-2.8 3.4-8.2-2.8-7.7-2.8-7.7-.6-7.1 1.1.2 3.3 1.8 4.8 3.4 3 3.1 7.4 3.9 9.3 1.5 1.4-1.6.6-4.3-2.2-7.4l-2-2.2h3.4c3.5 0 7.9-2.9 7.9-5.1 0-.6-1.3-2.4-2.9-4-2.6-2.5-3.7-2.9-8.8-2.9-7.1 0-8.8-1.1-10.8-6.9-3-8.8-1.6-13.1 6.8-20.7 2.9-2.7 6.9-6.8 8.7-9.2l3.3-4.2 3.7 5.7c4 6.2 10.7 12.4 18.7 17.1 6.5 3.9 22.5 9.8 33.2 12.3 11.2 2.6 31.2 3.6 42.2 2 4.6-.7 9.2-1.3 10.3-1.4 1.6-.2 1.8.6 2 6.3.1 7.3 1.6 6-14.9 13.7l-10 4.6-6.2-2.1c-7.9-2.8-12.9-2.9-14.3-.2-2.6 4.9 2 9.1 11.4 10.4 2.2.3 4.6 1.2 5.4 2 1.2 1.2 1.1 1.6-1.2 3.1-1.4 1-4.8 2-7.4 2.3-7.6.8-10.5 4.9-6.2 9.2 1.6 1.6 2.8 1.8 7.2 1.3 2.9-.3 6.8-1.2 8.7-1.9 3.4-1.4 3.4-1.4-1.7 4-3.2 3.4-5.2 6.4-5.2 7.8 0 3.5 2.7 6.8 5.6 6.8 2.7 0 4.3-1.5 10.5-9.8 4.2-5.5 6.6-6.8 5.5-3-2.5 8.9-1.4 15 2.9 17 2.1.9 2.8.8 4.5-.7 2.2-2 4.7-8.3 5.4-13.5.2-1.9.5-3.7.5-4 .1-.3 1 1.4 2.1 3.6 2.2 4.4 7.3 7.9 10.5 7.3 1.1-.3 2.5-2 3.3-4.2 1.4-3.5 1.3-4-1.7-10.2-1.8-3.6-2.9-7.1-2.5-7.7.4-.7 3.8-5.5 7.7-10.6 7.7-10.4 12.8-21.2 16.1-34.4l2.3-9 5.4-1.9c7.2-2.4 7.4-2.4 8.9 1.2 2 4.8 13 13.3 19.8 15.3 6.7 2 8.5 2.9 8.9 4.3.5 1.5-1.5 2.1-12 3.8-10.6 1.7-14 4-13.5 9 .4 3.9 4.9 6.3 8.7 4.8 7.1-2.9 6.8-2.9 4.4-.1-2.8 3-2.9 5.8-.3 8.6 2.4 2.6 5.7 2.8 8.7.7 1.9-1.4 2.2-1.3 3.3 1.6 1.8 4.3 4.2 5.3 8.7 3.4 3.3-1.4 3.8-1.4 4.5 0 1.6 2.7 4.7 3.8 7.8 2.5 3.9-1.6 5.4-5 4.6-10.6l-.6-4.8 2.3 2.2c4.5 4.2 10.7 1.7 10.7-4.2 0-3.1-4.8-20.4-6.1-22-.5-.6-3-3.9-5.5-7.4l-4.6-6.2 1.2-4.9c1.1-4.6.4-12.3-1.4-17.1-.4-.9 1-3.5 3.5-6.5 6.4-7.7 9.1-12 16.8-26.3 9.9-18.6 15.9-37.6 16.8-53.4 1.5-25.6.1-29.4-17.7-48.8-4.7-5.1-13.6-14.3-19.9-20.4-13.6-13.3-17.1-18.7-17.1-26.7 0-10.3 10.2-26.8 17.8-28.8 2.8-.8 5.1-3.6 3.9-4.8-2.3-2.2-21.9 6.1-30 12.8-5.4 4.5-10.6 12.8-11.3 18.2-1.1 8.1 1.9 19.6 8.9 34.7 7.7 16.4 9.7 23 10.9 36.8 1.8 20.2-.8 30.4-10 39.6-5.6 5.7-13 9.6-24.9 13.3-8.2 2.5-9.9 2.7-25.8 2.5-18.2-.1-35.8-2-41.5-4.4l-3.5-1.5 2.9-1.4c2.7-1.3 2.8-1.6 2.3-6.5l-.5-5.2 6.8-4.6c11.4-7.8 22.6-20.4 29.7-33.6 9-16.7 10.7-23.8 10-41.5-.5-11.5-1.1-15.9-3.7-24.8-3.4-12.1-3.5-12.3-12.9-29.2-5.4-9.7-8.3-13.7-15.6-21.1-8.2-8.3-10.1-9.6-20.5-14.7-14.8-7.2-30.9-12.4-43.5-14.2-10.7-1.6-33.2-1.7-48.3-.4zm46.8 5c17.2 2.1 41.9 12.3 54.5 22.5 10.7 8.6 13.2 11.2 18.9 19.9 12.8 19.3 18.2 34.7 20.1 57.5 1 11.6-1.2 20-9.4 36.6-6.7 13.6-7.3 14.4-16.9 23.5-10.4 9.9-16.2 14.1-16.2 11.7 0-.8 2.7-4.5 6.1-8.2 7.5-8.5 20.5-28 23.5-35.5 3-7.1 3-9.8-.1-19.5-1.4-4.3-2.5-8.3-2.5-8.8 0-2-5.5-14.9-12.7-29.5-6.6-13.5-8-15.7-13.1-20.1-8.1-7.1-15.5-9.5-26.5-8.6-7.2.6-18.7 3.9-22.2 6.4-.5.4-5.1 2-10.2 3.4-12 3.5-24.4 3.3-41.3-.8-16.5-4-23.2-4.3-33.5-1.1-9.6 2.9-19.8 9.8-21.9 14.9-.7 1.7-2.2 5.1-3.4 7.6-2.6 5.8-5.9 16-7.3 23-.6 3-2.2 8.5-3.5 12.3-4 11.3-6.4 22.2-6.4 28.9 0 6 .3 6.8 4.3 12.4 6.6 9 8.4 10.6 34.3 31.2l2.9 2.3-3.3-.5c-9.3-1.5-26.6-10.9-35-18.9-6.4-6.2-11.7-17.5-16.7-35.7-2.1-7.7-3-28.7-1.7-38.7 2.1-15.3 10.6-32.6 24.6-50.3 8.4-10.5 21.2-22.9 28-26.9 6.7-4 21.5-8.7 33.6-10.6 10.4-1.6 41.5-1.9 53-.4zm37.6 47.4c8.2 2.4 15.2 8.4 19.6 16.8 3.7 7 14.8 31.2 14.8 32.4 0 .3-.7.3-1.5 0-1.7-.7-6.5 4.7-6.5 7.4 0 1.1 1.3 2.5 3.1 3.4 3.7 2 6.3 1.3 5.4-1.4-.3-1.1-.2-2.2.4-2.5 2.1-1.4 5.7 14.9 4.3 19.9l-.8 3-.7-3.1c-.9-4.6-6.7-5.2-6.7-.8 0 .7-1.2 2.1-2.7 3.2l-2.7 2 4.2 2.8c2.3 1.6 4.1 3.4 4.2 3.9 0 .6-1.1 2.7-2.5 4.8-2.2 3.2-2.9 3.6-4.6 2.6-1.1-.5-3.3-.7-5-.4-2.7.6-2.9 1-2.9 5.1 0 2.5.5 5.4 1 6.4.9 1.7 0 3.1-6 9.4-3.9 4.1-7.1 7.8-7 8.1.1 1.2-24.5 12.6-31.4 14.5-10.1 2.7-22.4 4.2-35 4.2-16.1-.1-23.2-1.2-43.6-7.3l-13-3.7c-1.4-.3-5.4-2.8-9-5.5-11.2-8.6-11.2-8.7-10.7-13.4.3-3.2 0-4.7-1.5-6.2-2.2-2.5-3.4-2.6-7.2-.6-1.5.8-2.9 1.5-3 1.5-.4 0-7.6-9.8-7.6-10.4 0-.3.9-.6 2-.6 3.2 0 2.5-3.8-1.1-5.8-3-1.7-3.1-1.8-2.5-7.9.3-3.5 1.7-9.5 3.2-13.5 1.4-4 3.6-11.4 4.8-16.3 6-23.6 10.6-34 17.2-38.6 2.4-1.7 6.5-3.9 8.9-5 4.2-1.9 4.6-1.9 7-.3 2.4 1.5 5.7 1.4 5.4-.3-.6-3.3.1-3.6 7.9-2.9 13.5 1.2 14.6 1.6 14.6 5.6.1 2.5.7 3.7 2.2 4.5a27.53 27.53 0 0 1 3.8 2.4c1.9 1.6 2.8 1 4.9-3.2l1.5-2.8 14.5-.3c10.7-.2 14.4 0 14.1.9-.8 1.9 3.5 6.5 6.1 6.5 2.9 0 4.5-1.9 4.4-5.6-.2-6 .5-6.8 8.4-10.2 7.2-3.1 7.8-3.2 9.9-1.8 3 2.2 5.5 2 6.8-.4s3.9-2.5 10.6-.5zm114.7 9.8c-2.4 4.7-3.2 5.6-5.5 5.6-1.9.1-2.8.6-2.8 1.8 0 .9-.7 2.5-1.6 3.4-1.5 1.7-1.5 2 .1 4.5 1.1 1.8 1.4 2.9.7 3.6-1.5 1.5-.3 3.8 1.9 3.8 1.3 0 2.7 1.8 4.5 5.7 1.6 3.4 5.7 8.8 10.2 13.5l7.5 7.8-3 .6c-1.8.4-3.6 1.7-4.6 3.4-2.2 3.6-2.1 4.7.2 5.3 1.4.3 2.1 1.5 2.3 3.8.2 2.5 1 3.7 3 4.7 5 2.3 8.5-1.6 5.9-6.6-.4-.9-1.1-3.2-1.4-5-.9-4.7 1-4.1 7.1 2.1 5.6 5.7 6.5 8.6 4.9 15.3-.7 2.9-.5 3.4 2 4.6 1.5.8 3.8 2 4.9 2.8 2.9 1.8 5.8.6 5.1-2.1-.5-2-.5-2 1.5-.2 3.6 3.1 6.9 12.1 7.1 18.8.5 24-4.5 43.9-17 67.3-5.3 10.1-13.1 22-17.3 26.5-.4.4-3.4-2-6.6-5.3-6.8-7.2-9-8.5-16.3-9.8-6.7-1.2-14.9.8-18.7 4.7-5.3 5.2-10.4 18.2-10.4 26.2v5.7l-4 1.6c-5.7 2.3-6 2.1-6-2.8 0-4-.6-5.1-9.7-15.7-5.4-6.3-16-17.7-23.7-25.3l-14-14 4.9-1.6c2.7-.9 5.2-2.3 5.6-3.1s1.3-2.7 2-4.3l1.4-2.8 12 .7c9.5.6 12.4 1.1 14.4 2.6 1.3 1 3.4 1.9 4.6 1.9s3 .9 3.9 1.9c1 1.1 2.4 1.7 3.1 1.5 1.2-.5 2.8-4.3 3-7.2 0-.7 3.7-2.6 8.2-4.2 11.6-4 18-7.7 23.9-13.7 7.2-7.4 10.3-13.6 11.2-22.5l.7-7.3 6.5-.5c6-.5 6.5-.7 6.8-3 .2-1.4.8-3.5 1.4-4.8.9-1.8.9-2.8 0-4.2-.9-1.6-.9-2.1.5-2.8 3.4-1.9-.8-4.5-10.6-6.6l-5.5-1.1-1.7-5.5c-.9-3-3-8.5-4.7-12.1-2.5-5.6-2.7-6.7-1.5-7.5 1.3-.8 1.3-1.5 0-6-.8-2.8-2-6-2.5-7-.6-1.1-1.3-3-1.6-4.4s-1.9-3.3-3.6-4.3c0 0-2.333-.962-3.1-1.9-2.097-2.565-3.212-6.432-3.135-9.57.081-3.322 1.868-6.296 3.735-9.13 1.064-1.614 4-4.2 4-4.2 4.2-4.4 11.6-10.2 12.2-9.6.2.2-.9 2.9-2.4 6zm-96.1 144c1.9 2.4 2.1 4.1.9 7.2-.7 1.7-1 1.5-3.3-2-1.4-2.2-3.1-5.1-3.8-6.4-1.2-2.3-1.1-2.3 1.6-1.7 1.6.4 3.7 1.7 4.6 2.9zm87.074 117.078c-.772.575-2.141 1.278-3.374.622-.53-.282-.795-1.839-.516-2.351.321-.589 1.096-1.491 2.251-4.862 1.285-3.748-4.334-5.182-8.336-3.787-2.877 1.002-4.481 1.489-4.9.8-.981-1.612 1.1-2.4 8.9-3.7 14.6-2.4 17.6-4.2 16.3-9.6-.9-3.7-3.2-5.3-10.4-7.5-4.5-1.3-8.6-3.5-12.5-6.6-3.2-2.6-5.6-4.9-5.3-5.1.2-.3 2.1 0 4.1.7 4.2 1.4 6.7.7 5.9-1.5-.4-.8.1-1.7 1-2.1 3.8-1.5.2-8-3.8-6.8-3.1 1-6.5 3.6-7.1 5.6-1 2.8-2.2 2.1-4-2.4-1.7-4.3-1.5-8.4.7-14.3a30.44 30.44 0 0 1 1.4-3.3c.1-.2 1.6.4 3.3 1.2 4.5 2.4 6.8 2.1 7.4-1.1.3-1.5.1-3.8-.4-5.1-.8-2-1.4-2.3-3.9-1.7-5.2 1.2-2.6-4.1 3.1-6.1 5.4-2 6.7-1.8 6.2 1-.4 1.7.1 2.7 1.6 3.5 1.2.7 2.1 1.8 2.1 2.6 0 1.7 2.6 2 3.5.4.4-.5 1.8-1.5 3.2-2 1.9-.7 2.4-1.5 2-2.9-.8-3.3.8-2.3 6.4 3.8 7.4 7.9 9.4 14.2 8.4 26.4-.7 8.5-.6 9 1.9 12.2 3.1 4.2 3.1 4.2.6 4.9-1.5.4-2 1.4-2 3.6 0 3.8 2.7 5.5 6.5 4.1l2.9-1c.9 0 4.7 16.2 4.2 17.7-.6 1.5-.9 1.3-2.6-1.2-3.4-5.2-7.348-5.587-8.6-.8-.448 1.714-.617 3.15-.713 5.61-.18 4.598 1.048 4.809.568 6.854-.386 1.644-1.955 1.837-2.855 1.837-1.3 0-1.47-.592-.9-2.7.43-1.592 1.07-4.738.663-8.633-.5-4.779-4.663-2.967-5.863-1.467-.6.7-1.6 3-2.3 5.1-1.1 3.7-2.922 5.451-4.777 4.995-1.499-.369-2.9-1.781-1.782-4.186 1.478-3.179 4.439-6.495 2.351-7.259-5.629-2.058-8.946 5.358-10.517 6.527zm-97.065 25.086c-1.425 1.578-2.988 4.477-3.963 6.191-1.925 3.386-4.246 3.345-4.246 1.045 0-1.3 9.166-11.065 9.842-13.705.939-3.664-2.044-5.699-7.542-3.595-2.602.996-6.399 2.01-8.3 2.2-3.099.31-3.202.295-1-.5 1.398-.505 3.706-1.171 5.2-1.5 4.407-.971 7.9-4.7 8.1-8.5.2-2.9-1.79-3.767-3.281-5.086-1.206-1.066-2.925-1.599-4.388-2.018-1.445-.413-6.202-1.195-8.632-2.497-2.2-1.3-2.3-1.4-.5-1.4 3.36.268 6.64 1.648 9.402 2.391 1.585.427 2.463.787 4.798 1.109 2.9.4 4.9.2 7-1 1.5-.8 7.2-3.6 12.5-6.1 8.7-4 13.1-7.6 11.4-9.2-.3-.3.9-1.5 2.7-2.7s3.2-2.8 3.2-3.6.4-2.1.8-2.8c.9-1.3 0-5.2-1.2-5.2-.4 0-1.5-.6-2.5-1.3-1.7-1.3-1.7-1.6 1-5.4 2.6-3.6 6.3-7 10.3-9.3 1.9-1.1.6-4-1.7-4-1 0-3.7 1.6-5.9 3.5-3.4 2.9-4.9 3.5-8.8 3.5-6.8 0-11-2.4-19.6-11.2-8.2-8.5-11.5-15.4-10.3-21.7.5-2.4.3-3.1-.9-3.1-1.8 0-3.2 1.8-4 5.1-.9 3.7 4.9 15.2 11.2 22.1 6.1 6.7 13.9 11.9 19 12.7 3.6.6 4.8 2.4 3.3 4.9-2.4 3.7-35.4 5.5-50 2.7-11.3-2.2-30.6-8.8-36.8-12.7-10-6.3-23.1-20.9-21.7-24.4.3-.8.2-2.1-.1-2.9-.4-1.3-1-1.4-2.6-.5-1.1.6-2 1.7-2 2.5s-4.3 5.8-9.6 11.1c-8.5 8.5-9.9 9.5-12.3 8.9-3.4-.7-5.6 1.5-6.5 6.8-.6 3.4-.4 3.9 2.3 5.5 2.4 1.3 3.1 2.4 3.1 4.7.1 4.3 3.4 11.1 6.5 13.1 1.5.9 4.1 1.7 5.8 1.6 5-.2 9.7.8 9.7 2 0 .7-2 .9-6.4.4-6.7-.7-9.5.6-8.2 3.9.4 1.1-.1 1.5-1.8 1.5-4.1 0-5.6 1.1-5.6 4 0 2.7-.2 2.8-6.3 3.2-5 .3-7.2 1-11 3.6-5.2 3.5-5.7 3.7-5.7 2.3 0-.5.9-1.2 1.9-1.6 3-.9 8.3-6.3 7.6-7.5-.4-.6-1.8-1.5-3.1-2.1l-2.5-.9 2.3-3c1.5-2.1 3-3 5-3 3.2 0 6.8-3.1 6.8-6 0-2.7-4.5-5.4-9.1-5.5h-3.8l-1.6-6.5-2-8c-.3-1 .5-2 2.4-2.7s3.5-2.3 4.4-4.4c.8-1.9 2.1-4 3-4.8 1.9-1.5 2.3-5.6.7-6.6-.6-.4-.8-1.5-.5-2.5.4-1.2-.3-2.5-1.9-3.7l-2.5-2 2.5-4.1c1.4-2.3 2.6-4.2 2.7-4.2.6 0 0 5-.6 5.6-1.2 1.2.4 2.4 3.2 2.4 3.4 0 5.1-1.7 5.1-4.9 0-3.9-1.4-5.4-4.3-4.9-2.4.5-2.4.4 1.1-4.6l5.2-7.1c1.8-2.2 5-11.6 5-14.7 0-1.2.5-1.8 1.3-1.5.6.2 1.1 1 .9 1.7-.1.7 0 2.1.4 3.2.8 2.7 6.7 2.2 7.2-.7.2-1.1 1.1-2.8 1.9-3.7 1.4-1.6 1.4-1.9-.8-3.7-2.9-2.5-3.9-2.5-7.5-.6-2.9 1.5-2.9 1.5-3.4-1.8-.3-1.7-.1-3.4.3-3.6.5-.2 3.9.6 7.5 1.7 3.7 1.2 11.4 3.1 17.2 4.3 14.9 3 33 2.3 48-2 9.8-2.8 25.7-8.6 29.7-11 1-.6 1.9-1.1 1.9-1.1.1 0 1.4 2.5 2.9 5.5 4.3 9 13.9 21 26.9 33.9 6.7 6.7 13.8 14.1 15.8 16.6 3.3 4.1 3.6 4.9 2.9 8.2-1 4.3-.5 5.3 3.2 6.7 3.9 1.5 4.7 1.4 4.7-.7.1-1.4.4-1.3 2 .7 2 2.4 2.5 7.2 1.1 12.1-.7 2.4-.7 2.4-1.3.3-.5-1.8-1.3-2.1-5.2-2.1-3.8 0-4.6.3-4.6 1.8 0 1-.4 2.2-1 2.5-1.9 1.2-1 4.5 1.4 5.5 1.3.5 2.7 1.4 3.1 1.9.3.6 1.5 1.1 2.6 1.1 2.3 0 2.3-.6.3 6.1-2.6 8.8-6 14.9-14.8 26.5-3.5 4.7-4.3 5.2-8.7 5.8-5.7.8-8.1 2.8-7.7 6.5.2 1.9 1 2.7 2.7 2.9 1.3.2 2.7-.2 3.1-.9 1.4-2.1 3.6-.3 6.6 5.5 2.2 4.3 2.6 5.8 1.7 6.7-1.6 1.6-3.8-.2-6.3-5.2-2.2-4.3-4-5.2-7.5-3.9-1.9.7-2.5 1.7-2.5 4 0 4.5-2 11.8-3.6 13.1-1.1.9-1.4.7-1.4-1.2 0-1.3.5-4.3 1-6.7 1.7-7.4-2.047-13.287-7.184-8.641-.562.508-4.231 3.382-5.607 4.905zM172.225 58.196c-5.7 2.6-12.4 8.1-12.4 10.1 0 2.9 2.2 2.5 6.2-1 5.1-4.7 11.7-7.6 16.2-7.3 4.2.2 5.3-.6 3.6-2.7-1.8-2.2-7.7-1.8-13.6.9zm-90.4 8.6c0 3.3 1.6 3.8 5.1 1.9 2-1 2-1.1.3-3-2.7-3-5.4-2.5-5.4 1.1z"/><path d="M171.325 67.396c-5.2 3.5-7 5.9-9.6 12.7-3.6 9.5-2.3 21.1 2.8 25.9 3.9 3.6 6.6 4.8 12.6 5.8 7.9 1.2 13.9-.7 19.8-6.6 8.4-8.3 9.8-17.6 4.2-29.2-3.5-7.4-10-11.2-19.4-11.2-5.5 0-7.3.4-10.4 2.6zm21.3 4c3.2 2.1 7.2 11 7.1 15.9l-.1 4-1.6-5.5c-1.2-4.3-2.9-6.8-7.4-11.4-5.2-5.2-5.6-5.8-3.1-5.2 1.5.4 3.8 1.4 5.1 2.2zm-15.8 11.8c0 1.8-2.7 3.9-4 3.1-.5-.3-1-1.5-1-2.6 0-1.4.7-1.9 2.5-1.9 1.5 0 2.5.6 2.5 1.4zm-120.3-14c-4.7 1.3-8.7 4-8.7 5.9 0 .6.7 1.8 1.5 2.7 1.4 1.6 1.2 2-2.1 4.5-2.2 1.7-4.7 5-6.1 8.2-2.2 4.9-2.5 6.5-2.1 14.2.6 13.8 4.6 18.5 16.6 19.7 8.2.9 14-1.3 18.6-6.9 5-6.3 6.8-10.5 7.3-17.2.4-5.1.1-6.8-2.4-11.5-1.7-3.4-4.5-6.8-7.2-8.8-4.2-3.2-4.8-3.3-11.7-3-6.8.3-7.2.2-5.7-1.4 3.3-3.7 16.1-3.1 19.4.9 1.8 2.1 4.1 1.6 3.7-1-.2-1.5-1.7-2.9-4.8-4.4-6.1-2.9-10.6-3.5-16.3-1.9zm-4.9 16.3c-3.3 4-6.3 10.1-7.4 15.3l-1.2 5.5-.1-5.1c-.1-6.1 1.7-10.9 5.5-14.7 2.9-3 5.6-3.8 3.2-1zm18.3 7.6c-.9 2.5-4.6 3.5-5.4 1.4-.7-1.9.4-3.4 2.8-3.9 2.9-.6 3.5 0 2.6 2.5zm52.7-22.6c-2.2.3-2.9 1.1-3.4 3.9-.3 1.9-.1 4.7.6 6.3 1.7 4.2 8 5.4 8 1.5 0-.8.5-1.4 1-1.4.6 0 1-.6 1-1.4s.7-1.6 1.5-2c.8-.3 1.5-1 1.5-1.6 0-1.6-4.7-6-6.2-5.9l-4 .6zm-26.6 12.9c-2.8 2-2.8 3.3.4 6.7 2.7 2.9 4.4 2.8 4.4-.4 0-1 .7-1.9 1.5-1.9 1.8 0 1.9-1.4.5-4.1-1.3-2.3-3.8-2.4-6.8-.3zm24.8 12.5c-15.7 1.7-32 7.6-32 11.5 0 2 1 1.8 10.4-2.1 9.5-3.9 18.2-5.5 30.6-5.4 7.7 0 10.3.3 19.3 2.5 2.2.5 2.7.3 2.7-1.3 0-1.1-1.1-2.5-2.5-3.1-4.9-2.2-18.3-3.2-28.5-2.1zm18.2 15.5c-2.6 1.8-2.8 3.7-.6 5.8 3.1 3.2 9.4 1.5 9.4-2.5 0-1.8-3.5-4.9-5.5-4.9-.6 0-2.1.7-3.3 1.6zm-41.4 2.5c-3.7 2.1-.8 6.9 4.2 6.9 3.8 0 5.5-2.9 3.4-5.8-1.6-2.3-4.8-2.8-7.6-1.1zm97.7 11.7c-2.8 1-8.1 4.3-12 7.5-8.8 7.3-12 8.2-25.5 7.1-5.8-.5-15.7-.8-22-.8-10.5.1-12.5.5-22.5 3.9-13.6 4.6-21.3 4.8-39 1.1-13.5-2.9-19.7-3.2-27-1.2-6.6 1.7-9.5 3.3-9.5 5.1 0 1.9 2.3 1.9 6 0 1.6-.8 5.6-1.8 8.9-2.1 5.8-.6 6.1-.5 12.3 3.6 8.5 5.7 27.2 14.5 35 16.6 7.5 1.9 30.8 2.1 36.6.3 13.1-4.2 25.6-11.2 36.8-20.7 9.5-8 21.6-16.2 25.4-17.2 2.3-.6 5.4-.8 7-.5 3.2.7 4.8-.9 3-3-1.6-2-7.3-1.8-13.5.3zm-50.9 29.8c1.9.9 3.6 2 3.9 2.4.2.4-3.9 2-9.2 3.5-8.1 2.3-11.6 2.7-21.8 2.7-6.7.1-12.9-.3-13.9-.9-1.5-.8-1.4-1.1.8-3.2 1.6-1.5 4.4-2.5 8.7-3.2l12.4-1.8c9.6-1.4 15.5-1.2 19.1.5zm-113.5-27.7c-3.9 5.4-2.2 9.1 4.1 9.1 2.8 0 3.8-.4 3.8-1.6 0-2.2-3.9-10.4-5-10.4-.5 0-1.8 1.3-2.9 2.9zm296.9 33.7c-1.6 4.1-1.2 5.7 2.3 8.6 4 3.5 7.2 3.8 6.4.6-.4-1.2-.2-2.7.4-3.4.7-.8.5-2.4-.5-4.8-1.3-3-2-3.6-4.6-3.6-2.4 0-3.3.6-4 2.6zm-19.3 13.1c-1.7 1.6-.4 3.2 3.4 3.8 5 .9 6.1-.1 3-2.6-2.3-1.9-5.2-2.5-6.4-1.2zm17.3 5.8c-1 1.2-1 2.5-.1 5.8.6 2.3 1.2 5.5 1.3 7.2.3 2.7.7 3 4.2 3.3 2.1.2 4.3-.1 4.7-.5.9-.9-.9-7.8-3.7-14.1-1.6-3.5-4.3-4.2-6.4-1.7zm-23.6.6c-3.8 1.1-5.2 2.6-6 6.6-.5 2.8-.3 3.1 4 4.7 6.6 2.5 7.9 2 8.2-3.3.2-4.6-1-9.2-2.3-9-.5 0-2.2.5-3.9 1zm-7.5 21c-1.7 3.3-2.2 6.1-2.2 12.1 0 4.4.5 8.4 1.1 9s2.5.8 4.6.4c2.7-.5 3.7-1.3 4.1-3.1l1-5c.4-1.8 1.2-2.5 2.8-2.5 3.2-.1 5.7-2.3 5.7-5.1 0-3.9-3.6-8.9-6.4-8.9-1.3 0-3.7-.3-5.4-.6-2.8-.6-3.2-.3-5.3 3.7zm-19.1 8.6c-1.2.3-1.6 1.5-1.5 4.6.2 4 .4 4.2 3.2 4.2 2.7 0 3-.4 3.6-4 .4-2.2.5-4.3.2-4.8-.4-.7-2.7-.8-5.5 0zm-53.8 5.2c-1.5 3-1.2 6.6.8 8.3 3.3 2.9 8 5.1 9.5 4.5 1.4-.5 1.3-1.2-.8-5.5-1.3-2.7-2.3-5.7-2.2-6.7.3-2.8-5.8-3.2-7.3-.6zm30.2 3.2c-4.2 1.2-5.1 3.6-2.3 5.5 1.2.9 2.1 2.6 2.1 4 0 3.6 1.4 5.7 5.8 8.8 4.1 2.8 6.7 2.7 7.7-.4.6-1.9-2-7-3.6-7-.5 0-.9-.8-.9-1.8 0-3.1-2.8-9.7-4.2-9.9-.7-.1-2.8.3-4.6.8zm-69.6 5.6c-1.4 2.1-2.6 4.3-2.6 4.9 0 1.6 4.4 5.4 6.3 5.4 2.6 0 5.8-5.9 5.5-10-.3-3.1-.6-3.5-3.5-3.8-2.7-.3-3.5.2-5.7 3.5zm-104 9.9c-1.6 4.3.8 13.4 3.6 13.4 1.1 0 1.8-.7 1.8-2s.7-2 1.8-2c4.6 0 5.8-6.7 1.7-9.4-3.1-2.1-8.1-2.1-8.9 0zm131 7.6c-1.6 2.3-2.1 8.3-1 11.2.4.9 1.8 1.6 3.4 1.6 1.9 0 2.9.6 3.3 2 .9 3.3 4.1 2.4 6.5-1.9 1.2-2.1 2.2-4.4 2.2-5.1 0-1.8-9.1-10-11.1-10-1 0-2.5 1-3.3 2.2zm-14.6 7.2c0 4 1.1 5 4.6 4.2 2.9-.8 3.2-3.6.6-5.9-3.1-2.9-5.2-2.2-5.2 1.7zm-113 8.6c-.9 1.8-.8 2.5.6 4.1.9 1 2.6 1.9 3.6 1.9 1.6 0 1.9-.6 1.6-3.8-.2-2.9-.8-3.8-2.5-4-1.4-.2-2.6.4-3.3 1.8zm126 5.9c-1.4.4-2.5 1.2-2.4 1.9s.2 2.5.3 4.2l.1 2.9 6.3-.3c7.3-.3 8.7-.9 8.7-3.7 0-4.7-5.9-7-13-5zm18 46c-2.1 4.1-.6 8.1 3.2 8.1 2.6 0 4.5-4.4 2.8-6.5-2.6-3.1-4.8-3.7-6-1.6zm-18.9 11.5c-2.2 2.3-2.2 2.5-.6 5.6 1.1 2.1 2.1 3 3.1 2.6.9-.3 2-.6 2.5-.6 1.2 0 4.1-7.1 3.5-8.7-.9-2.2-6.1-1.5-8.5 1.1zm-13.4 2.2c-2.6 2.6 2.4 10.3 5.8 9 1.2-.4 1.5-1.7 1.3-4.8-.3-4-.5-4.3-3.3-4.6-1.7-.2-3.4 0-3.8.4zm102.3-62.7c-.5 1.1-1 3.3-1 5 0 2.3.5 3.1 1.8 3.1 2.2 0 5.8-3.9 5.6-6l-.3-2.8c-.2-1.9-4.9-1.4-6.1.7zm-3.4 15.6c-2.9 4.5.3 5.9 6.3 2.9 3.1-1.5 3.1-1.7 1.5-3.5-2.4-2.7-5.9-2.4-7.8.6zm10.8 7c-.8 2.1.3 4.8 1.9 4.3 1.9-.7 2.2-5.8.2-5.8-.8 0-1.8.7-2.1 1.5zm-16.9 1.8c-1.7 1.3-1.7 1.5.5 4.5 1.3 1.8 2.9 3.2 3.6 3.2 1.5 0 2.5-2.5 1.8-4.4-.3-.8 0-1.7.5-2.1.6-.3.9-1.1.6-1.6-.9-1.3-4.8-1.1-7 .4z"/></svg>