<?xml version="1.0" encoding="UTF-8" standalone="no"?>
<svg
   version="1.0"
   width="271.43671pt"
   height="283.46457pt"
   viewBox="0 0 271.4367 283.46457"
   preserveAspectRatio="xMidYMid meet"
   id="svg3718"
   sodipodi:docname="GeKKoN_logo.svg"
   inkscape:version="1.1.2 (b8e25be833, 2022-02-05)"
   xmlns:inkscape="http://www.inkscape.org/namespaces/inkscape"
   xmlns:sodipodi="http://sodipodi.sourceforge.net/DTD/sodipodi-0.dtd"
   xmlns="http://www.w3.org/2000/svg"
   xmlns:svg="http://www.w3.org/2000/svg">
  <defs
     id="defs3722" />
  <sodipodi:namedview
     id="namedview3720"
     pagecolor="#747474"
     bordercolor="#666666"
     borderopacity="1.0"
     inkscape:showpageshadow="2"
     inkscape:pageopacity="0"
     inkscape:pagecheckerboard="0"
     inkscape:deskcolor="#d1d1d1"
     inkscape:document-units="pt"
     showgrid="false"
     inkscape:zoom="1"
     inkscape:cx="154.5"
     inkscape:cy="246.99999"
     inkscape:window-width="1920"
     inkscape:window-height="1057"
     inkscape:window-x="-8"
     inkscape:window-y="-8"
     inkscape:window-maximized="1"
     inkscape:current-layer="layer3"
     inkscape:pageshadow="2"
     inkscape:snap-bbox="true"
     inkscape:snap-bbox-midpoints="true"
     inkscape:snap-nodes="false" />
  <g
     inkscape:groupmode="layer"
     id="layer3"
     inkscape:label="tlo"
     style="display:inline"
     transform="translate(-8.6461867,-12.351695)">
    <rect
       style="fill:#000000;fill-opacity:1;stroke-width:0.751177;stroke-linecap:round;stroke-linejoin:round;paint-order:stroke markers fill"
       id="rect976"
       width="691.9693"
       height="530.04089"
       x="-201.62012"
       y="-76.811462" />
  </g>
  <g
     inkscape:groupmode="layer"
     id="layer1"
     inkscape:label="gekon"
     style="display:inline"
     transform="translate(-8.0286016,-31.496823)"
     sodipodi:insensitive="true">
    <g
       id="g1711"
       transform="translate(-0.61758476,19.145128)">
      <path
         d="M 84.241266,13.042359 C 76.52943,13.736424 61.10576,17.129632 57.635434,18.903354 47.764283,23.916047 36.736359,33.324486 29.024523,43.42699 19.230492,56.228637 15.451693,63.015052 11.441539,75.045515 9.4364618,80.983628 9.05087,83.528534 8.7423966,92.397144 8.2796865,104.27337 9.4364618,112.75639 13.292379,127.1004 c 3.62114,9.80545 5.907847,11.27181 10.179623,16.58045 6.632178,6.47794 8.86861,8.25166 14.729605,11.02792 3.855918,1.85084 9.871149,4.16439 13.495714,5.08982 4.704219,1.23389 6.477941,2.00507 6.323704,2.85337 -0.154236,0.61695 -0.46271,2.23644 -0.694065,3.54745 -0.385591,2.39067 -0.308473,2.5449 2.005077,2.5449 3.084735,0 6.709297,1.85084 7.866072,4.01016 1.465249,2.69914 1.079657,9.17708 -0.694065,12.95588 -2.77626,5.78388 -6.940651,12.57029 -10.796569,17.27451 -2.159314,2.69915 -5.089813,8.32878 -6.709298,12.95589 -1.619486,4.6271 -1.465249,11.64487 0.46271,18.43128 0.848302,3.16185 1.773722,6.55506 1.927959,7.63472 0.231356,1.07966 0.53983,2.69914 0.771185,3.62456 0.154236,1.00254 0.848302,1.77372 1.465248,1.77372 3.161853,0 -0.308473,4.1644 -5.475404,6.63218 -4.935575,2.31355 -7.172007,5.08981 -5.706758,6.86354 1.233893,1.54236 3.470326,1.46524 6.015231,-0.23136 l 2.082196,-1.31101 -1.773722,2.23643 c -2.313551,3.00762 -2.236433,5.70676 0.231355,6.63218 2.236432,0.8483 4.781339,0.0771 8.328783,-2.62202 2.853379,-2.0822 7.866072,-3.85592 9.022848,-3.16186 0.385591,0.23136 0.771183,1.07966 0.771183,1.77372 0,2.46779 2.236432,4.78134 4.627101,4.78134 3.316089,0 4.164391,-2.15931 2.622024,-6.3237 -2.159314,-5.93812 -2.159314,-5.93812 -0.46271,-5.47541 0.848302,0.15424 2.544906,1.38814 3.701681,2.62203 2.313551,2.39067 5.706758,3.00761 7.172007,1.15677 1.079658,-1.23389 0.46271,-3.31609 -1.696604,-5.70675 l -1.542367,-1.69661 h 2.622024 c 2.699144,0 6.092352,-2.23643 6.092352,-3.93303 0,-0.46271 -1.002539,-1.85084 -2.236433,-3.08474 -2.005077,-1.92796 -2.85338,-2.23643 -6.786416,-2.23643 -5.475403,0 -6.786415,-0.8483 -8.328782,-5.32117 -2.313551,-6.78641 -1.233894,-10.1025 5.244048,-15.9635 2.236432,-2.08219 5.321166,-5.24404 6.709296,-7.09488 l 2.544908,-3.23897 2.853379,4.39574 c 3.084734,4.78134 8.251663,9.56268 14.421131,13.18724 5.01269,3.00762 17.35163,7.5576 25.60329,9.48556 8.63726,2.00507 24.06093,2.77626 32.54395,1.54236 3.54744,-0.53982 7.09489,-1.00253 7.94319,-1.07965 1.23389,-0.15424 1.38813,0.46271 1.54237,4.85845 0.0771,5.62964 1.23389,4.6271 -11.49064,10.56522 l -7.71183,3.54744 -4.78134,-1.61948 c -6.09235,-2.15932 -9.94827,-2.23644 -11.02793,-0.15424 -2.00507,3.7788 1.54237,7.01777 8.7915,8.02031 1.6966,0.23135 3.54744,0.92542 4.16439,1.54237 0.92542,0.92542 0.8483,1.23389 -0.92542,2.39066 -1.07966,0.77119 -3.70168,1.54237 -5.70676,1.77373 -5.861,0.61694 -8.09743,3.7788 -4.78134,7.09489 1.23389,1.23389 2.15931,1.38813 5.55252,1.00253 2.23643,-0.23135 5.24405,-0.92542 6.7093,-1.46524 2.62202,-1.07966 2.62202,-1.07966 -1.31101,3.08473 -2.46779,2.62202 -4.01016,4.93557 -4.01016,6.01523 0,2.69914 2.0822,5.24405 4.31863,5.24405 2.0822,0 3.31609,-1.15678 8.09743,-7.5576 3.23897,-4.24151 5.08981,-5.24405 4.24151,-2.31355 -1.92796,6.86353 -1.07966,11.56775 2.23643,13.11012 1.61948,0.69406 2.15931,0.61695 3.47033,-0.53983 1.6966,-1.54237 3.62456,-6.40082 4.16439,-10.41098 0.15423,-1.46525 0.38559,-2.85338 0.38559,-3.08473 0.0771,-0.23136 0.77118,1.07966 1.61948,2.77626 1.69661,3.39321 5.62964,6.09235 8.09743,5.62964 0.8483,-0.23136 1.92796,-1.54237 2.54491,-3.23897 1.07965,-2.69914 1.00253,-3.08474 -1.31102,-7.86607 -1.38813,-2.77626 -2.23643,-5.47541 -1.92795,-5.93812 0.30847,-0.53982 2.93049,-4.24151 5.93811,-8.17454 5.93811,-8.02031 9.87115,-16.34909 12.41605,-26.52872 0.81369,-3.22812 1.31206,-5.84112 1.58682,-6.94194 0.81306,-0.44373 1.45508,-0.44492 4.3513,-1.46396 5.55252,-1.85084 5.70675,-1.85084 6.86353,0.92542 1.54237,3.70169 10.02539,10.25675 15.26943,11.79911 5.16693,1.54237 6.55506,2.23643 6.86354,3.31609 0.38559,1.15678 -1.15678,1.61949 -9.25421,2.9305 -8.17454,1.31101 -10.79656,3.08473 -10.41097,6.94065 0.30847,3.00762 3.7788,4.85846 6.70929,3.70168 5.47541,-2.23643 5.24405,-2.23643 3.39321,-0.0771 -2.15931,2.31355 -2.23643,4.47287 -0.23135,6.63218 1.85084,2.00508 4.39574,2.15932 6.70929,0.53983 1.46525,-1.07966 1.69661,-1.00254 2.54491,1.23389 1.38813,3.31609 3.23897,4.08728 6.7093,2.62203 2.5449,-1.07966 2.93049,-1.07966 3.47032,0 1.23389,2.08219 3.62456,2.9305 6.01523,1.92796 3.00762,-1.2339 4.16439,-3.85592 3.54745,-8.17455 l -0.46271,-3.70168 1.77372,1.6966 c 3.47032,3.23898 8.25166,1.31102 8.25166,-3.23897 0,-2.39067 -3.70168,-15.73214 -4.70422,-16.96603 -0.38559,-0.46271 -2.31355,-3.00762 -4.24151,-5.70676 l -3.54744,-4.78134 0.92542,-3.7788 c 0.8483,-3.54744 0.30847,-9.48556 -1.07966,-13.18724 -0.30847,-0.69406 0.77119,-2.69914 2.69915,-5.01269 4.93557,-5.93811 7.01777,-9.2542 12.95588,-20.28213 7.63472,-14.34401 12.26182,-28.9965 12.95588,-41.1812 1.15678,-19.7423 0.0771,-22.67279 -13.64995,-37.63375 C 262.46178,106.20133 255.59825,99.106441 250.73979,94.402222 240.2517,84.145481 237.55255,79.98109 237.55255,73.811621 c 0,-7.94319 7.86607,-20.667718 13.72707,-22.210085 2.15931,-0.616947 3.93304,-2.776261 3.00762,-3.701681 -1.77373,-1.696604 -16.88892,4.704219 -23.13551,9.871149 -4.16439,3.470326 -8.17455,9.871149 -8.71437,14.03554 -0.84831,6.246587 1.46524,15.115197 6.86353,26.760069 5.93811,12.647407 7.48048,17.737217 8.4059,28.379557 1.38813,15.5779 -0.61695,23.44398 -7.71184,30.53886 -4.31862,4.39575 -10.02538,7.40337 -19.20247,10.25675 -6.3237,1.92795 -7.63471,2.08219 -19.89653,1.92795 -14.03554,-0.0771 -27.60837,-1.54236 -32.00412,-3.3932 l -2.69914,-1.15678 2.23643,-1.07966 c 2.0822,-1.00253 2.15932,-1.23389 1.77372,-5.01269 l -0.38559,-4.01015 5.24405,-3.54745 c 8.79149,-6.01523 17.42875,-15.73214 22.90415,-25.91176 6.94065,-12.87877 8.25167,-18.35417 7.71184,-32.00412 -0.38559,-8.868611 -0.8483,-12.261818 -2.85338,-19.125352 C 189.96416,62.786678 179.2788,43.971871 170.84518,35.638037 164.52147,29.237213 163.05622,28.234675 155.03592,24.301639 143.6224,18.749117 131.20634,14.738963 121.48943,13.350833 113.23777,12.116939 95.886138,12.039821 84.241266,13.042359 Z"
         id="path3650-5"
         style="fill:#ffffff;fill-opacity:1;stroke:#ffffff;stroke-width:2.83465;stroke-miterlimit:4;stroke-dasharray:none;stroke-opacity:1"
         sodipodi:nodetypes="cccccccccccscccscccscccccccsssccccccsscscccccccccccccccsccscccssccccccsccccccccscccccccccccccccsccccccccccscccccccccccccccccccccc" />
      <g
         transform="matrix(0.07711835,0,0,-0.07711835,-8.4549963,364.62493)"
         fill="#000000"
         stroke="none"
         id="g3716"
         style="fill:#000000;fill-opacity:1;stroke-width:1.29708">
        <path
           d="M 1202,4559 C 1102,4550 902,4506 857,4483 729,4418 586,4296 486,4165 359,3999 310,3911 258,3755 c -26,-77 -31,-110 -35,-225 -6,-154 9,-264 59,-450 0,0 26.63325,-73.3695 46.59759,-106.8942 C 352.21296,2933.4501 414,2865 414,2865 c 86,-84 115,-107 191,-143 50,-24 128,-54 175,-66 61,-16 84,-26 82,-37 -2,-8 -6,-29 -9,-46 -5,-31 -4,-33 26,-33 40,0 87,-24 102,-52 19,-35 14,-119 -9,-168 -36,-75 -90,-163 -140,-224 -28,-35 -66,-108 -87,-168 -21,-60 -19,-151 6,-239 11,-41 23,-85 25,-99 3,-14 7,-35 10,-47 2,-13 11,-23 19,-23 41,0 -4,-54 -71,-86 -64,-30 -93,-66 -74,-89 16,-20 45,-19 78,3 l 27,17 -23,-29 c -30,-39 -29,-74 3,-86 29,-11 62,-1 108,34 37,27 102,50 117,41 5,-3 10,-14 10,-23 0,-32 29,-62 60,-62 43,0 54,28 34,82 -28,77 -28,77 -6,71 11,-2 33,-18 48,-34 30,-31 74,-39 93,-15 14,16 6,43 -22,74 l -20,22 h 34 c 35,0 79,29 79,51 0,6 -13,24 -29,40 -26,25 -37,29 -88,29 -71,0 -88,11 -108,69 -30,88 -16,131 68,207 29,27 69,68 87,92 l 33,42 37,-57 c 40,-62 107,-124 187,-171 65,-39 225,-98 332,-123 112,-26 312,-36 422,-20 46,7 92,13 103,14 16,2 18,-6 20,-63 1,-73 16,-60 -149,-137 l -100,-46 -62,21 c -79,28 -129,29 -143,2 -26,-49 20,-91 114,-104 22,-3 46,-12 54,-20 12,-12 11,-16 -12,-31 -14,-10 -48,-20 -74,-23 -76,-8 -105,-49 -62,-92 16,-16 28,-18 72,-13 29,3 68,12 87,19 34,14 34,14 -17,-40 -32,-34 -52,-64 -52,-78 0,-35 27,-68 56,-68 27,0 43,15 105,98 42,55 66,68 55,30 -25,-89 -14,-150 29,-170 21,-9 28,-8 45,7 22,20 47,83 54,135 2,19 5,37 5,40 1,3 10,-14 21,-36 22,-44 73,-79 105,-73 11,3 25,20 33,42 14,35 13,40 -17,102 -18,36 -29,71 -25,77 4,7 38,55 77,106 77,104 128,212 161,344 l 23,90 54,19 c 72,24 74,24 89,-12 20,-48 130,-133 198,-153 67,-20 85,-29 89,-43 5,-15 -15,-21 -120,-38 -106,-17 -140,-40 -135,-90 4,-39 49,-63 87,-48 71,29 68,29 44,1 -28,-30 -29,-58 -3,-86 24,-26 57,-28 87,-7 19,14 22,13 33,-16 18,-43 42,-53 87,-34 33,14 38,14 45,0 16,-27 47,-38 78,-25 39,16 54,50 46,106 l -6,48 23,-22 c 45,-42 107,-17 107,42 0,31 -48,204 -61,220 -5,6 -30,39 -55,74 l -46,62 12,49 c 11,46 4,123 -14,171 -4,9 10,35 35,65 64,77 91,120 168,263 99,186 159,376 168,534 15,256 1,294 -177,488 -47,51 -136,143 -199,204 -136,133 -171,187 -171,267 0,103 102,268 178,288 28,8 51,36 39,48 -23,22 -219,-61 -300,-128 -54,-45 -106,-128 -113,-182 -11,-81 19,-196 89,-347 77,-164 97,-230 109,-368 18,-202 -8,-304 -100,-396 -56,-57 -130,-96 -249,-133 -82,-25 -99,-27 -258,-25 -182,1 -358,20 -415,44 l -35,15 29,14 c 27,13 28,16 23,65 l -5,52 68,46 c 114,78 226,204 297,336 90,167 107,238 100,415 -5,115 -11,159 -37,248 -34,121 -35,123 -129,292 -54,97 -83,137 -156,211 -82,83 -101,96 -205,147 -148,72 -309,124 -435,142 -107,16 -332,17 -483,4 z m 468,-50 c 172,-21 419,-123 545,-225 107,-86 132,-112 189,-199 128,-193 182,-347 201,-575 10,-116 -12,-200 -94,-366 -67,-136 -73,-144 -169,-235 -104,-99 -162,-141 -162,-117 0,8 27,45 61,82 75,85 205,280 235,355 30,71 30,98 -1,195 -14,43 -25,83 -25,88 0,20 -55,149 -127,295 -66,135 -80,157 -131,201 -81,71 -155,95 -265,86 -72,-6 -187,-39 -222,-64 -5,-4 -51,-20 -102,-34 -120,-35 -244,-33 -413,8 -165,40 -232,43 -335,11 -96,-29 -198,-98 -219,-149 -7,-17 -22,-51 -34,-76 -26,-58 -59,-160 -73,-230 -6,-30 -22,-85 -35,-123 -40,-113 -64,-222 -64,-289 0,-60 3,-68 43,-124 66,-90 84,-106 343,-312 l 29,-23 -33,5 c -93,15 -266,109 -350,189 -64,62 -117,175 -167,357 -21,77 -30,287 -17,387 21,153 106,326 246,503 84,105 212,229 280,269 67,40 215,87 336,106 104,16 415,19 530,4 z m 376,-474 c 82,-24 152,-84 196,-168 37,-70 148,-312 148,-324 0,-3 -7,-3 -15,0 -17,7 -65,-47 -65,-74 0,-11 13,-25 31,-34 37,-20 63,-13 54,14 -3,11 -2,22 4,25 21,14 57,-149 43,-199 l -8,-30 -7,31 c -9,46 -67,52 -67,8 0,-7 -12,-21 -27,-32 l -27,-20 42,-28 c 23,-16 41,-34 42,-39 0,-6 -11,-27 -25,-48 -22,-32 -29,-36 -46,-26 -11,5 -33,7 -50,4 -27,-6 -29,-10 -29,-51 0,-25 5,-54 10,-64 9,-17 0,-31 -60,-94 -39,-41 -71,-78 -70,-81 1,-12 -245,-126 -314,-145 -101,-27 -224,-42 -350,-42 -161,1 -232,12 -436,73 -58,17 -116,33 -130,37 -14,3 -54,28 -90,55 -112,86 -112,87 -107,134 3,32 0,47 -15,62 -22,25 -34,26 -72,6 -15,-8 -29,-15 -30,-15 -4,0 -76,98 -76,104 0,3 9,6 20,6 32,0 25,38 -11,58 -30,17 -31,18 -25,79 3,35 17,95 32,135 14,40 36,114 48,163 60,236 106,340 172,386 24,17 65,39 89,50 42,19 46,19 70,3 24,-15 57,-14 54,3 -6,33 1,36 79,29 135,-12 146,-16 146,-56 1,-25 7,-37 22,-45 12,-6 29,-17 38,-24 19,-16 28,-10 49,32 l 15,28 145,3 c 107,2 144,0 141,-9 -8,-19 35,-65 61,-65 29,0 45,19 44,56 -2,60 5,68 84,102 72,31 78,32 99,18 30,-22 55,-20 68,4 13,24 39,25 106,5 z m 1147,-98 c -24,-47 -32,-56 -55,-56 -19,-1 -28,-6 -28,-18 0,-9 -7,-25 -16,-34 -15,-17 -15,-20 1,-45 11,-18 14,-29 7,-36 -15,-15 -3,-38 19,-38 13,0 27,-18 45,-57 16,-34 57,-88 102,-135 l 75,-78 -30,-6 c -18,-4 -36,-17 -46,-34 -22,-36 -21,-47 2,-53 14,-3 21,-15 23,-38 2,-25 10,-37 30,-47 50,-23 85,16 59,66 -4,9 -11,32 -14,50 -9,47 10,41 71,-21 56,-57 65,-86 49,-153 -7,-29 -5,-34 20,-46 15,-8 38,-20 49,-28 29,-18 58,-6 51,21 -5,20 -5,20 15,2 36,-31 69,-121 71,-188 5,-240 -45,-439 -170,-673 -53,-101 -131,-220 -173,-265 -4,-4 -34,20 -66,53 -68,72 -90,85 -163,98 -67,12 -149,-8 -187,-47 -53,-52 -104,-182 -104,-262 v -57 l -40,-16 c -57,-23 -60,-21 -60,28 0,40 -6,51 -97,157 -54,63 -160,177 -237,253 l -140,140 49,16 c 27,9 52,23 56,31 4,8 13,27 20,43 l 14,28 120,-7 c 95,-6 124,-11 144,-26 13,-10 34,-19 46,-19 12,0 30,-9 39,-19 10,-11 24,-17 31,-15 12,5 28,43 30,72 0,7 37,26 82,42 116,40 180,77 239,137 72,74 103,136 112,225 l 7,73 65,5 c 60,5 65,7 68,30 2,14 8,35 14,48 9,18 9,28 0,42 -9,16 -9,21 5,28 34,19 -8,45 -106,66 l -55,11 -17,55 c -9,30 -30,85 -47,121 -25,56 -27,67 -15,75 13,8 13,15 0,60 -8,28 -20,60 -25,70 -6,11 -13,30 -16,44 -3,14 -19,33 -36,43 0,0 -23.3292,9.6166 -31,19 -20.971,25.6529 -32.1171,64.3188 -31.3532,95.7019 0.8088,33.2225 18.6773,62.9572 37.3532,91.2981 10.6381,16.1434 40,42 40,42 42,44 116,102 122,96 2,-2 -9,-29 -24,-60 z M 2232,2497 c 19,-24 21,-41 9,-72 -7,-17 -10,-15 -33,20 -14,22 -31,51 -38,64 -12,23 -11,23 16,17 16,-4 37,-17 46,-29 z m 870.7419,-1170.7783 c -7.7244,-5.7493 -21.4081,-12.7835 -33.7419,-6.2217 -5.297,2.8181 -7.9502,18.3907 -5.158,23.5097 3.2122,5.8891 10.955,14.9082 22.5143,48.6184 12.8514,37.478 -43.3384,51.8175 -83.3563,37.8719 -28.7664,-10.0246 -44.8081,-14.8868 -49,-8 -9.8103,16.117 11,24 89,37 146,24 176,42 163,96 -9,37 -32,53 -104,75 -45,13 -86,35 -125,66 -32,26 -56,49 -53,51 2,3 21,0 41,-7 42,-14 67,-7 59,15 -4,8 1,17 10,21 38,15 2,80 -38,68 -31,-10 -65,-36 -71,-56 -10,-28 -22,-21 -40,24 -17,43 -15,84 7,143 6,17 13,31 14,33 1,2 16,-4 33,-12 45,-24 68,-21 74,11 3,15 1,38 -4,51 -8,20 -14,23 -39,17 -52,-12 -26,41 31,61 54,20 67,18 62,-10 -4,-17 1,-27 16,-35 12,-7 21,-18 21,-26 0,-17 26,-20 35,-4 4,5 18,15 32,20 19,7 24,15 20,29 -8,33 8,23 64,-38 74,-79 94,-142 84,-264 -7,-85 -6,-90 19,-122 31,-42 31,-42 6,-49 -15,-4 -20,-14 -20,-36 0,-38 27,-55 65,-41 14,5 28,10 29,10 9,0 47,-162 42,-177 -6,-15 -9,-13 -26,12 -34,52 -73.4809,55.8672 -86,8 -4.4837,-17.1434 -6.1698,-31.4998 -7.133,-56.0952 -1.8006,-45.9763 10.4815,-48.0899 5.6835,-68.5378 C 3358.6932,1251.9282 3343,1250 3334,1250 c -13,0 -14.6983,5.9161 -9,27 4.303,15.9212 10.6983,47.3828 6.6261,86.3292 C 3326.6288,1411.1228 3285,1393 3273,1378 c -6,-7 -16,-30 -23,-51 -11,-37 -29.2206,-54.5139 -47.772,-49.9478 -14.9859,3.6885 -28.9993,17.8148 -17.8202,41.8577 14.782,31.7918 44.3853,64.9522 23.5084,72.5863 -56.2928,20.5848 -89.4564,-53.5757 -105.1743,-65.2745 z M 2132.094,1075.3578 c -14.2504,-15.7773 -29.8838,-44.7655 -39.633,-61.9106 C 2073.2086,979.58952 2050,980 2050,1003 c 0,13 91.655,110.6454 98.4203,137.0522 9.3867,36.639 -20.4368,56.9909 -75.4203,35.9478 -26.0165,-9.9569 -63.9898,-20.099 -83,-22 -30.9903,-3.099 -32.0178,-2.9509 -10,5 13.9823,5.0492 37.0613,11.7084 52,15 44.0651,9.7093 79,47 81,85 2,29 -17.8954,37.6737 -32.807,50.8592 -12.0596,10.6635 -29.2458,15.995 -43.8778,20.1751 -14.449,4.1278 -62.015,11.9504 -86.3152,24.9657 -22,13 -23,14 -5,14 33.5994,-2.6767 66.3955,-16.4786 94.0171,-23.9121 15.8518,-4.266 24.6337,-7.8673 47.9829,-11.0879 29,-4 49,-2 70,10 15,8 72,36 125,61 87,40 131,76 114,92 -3,3 9,15 27,27 18,12 32,28 32,36 0,8 4,21 8,28 9,13 0,52 -12,52 -4,0 -15,6 -25,13 -17,13 -17,16 10,54 26,36 63,70 103,93 19,11 6,40 -17,40 -10,0 -37,-16 -59,-35 -34,-29 -49,-35 -88,-35 -68,0 -110,24 -196,112 -82,85 -115,154 -103,217 5,24 3,31 -9,31 -18,0 -32,-18 -40,-51 -9,-37 49,-152 112,-221 61,-67 139,-119 190,-127 36,-6 48,-24 33,-49 -24,-37 -354,-55 -500,-27 -113,22 -306,88 -368,127 -100,63 -231,209 -217,244 3,8 2,21 -1,29 -4,13 -10,14 -26,5 -11,-6 -20,-17 -20,-25 0,-8 -43,-58 -96,-111 -85,-85 -99,-95 -123,-89 -34,7 -56,-15 -65,-68 -6,-34 -4,-39 23,-55 24,-13 31,-24 31,-47 1,-43 34,-111 65,-131 15,-9 41,-17 58,-16 50,2 97,-8 97,-20 0,-7 -20,-9 -64,-4 -67,7 -95,-6 -82,-39 4,-11 -1,-15 -18,-15 -41,0 -56,-11 -56,-40 0,-27 -2,-28 -63,-32 -50,-3 -72,-10 -110,-36 -52,-35 -57,-37 -57,-23 0,5 9,12 19,16 30,9 83,63 76,75 -4,6 -18,15 -31,21 l -25,9 23,30 c 15,21 30,30 50,30 32,0 68,31 68,60 0,27 -45,54 -91,55 h -38 l -16,65 -20,80 c -3,10 5,20 24,27 19,7 35,23 44,44 8,19 21,40 30,48 19,15 23,56 7,66 -6,4 -8,15 -5,25 4,12 -3,25 -19,37 l -25,20 25,41 c 14,23 26,42 27,42 6,0 0,-50 -6,-56 -12,-12 4,-24 32,-24 34,0 51,17 51,49 0,39 -14,54 -43,49 -24,-5 -24,-4 11,46 20,28 43,60 52,71 18,22 50,116 50,147 0,12 5,18 13,15 6,-2 11,-10 9,-17 -1,-7 0,-21 4,-32 8,-27 67,-22 72,7 2,11 11,28 19,37 14,16 14,19 -8,37 -29,25 -39,25 -75,6 -29,-15 -29,-15 -34,18 -3,17 -1,34 3,36 5,2 39,-6 75,-17 37,-12 114,-31 172,-43 149,-30 330,-23 480,20 98,28 257,86 297,110 10,6 19,11 19,11 1,0 14,-25 29,-55 43,-90 139,-210 269,-339 67,-67 138,-141 158,-166 33,-41 36,-49 29,-82 -10,-43 -5,-53 32,-67 39,-15 47,-14 47,7 1,14 4,13 20,-7 20,-24 25,-72 11,-121 -7,-24 -7,-24 -13,-3 -5,18 -13,21 -52,21 -38,0 -46,-3 -46,-18 0,-10 -4,-22 -10,-25 -19,-12 -10,-45 14,-55 13,-5 27,-14 31,-19 3,-6 15,-11 26,-11 23,0 23,6 3,-61 -26,-88 -60,-149 -148,-265 -35,-47 -43,-52 -87,-58 -57,-8 -81,-28 -77,-65 2,-19 10,-27 27,-29 13,-2 27,2 31,9 14,21 36,3 66,-55 22,-43 26,-58 17,-67 -16,-16 -38,2 -63,52 -22,43 -40,52 -75,39 -19,-7 -25,-17 -25,-40 0,-45 -20,-118 -36,-131 -11,-9 -14,-7 -14,12 0,13 5,43 10,67 17,74 -20.4705,132.8705 -71.8394,86.406 -5.6203,-5.0838 -42.3134,-33.8215 -56.0666,-49.0482 z"
           id="path3650"
           style="fill:#000000;fill-opacity:1;stroke-width:1.2967"
           sodipodi:nodetypes="ccccccscccccscccscccscccccccsssccccccsscscccccccccccccccsccscccssccccccsccccccccscccccccccccccccsccccccccccscccccccccccccccccccccccccccccscccscccccccscscscccccccccccccscsccccccscccccccscccccccccccsssccccccccccccccccscccscccsccssccccccccccccccccccccccsccsccccsccccscccccccccccccccccccscssscscccccccssssssccccccccccccscccccccscccccccscsccssssssccsssssssssssscssccsscccsscscccscsccscccccccccssccccccsccssccscccccssccccscccccccssssccssccccccccccccsccccccccccsscccscccccccsccscscss" />
        <path
           d="m 1944,3986 c -57,-26 -124,-81 -124,-101 0,-29 22,-25 62,10 51,47 117,76 162,73 42,-2 53,6 36,27 -18,22 -77,18 -136,-9 z"
           id="path3652"
           style="fill:#000000;fill-opacity:1;stroke-width:1.2967" />
        <path
           d="m 1040,3900 c 0,-33 16,-38 51,-19 20,10 20,11 3,30 -27,30 -54,25 -54,-11 z"
           id="path3654"
           style="fill:#000000;fill-opacity:1;stroke-width:1.2967" />
        <path
           d="m 1935,3894 c -52,-35 -70,-59 -96,-127 -36,-95 -23,-211 28,-259 39,-36 66,-48 126,-58 79,-12 139,7 198,66 84,83 98,176 42,292 -35,74 -100,112 -194,112 -55,0 -73,-4 -104,-26 z m 213,-40 c 32,-21 72,-110 71,-159 l -1,-40 -16,55 c -12,43 -29,68 -74,114 -52,52 -56,58 -31,52 15,-4 38,-14 51,-22 z m -158,-118 c 0,-18 -27,-39 -40,-31 -5,3 -10,15 -10,26 0,14 7,19 25,19 15,0 25,-6 25,-14 z"
           id="path3656"
           style="fill:#000000;fill-opacity:1;stroke-width:1.2967" />
        <path
           d="m 787,3876 c -47,-13 -87,-40 -87,-59 0,-6 7,-18 15,-27 14,-16 12,-20 -21,-45 -22,-17 -47,-50 -61,-82 -22,-49 -25,-65 -21,-142 6,-138 46,-185 166,-197 82,-9 140,13 186,69 50,63 68,105 73,172 4,51 1,68 -24,115 -17,34 -45,68 -72,88 -42,32 -48,33 -117,30 -68,-3 -72,-2 -57,14 33,37 161,31 194,-9 18,-21 41,-16 37,10 -2,15 -17,29 -48,44 -61,29 -106,35 -163,19 z m -49,-163 c -33,-40 -63,-101 -74,-153 l -12,-55 -1,51 c -1,61 17,109 55,147 29,30 56,38 32,10 z m 183,-76 c -9,-25 -46,-35 -54,-14 -7,19 4,34 28,39 29,6 35,0 26,-25 z"
           id="path3658"
           style="fill:#000000;fill-opacity:1;stroke-width:1.2967" />
        <path
           d="m 1448,3863 c -22,-3 -29,-11 -34,-39 -3,-19 -1,-47 6,-63 17,-42 80,-54 80,-15 0,8 5,14 10,14 6,0 10,6 10,14 0,8 7,16 15,20 8,3 15,10 15,16 0,16 -47,60 -62,59 -7,-1 -25,-4 -40,-6 z"
           id="path3660"
           style="fill:#000000;fill-opacity:1;stroke-width:1.2967" />
        <path
           d="m 1182,3734 c -28,-20 -28,-33 4,-67 27,-29 44,-28 44,4 0,10 7,19 15,19 18,0 19,14 5,41 -13,23 -38,24 -68,3 z"
           id="path3662"
           style="fill:#000000;fill-opacity:1;stroke-width:1.2967" />
        <path
           d="m 1430,3609 c -157,-17 -320,-76 -320,-115 0,-20 10,-18 104,21 95,39 182,55 306,54 77,0 103,-3 193,-25 22,-5 27,-3 27,13 0,11 -11,25 -25,31 -49,22 -183,32 -285,21 z"
           id="path3664"
           style="fill:#000000;fill-opacity:1;stroke-width:1.2967" />
        <path
           d="m 1612,3454 c -26,-18 -28,-37 -6,-58 31,-32 94,-15 94,25 0,18 -35,49 -55,49 -6,0 -21,-7 -33,-16 z"
           id="path3666"
           style="fill:#000000;fill-opacity:1;stroke-width:1.2967" />
        <path
           d="m 1198,3429 c -37,-21 -8,-69 42,-69 38,0 55,29 34,58 -16,23 -48,28 -76,11 z"
           id="path3668"
           style="fill:#000000;fill-opacity:1;stroke-width:1.2967" />
        <path
           d="m 2175,3312 c -28,-10 -81,-43 -120,-75 -88,-73 -120,-82 -255,-71 -58,5 -157,8 -220,8 -105,-1 -125,-5 -225,-39 -136,-46 -213,-48 -390,-11 -135,29 -197,32 -270,12 -66,-17 -95,-33 -95,-51 0,-19 23,-19 60,0 16,8 56,18 89,21 58,6 61,5 123,-36 85,-57 272,-145 350,-166 75,-19 308,-21 366,-3 131,42 256,112 368,207 95,80 216,162 254,172 23,6 54,8 70,5 32,-7 48,9 30,30 -16,20 -73,18 -135,-3 z m -509,-298 c 19,-9 36,-20 39,-24 2,-4 -39,-20 -92,-35 -81,-23 -116,-27 -218,-27 -67,-1 -129,3 -139,9 -15,8 -14,11 8,32 16,15 44,25 87,32 35,5 91,13 124,18 96,14 155,12 191,-5 z"
           id="path3670"
           style="fill:#000000;fill-opacity:1;stroke-width:1.2967" />
        <path
           d="m 531,3291 c -39,-54 -22,-91 41,-91 28,0 38,4 38,16 0,22 -39,104 -50,104 -5,0 -18,-13 -29,-29 z"
           id="path3672"
           style="fill:#000000;fill-opacity:1;stroke-width:1.2967" />
        <path
           d="m 3500,2954 c -16,-41 -12,-57 23,-86 40,-35 72,-38 64,-6 -4,12 -2,27 4,34 7,8 5,24 -5,48 -13,30 -20,36 -46,36 -24,0 -33,-6 -40,-26 z"
           id="path3674"
           style="fill:#000000;fill-opacity:1;stroke-width:1.2967" />
        <path
           d="m 3307,2823 c -17,-16 -4,-32 34,-38 50,-9 61,1 30,26 -23,19 -52,25 -64,12 z"
           id="path3676"
           style="fill:#000000;fill-opacity:1;stroke-width:1.2967" />
        <path
           d="m 3480,2765 c -10,-12 -10,-25 -1,-58 6,-23 12,-55 13,-72 3,-27 7,-30 42,-33 21,-2 43,1 47,5 9,9 -9,78 -37,141 -16,35 -43,42 -64,17 z"
           id="path3678"
           style="fill:#000000;fill-opacity:1;stroke-width:1.2967" />
        <path
           d="m 3244,2759 c -38,-11 -52,-26 -60,-66 -5,-28 -3,-31 40,-47 66,-25 79,-20 82,33 2,46 -10,92 -23,90 -5,0 -22,-5 -39,-10 z"
           id="path3680"
           style="fill:#000000;fill-opacity:1;stroke-width:1.2967" />
        <path
           d="m 3169,2549 c -17,-33 -22,-61 -22,-121 0,-44 5,-84 11,-90 6,-6 25,-8 46,-4 27,5 37,13 41,31 3,14 7,36 10,50 4,18 12,25 28,25 32,1 57,23 57,51 0,39 -36,89 -64,89 -13,0 -37,3 -54,6 -28,6 -32,3 -53,-37 z"
           id="path3682"
           style="fill:#000000;fill-opacity:1;stroke-width:1.2967" />
        <path
           d="m 2978,2463 c -12,-3 -16,-15 -15,-46 2,-40 4,-42 32,-42 27,0 30,4 36,40 4,22 5,43 2,48 -4,7 -27,8 -55,0 z"
           id="path3684"
           style="fill:#000000;fill-opacity:1;stroke-width:1.2967" />
        <path
           d="m 2440,2411 c -15,-30 -12,-66 8,-83 33,-29 80,-51 95,-45 14,5 13,12 -8,55 -13,27 -23,57 -22,67 3,28 -58,32 -73,6 z"
           id="path3686"
           style="fill:#000000;fill-opacity:1;stroke-width:1.2967" />
        <path
           d="m 2742,2379 c -42,-12 -51,-36 -23,-55 12,-9 21,-26 21,-40 0,-36 14,-57 58,-88 41,-28 67,-27 77,4 6,19 -20,70 -36,70 -5,0 -9,8 -9,18 0,31 -28,97 -42,99 -7,1 -28,-3 -46,-8 z"
           id="path3688"
           style="fill:#000000;fill-opacity:1;stroke-width:1.2967" />
        <path
           d="m 2046,2323 c -14,-21 -26,-43 -26,-49 0,-16 44,-54 63,-54 26,0 58,59 55,100 -3,31 -6,35 -35,38 -27,3 -35,-2 -57,-35 z"
           id="path3690"
           style="fill:#000000;fill-opacity:1;stroke-width:1.2967" />
        <path
           d="m 1006,2224 c -16,-43 8,-134 36,-134 11,0 18,7 18,20 0,13 7,20 18,20 46,0 58,67 17,94 -31,21 -81,21 -89,0 z"
           id="path3692"
           style="fill:#000000;fill-opacity:1;stroke-width:1.2967" />
        <path
           d="m 2316,2148 c -16,-23 -21,-83 -10,-112 4,-9 18,-16 34,-16 19,0 29,-6 33,-20 9,-33 41,-24 65,19 12,21 22,44 22,51 0,18 -91,100 -111,100 -10,0 -25,-10 -33,-22 z"
           id="path3694"
           style="fill:#000000;fill-opacity:1;stroke-width:1.2967" />
        <path
           d="m 2170,2076 c 0,-40 11,-50 46,-42 29,8 32,36 6,59 -31,29 -52,22 -52,-17 z"
           id="path3696"
           style="fill:#000000;fill-opacity:1;stroke-width:1.2967" />
        <path
           d="m 1040,1990 c -9,-18 -8,-25 6,-41 9,-10 26,-19 36,-19 16,0 19,6 16,38 -2,29 -8,38 -25,40 -14,2 -26,-4 -33,-18 z"
           id="path3698"
           style="fill:#000000;fill-opacity:1;stroke-width:1.2967" />
        <path
           d="m 2300,1931 c -14,-4 -25,-12 -24,-19 1,-7 2,-25 3,-42 l 1,-29 63,3 c 73,3 87,9 87,37 0,47 -59,70 -130,50 z"
           id="path3700"
           style="fill:#000000;fill-opacity:1;stroke-width:1.2967" />
        <path
           d="m 2480,1471 c -21,-41 -6,-81 32,-81 26,0 45,44 28,65 -26,31 -48,37 -60,16 z"
           id="path3702"
           style="fill:#000000;fill-opacity:1;stroke-width:1.2967" />
        <path
           d="m 2291,1356 c -22,-23 -22,-25 -6,-56 11,-21 21,-30 31,-26 9,3 20,6 25,6 12,0 41,71 35,87 -9,22 -61,15 -85,-11 z"
           id="path3704"
           style="fill:#000000;fill-opacity:1;stroke-width:1.2967" />
        <path
           d="m 2157,1334 c -26,-26 24,-103 58,-90 12,4 15,17 13,48 -3,40 -5,43 -33,46 -17,2 -34,0 -38,-4 z"
           id="path3706"
           style="fill:#000000;fill-opacity:1;stroke-width:1.2967" />
        <path
           d="m 3180,1961 c -5,-11 -10,-33 -10,-50 0,-23 5,-31 18,-31 22,0 58,39 56,60 -1,8 -2,21 -3,28 -2,19 -49,14 -61,-7 z"
           id="path3708"
           style="fill:#000000;fill-opacity:1;stroke-width:1.2967" />
        <path
           d="m 3146,1805 c -29,-45 3,-59 63,-29 31,15 31,17 15,35 -24,27 -59,24 -78,-6 z"
           id="path3710"
           style="fill:#000000;fill-opacity:1;stroke-width:1.2967" />
        <path
           d="m 3254,1735 c -8,-21 3,-48 19,-43 19,7 22,58 2,58 -8,0 -18,-7 -21,-15 z"
           id="path3712"
           style="fill:#000000;fill-opacity:1;stroke-width:1.2967" />
        <path
           d="m 3085,1717 c -17,-13 -17,-15 5,-45 13,-18 29,-32 36,-32 15,0 25,25 18,44 -3,8 0,17 5,21 6,3 9,11 6,16 -9,13 -48,11 -70,-4 z"
           id="path3714"
           style="fill:#000000;fill-opacity:1;stroke-width:1.2967" />
      </g>
    </g>
  </g>
  <g
     inkscape:groupmode="layer"
     id="layer2"
     inkscape:label="napis"
     transform="translate(-8.6461867,-12.351695)">
    <text
       xml:space="preserve"
       style="font-size:65.1969px;line-height:1.25;font-family:Montserrat;-inkscape-font-specification:Montserrat;letter-spacing:11.25px;word-spacing:0px;stroke-width:0.75"
       x="-105.51697"
       y="356.44214"
       id="text4917"><tspan
         sodipodi:role="line"
         id="tspan4915"
         style="font-style:normal;font-variant:normal;font-weight:normal;font-stretch:normal;font-size:65.1969px;font-family:Robtronika;-inkscape-font-specification:Robtronika;fill:#ffffff;stroke-width:0.75"
         x="-105.51697"
         y="356.44214">GeKKoN</tspan></text>
    <text
       xml:space="preserve"
       style="font-size:17.0079px;line-height:1.25;font-family:Montserrat;-inkscape-font-specification:Montserrat;letter-spacing:0px;word-spacing:0px;stroke-width:0.75"
       x="-115.02934"
       y="385.95648"
       id="text21714"><tspan
         sodipodi:role="line"
         id="tspan21712"
         style="font-style:normal;font-variant:normal;font-weight:normal;font-stretch:normal;font-size:17.0079px;font-family:Conthrax;-inkscape-font-specification:Conthrax;fill:#ffffff;stroke-width:0.75"
         x="-115.02934"
         y="385.95648">Górnośląska Kosmiczna Konferencja Naukowa</tspan></text>
  </g>
</svg>
